<?xml version="1.0" encoding="UTF-8" standalone="no"?>
<!-- Created with Inkscape (http://www.inkscape.org/) -->

<svg
   xmlns:dc="http://purl.org/dc/elements/1.1/"
   xmlns:cc="http://creativecommons.org/ns#"
   xmlns:rdf="http://www.w3.org/1999/02/22-rdf-syntax-ns#"
   xmlns:svg="http://www.w3.org/2000/svg"
   xmlns="http://www.w3.org/2000/svg"
   xmlns:sodipodi="http://sodipodi.sourceforge.net/DTD/sodipodi-0.dtd"
   xmlns:inkscape="http://www.inkscape.org/namespaces/inkscape"
   id="svg2985"
   version="1.1"
   inkscape:version="0.48.4 r9939"
   width="125"
   height="125"
   xml:space="preserve"
   sodipodi:docname="1_tropical storm.ai"><metadata
     id="metadata2991"><rdf:RDF><cc:Work
         rdf:about=""><dc:format>image/svg+xml</dc:format><dc:type
           rdf:resource="http://purl.org/dc/dcmitype/StillImage" /><dc:title></dc:title></cc:Work></rdf:RDF></metadata><defs
     id="defs2989"><clipPath
       clipPathUnits="userSpaceOnUse"
       id="clipPath2999"><path
         d="M 0,100 100,100 100,0 0,0 0,100 z"
         id="path3001" /></clipPath></defs><sodipodi:namedview
     pagecolor="#ffffff"
     bordercolor="#666666"
     borderopacity="1"
     objecttolerance="10"
     gridtolerance="10"
     guidetolerance="10"
     inkscape:pageopacity="0"
     inkscape:pageshadow="2"
     inkscape:window-width="1037"
     inkscape:window-height="963"
     id="namedview2987"
     showgrid="false"
     inkscape:zoom="4.856"
     inkscape:cx="62.5"
     inkscape:cy="62.5"
     inkscape:window-x="0"
     inkscape:window-y="0"
     inkscape:window-maximized="0"
     inkscape:current-layer="g2993" /><g
     id="g2993"
     inkscape:groupmode="layer"
     inkscape:label="1_tropical storm"
     transform="matrix(1.25,0,0,-1.25,0,125)"><g
       id="g2995"><g
         id="g2997"
         clip-path="url(#clipPath2999)"><g
           id="g3003"
           transform="translate(62.3474,47.1452)"><path
             d="m 0,0 c -0.164,-0.785 -0.399,-1.546 -0.701,-2.282 -0.018,-0.046 -0.025,-0.096 -0.044,-0.143 -0.697,-1.636 -1.658,-3.065 -2.874,-4.285 -1.22,-1.215 -2.648,-2.176 -4.285,-2.869 -1.636,-0.697 -3.392,-1.046 -5.275,-1.046 -1.879,0 -3.639,0.349 -5.275,1.046 -1.637,0.693 -3.065,1.654 -4.281,2.869 -1.22,1.22 -2.181,2.649 -2.874,4.285 -0.697,1.637 -1.045,3.397 -1.045,5.276 0,0.937 0.087,1.844 0.261,2.721 0.164,0.785 0.399,1.546 0.7,2.282 0.019,0.046 0.025,0.097 0.044,0.143 0.698,1.637 1.658,3.065 2.874,4.285 1.22,1.216 2.648,2.176 4.285,2.869 1.637,0.698 3.392,1.046 5.275,1.046 1.879,0 3.639,-0.348 5.276,-1.046 1.636,-0.693 3.065,-1.653 4.281,-2.869 1.22,-1.22 2.18,-2.648 2.873,-4.285 C -0.088,6.36 0.261,4.601 0.261,2.722 0.261,1.784 0.173,0.877 0,0 m 11.492,13.481 c -1.288,3.137 -3.099,5.781 -5.433,7.94 -2.334,2.16 -5.101,3.814 -8.306,4.961 -3.201,1.152 -6.755,1.726 -10.653,1.726 -0.658,0 -1.265,-0.119 -1.907,-0.155 l 16.047,24.731 -15.252,0 -18.913,-29.773 c -2.019,-3.278 -3.672,-6.496 -4.96,-9.667 -1.288,-3.167 -1.935,-6.703 -1.935,-10.602 0,-3.902 0.647,-7.417 1.935,-10.55 1.288,-3.138 3.099,-5.782 5.432,-7.941 2.334,-2.16 5.101,-3.813 8.307,-4.961 3.201,-1.152 6.754,-1.726 10.652,-1.726 0.659,0 1.265,0.119 1.908,0.155 l -16.048,-24.731 15.253,0 18.912,29.774 c 2.019,3.277 3.673,6.495 4.961,9.666 1.288,3.167 1.934,6.704 1.934,10.602 0,3.902 -0.646,7.418 -1.934,10.551"
             style="fill:#000000;fill-opacity:1;fill-rule:nonzero;stroke:none"
             id="path3005" /></g><g
           id="g3007"
           transform="translate(62.3474,47.1452)"><path
             d="m 0,0 c -0.164,-0.785 -0.399,-1.546 -0.701,-2.282 -0.018,-0.046 -0.025,-0.096 -0.044,-0.143 -0.697,-1.636 -1.658,-3.065 -2.874,-4.285 -1.22,-1.215 -2.648,-2.176 -4.285,-2.869 -1.636,-0.697 -3.392,-1.046 -5.275,-1.046 -1.879,0 -3.639,0.349 -5.275,1.046 -1.637,0.693 -3.065,1.654 -4.281,2.869 -1.22,1.22 -2.181,2.649 -2.874,4.285 -0.697,1.637 -1.045,3.397 -1.045,5.276 0,0.937 0.087,1.844 0.261,2.721 0.164,0.785 0.399,1.546 0.7,2.282 0.019,0.046 0.025,0.097 0.044,0.143 0.698,1.637 1.658,3.065 2.874,4.285 1.22,1.216 2.648,2.176 4.285,2.869 1.637,0.698 3.392,1.046 5.275,1.046 1.879,0 3.639,-0.348 5.276,-1.046 1.636,-0.693 3.065,-1.653 4.281,-2.869 1.22,-1.22 2.18,-2.648 2.873,-4.285 C -0.088,6.36 0.261,4.601 0.261,2.722 0.261,1.784 0.173,0.877 0,0 z m 11.492,13.481 c -1.288,3.137 -3.099,5.781 -5.433,7.94 -2.334,2.16 -5.101,3.814 -8.306,4.961 -3.201,1.152 -6.755,1.726 -10.653,1.726 -0.658,0 -1.265,-0.119 -1.907,-0.155 l 16.047,24.731 -15.252,0 -18.913,-29.773 c -2.019,-3.278 -3.672,-6.496 -4.96,-9.667 -1.288,-3.167 -1.935,-6.703 -1.935,-10.602 0,-3.902 0.647,-7.417 1.935,-10.55 1.288,-3.138 3.099,-5.782 5.432,-7.941 2.334,-2.16 5.101,-3.813 8.307,-4.961 3.201,-1.152 6.754,-1.726 10.652,-1.726 0.659,0 1.265,0.119 1.908,0.155 l -16.048,-24.731 15.253,0 18.912,29.774 c 2.019,3.277 3.673,6.495 4.961,9.666 1.288,3.167 1.934,6.704 1.934,10.602 0,3.902 -0.646,7.418 -1.934,10.551 z"
             style="fill:none;stroke:#000000;stroke-opacity:1;stroke-width:0.5;stroke-linecap:butt;stroke-linejoin:miter;stroke-miterlimit:10;stroke-dasharray:none"
             id="path3009" /></g></g></g></g></svg>