<?xml version="1.0" encoding="utf-8"?>
<!-- Generator: Adobe Illustrator 12.0.0, SVG Export Plug-In . SVG Version: 6.00 Build 51448)  -->
<!DOCTYPE svg PUBLIC "-//W3C//DTD SVG 1.1//EN" "http://www.w3.org/Graphics/SVG/1.1/DTD/svg11.dtd" [
	<!ENTITY ns_svg "http://www.w3.org/2000/svg">
	<!ENTITY ns_xlink "http://www.w3.org/1999/xlink">
]>
<svg  version="1.1" id="Layer_1" xmlns="&ns_svg;" xmlns:xlink="&ns_xlink;" width="100" height="100" viewBox="0 0 100 100"
	 overflow="visible" enable-background="new 0 0 100 100" xml:space="preserve">
<g>
	<defs>
		<rect id="XMLID_1_" width="100" height="100"/>
	</defs>
	<clipPath id="XMLID_3_">
		<use xlink:href="#XMLID_1_" />
	</clipPath>
	<path clip-path="url(#XMLID_3_)" fill="none" stroke="#000000" stroke-width="3" stroke-miterlimit="10" d="M4.708,51.09
		c9.902-13.381,52.988-3.747,69.044-5.888c15.056-2.007,12.736-19.701-0.268-15.521"/>
	<path clip-path="url(#XMLID_3_)" fill="none" stroke="#000000" stroke-width="3" stroke-miterlimit="10" d="M22.371,62.33
		c10.972-9.099,38.269-5.085,43.889-0.803c11.585,8.826-1.873,23.817-12.31,10.972"/>
	<path clip-path="url(#XMLID_3_)" fill="none" stroke="#000000" stroke-width="3" stroke-miterlimit="10" d="M13.25,57.5
		c9.902-12.31,53.545-6.945,69.335-0.79c14.151,5.517,13.271-12.208,0.267-8.028"/>
</g>
<path fill="#7F7F7F" d="M67.344,31.756l0.627,0.537l0.831-0.233l0.189-0.767l-0.599-0.588l-0.817,0.23L67.344,31.756z
	 M68.951,35.784l-0.328-1.167l-0.546,0.546l-0.393-0.1l-0.116-0.416l0.82-0.819l-0.215-0.765l-0.573,0.65l-0.229-0.817l-0.566,0.58
	l0.313,1.115l-0.297,0.336l-0.369-0.121l-0.208-0.739l-0.866,0.859l-0.492-0.058l-0.131-0.467l0.901-0.883l-0.762-0.165l-0.12-0.428
	l0.317-0.313l1.12,0.301l0.554-0.575l-0.017-0.01l-0.798-0.196l0.546-0.601l-0.771-0.203l-0.804,0.828L64.527,32.1l-0.12-0.428
	l0.548-0.546l-1.196-0.267l-0.131-0.467l0.344-0.321l1.188,0.296l-0.211-0.753l0.253-0.294l0.438,0.115l0.317,1.128l0.798,0.196
	l-0.223-0.792l0.823,0.188l-0.215-0.765l-1.131-0.284l-0.113-0.402l0.282-0.29l0.751,0.181l-0.328-1.167l0.308-0.353l0.445,0.141
	l0.328,1.167l0.569-0.565l0.398,0.126l0.103,0.363l-0.838,0.852l0.215,0.765l0.57-0.608l0.237,0.843l0.591-0.586l-0.339-1.207
	l0.294-0.25l0.406,0.054l0.216,0.766l0.89-0.867l0.427,0.119l0.124,0.441L70.686,29.5l0.738,0.185L71.54,30.1l-0.286,0.276
	l-1.15-0.306l-0.567,0.621l0.779,0.229L69.75,31.5l0.802,0.166l0.833-0.822l0.374,0.133l0.112,0.402l-0.523,0.525l1.15,0.307
	l0.127,0.454l-0.36,0.311l-1.126-0.271l0.204,0.726l-0.295,0.293l-0.393-0.1l-0.31-1.103l-0.827-0.202l0.216,0.766l-0.779-0.229
	l0.216,0.766l1.126,0.271l0.124,0.441l-0.29,0.264l-0.751-0.181l0.328,1.167l-0.311,0.339L68.951,35.784z"/>
<path fill="#7F7F7F" d="M78.9,50.075l0.396,0.269l0.464-0.189l0.06-0.455l-0.384-0.3l-0.457,0.187L78.9,50.075z M80.093,52.291
	l-0.267-0.652l-0.279,0.352l-0.232-0.031l-0.095-0.232l0.419-0.525l-0.174-0.427l-0.287,0.413l-0.187-0.456l-0.288,0.372
	l0.254,0.621l-0.149,0.213l-0.221-0.044l-0.168-0.413l-0.442,0.553l-0.287-0.001l-0.106-0.261l0.461-0.567l-0.45-0.046l-0.098-0.238
	l0.164-0.202l0.665,0.1l0.28-0.368l-0.011-0.004l-0.472-0.061l0.274-0.383l-0.458-0.066l-0.408,0.53L77.3,50.458l-0.098-0.239
	l0.28-0.351l-0.707-0.075l-0.106-0.26l0.177-0.208l0.705,0.092l-0.171-0.419l0.126-0.187l0.26,0.037l0.258,0.63l0.473,0.06
	l-0.181-0.442l0.487,0.056l-0.175-0.428l-0.671-0.089l-0.092-0.225l0.145-0.185l0.445,0.054l-0.267-0.651l0.154-0.224l0.266,0.052
	l0.267,0.652l0.29-0.363l0.238,0.046l0.083,0.203L79.06,48.54l0.175,0.428l0.289-0.388l0.191,0.47l0.302-0.376L79.742,48
	l0.152-0.164l0.238,0.004l0.174,0.428l0.458-0.558l0.252,0.039l0.101,0.246l-0.439,0.561l0.438,0.057l0.095,0.231l-0.146,0.179
	l-0.685-0.101l-0.286,0.395l0.464,0.082l-0.287,0.371l0.474,0.043l0.427-0.529l0.224,0.052l0.092,0.224l-0.27,0.338l0.686,0.101
	l0.104,0.253l-0.188,0.203l-0.668-0.082l0.165,0.405l-0.151,0.188l-0.232-0.032l-0.251-0.615l-0.489-0.063l0.175,0.428l-0.464-0.081
	l0.175,0.427l0.666,0.082l0.101,0.247l-0.149,0.171l-0.444-0.056l0.266,0.651l-0.156,0.216L80.093,52.291z"/>
<path fill="#7F7F7F" d="M50.387,68.219l0.458,0.687h0.863l0.391-0.687l-0.418-0.729h-0.849L50.387,68.219z M50.845,72.531v-1.213
	l-0.674,0.377l-0.351-0.201v-0.432l1.012-0.566v-0.795l-0.728,0.471v-0.849l-0.702,0.405v1.158l-0.377,0.242l-0.322-0.215v-0.769
	l-1.066,0.593l-0.458-0.189v-0.484l1.106-0.605l-0.688-0.365v-0.444l0.391-0.216l0.997,0.594l0.688-0.404l-0.014-0.014l-0.715-0.404
	l0.688-0.432l-0.688-0.404l-0.997,0.579l-0.364-0.161v-0.445l0.675-0.377l-1.079-0.58V65.9l0.418-0.217l1.064,0.607v-0.782
	l0.323-0.216l0.392,0.23v1.172l0.715,0.404v-0.822l0.741,0.404v-0.795l-1.012-0.58v-0.418l0.351-0.201l0.674,0.377v-1.213
	l0.392-0.256l0.391,0.256v1.213l0.701-0.391l0.35,0.229v0.377l-1.037,0.594v0.795l0.714-0.432v0.877l0.728-0.404v-1.254l0.351-0.162
	l0.377,0.162v0.795l1.092-0.593l0.378,0.229v0.458l-1.064,0.606l0.66,0.377v0.432l-0.351,0.188L53.5,67.342l-0.714,0.445
	l0.688,0.432l-0.701,0.404L53.5,69l1.024-0.566l0.323,0.229v0.417l-0.646,0.364l1.024,0.606v0.471l-0.432,0.203l-1.011-0.565v0.755
	l-0.363,0.201l-0.351-0.201v-1.146l-0.741-0.418v0.796l-0.688-0.431v0.795l1.011,0.566v0.457l-0.351,0.176l-0.674-0.377v1.211
	l-0.391,0.244L50.845,72.531z"/>
</svg>
