<?xml version="1.0" encoding="utf-8"?>
<!-- Generator: Adobe Illustrator 12.0.0, SVG Export Plug-In . SVG Version: 6.00 Build 51448)  -->
<!DOCTYPE svg PUBLIC "-//W3C//DTD SVG 1.1//EN" "http://www.w3.org/Graphics/SVG/1.1/DTD/svg11.dtd" [
	<!ENTITY ns_svg "http://www.w3.org/2000/svg">
	<!ENTITY ns_xlink "http://www.w3.org/1999/xlink">
]>
<svg  version="1.1" id="Layer_1" xmlns="&ns_svg;" xmlns:xlink="&ns_xlink;" width="92.617" height="87.502"
	 viewBox="0 0 92.617 87.502" overflow="visible" enable-background="new 0 0 92.617 87.502" xml:space="preserve">
<path fill="#7F7F7F" d="M11.067,62.781l0.662,0.992h1.246l0.564-0.992l-0.604-1.051H11.71L11.067,62.781z M11.729,69.009v-1.753
	l-0.974,0.546l-0.506-0.291v-0.625l1.46-0.817V64.92l-1.051,0.683v-1.227L9.646,64.96v1.674l-0.544,0.351l-0.468-0.311v-1.11
	L7.097,66.42l-0.662-0.273v-0.7l1.596-0.875l-0.993-0.526v-0.643l0.564-0.311l1.44,0.856l0.993-0.584l-0.02-0.02l-1.031-0.584
	l0.992-0.624l-0.992-0.583l-1.441,0.837l-0.525-0.233v-0.642l0.973-0.546l-1.557-0.838v-0.7l0.604-0.311l1.537,0.875v-1.129
	l0.467-0.313l0.564,0.332v1.694l1.032,0.584v-1.188l1.071,0.584v-1.149l-1.46-0.836v-0.604l0.506-0.293l0.974,0.545v-1.752
	l0.564-0.37l0.565,0.37v1.752l1.012-0.564l0.505,0.332v0.545l-1.499,0.856v1.148l1.032-0.623v1.265l1.051-0.584v-1.81l0.505-0.235
	l0.545,0.235v1.148l1.577-0.855l0.544,0.329v0.662l-1.538,0.876l0.954,0.546v0.621l-0.506,0.273l-1.479-0.875l-1.032,0.642
	l0.993,0.623l-1.012,0.584l1.052,0.545l1.479-0.817l0.467,0.33v0.604l-0.934,0.526l1.479,0.875v0.681l-0.623,0.293l-1.46-0.817
	v1.091l-0.525,0.291l-0.506-0.291v-1.655l-1.07-0.604v1.148l-0.994-0.624v1.148l1.46,0.817v0.663l-0.506,0.253l-0.973-0.546v1.752
	l-0.565,0.352L11.729,69.009z"/>
<path fill="#7F7F7F" d="M25.896,80.904l0.662,0.993h1.246l0.564-0.993l-0.604-1.051h-1.226L25.896,80.904z M26.558,87.132V85.38
	l-0.974,0.545l-0.506-0.291V85.01l1.46-0.817v-1.148l-1.051,0.682V82.5l-1.012,0.584v1.673l-0.544,0.351l-0.467-0.311v-1.109
	l-1.538,0.855l-0.662-0.273v-0.7l1.596-0.875l-0.993-0.526v-0.642l0.565-0.311l1.44,0.855l0.993-0.584l-0.02-0.019l-1.031-0.585
	l0.992-0.624l-0.992-0.582l-1.441,0.837l-0.525-0.233v-0.643l0.973-0.545l-1.557-0.839v-0.699l0.604-0.311l1.537,0.875v-1.13
	l0.468-0.312l0.564,0.331v1.694l1.032,0.584v-1.188l1.07,0.584v-1.148l-1.46-0.837v-0.604l0.506-0.293l0.974,0.546v-1.752
	l0.565-0.37l0.564,0.37v1.752l1.012-0.564l0.505,0.331v0.546l-1.499,0.855v1.148l1.032-0.622v1.265l1.051-0.584v-1.811l0.505-0.234
	l0.545,0.234v1.149l1.577-0.856l0.545,0.33v0.661l-1.538,0.877l0.954,0.545v0.621l-0.506,0.274l-1.479-0.876l-1.032,0.643
	l0.993,0.622l-1.012,0.584l1.051,0.546l1.479-0.817l0.468,0.33v0.603l-0.934,0.526l1.479,0.876v0.68l-0.623,0.293l-1.46-0.817v1.091
	l-0.525,0.292l-0.506-0.292v-1.655l-1.07-0.604v1.149l-0.994-0.625v1.149l1.46,0.817v0.662l-0.506,0.253L27.687,85.4v1.752
	l-0.564,0.351L26.558,87.132z"/>
<path fill="#7F7F7F" d="M42.372,62.918l0.662,0.991h1.246l0.564-0.991l-0.604-1.052h-1.226L42.372,62.918z M43.034,69.146v-1.751
	l-0.974,0.544l-0.506-0.291v-0.623l1.46-0.817v-1.148l-1.051,0.682v-1.226l-1.012,0.582v1.674l-0.544,0.351l-0.468-0.311v-1.108
	l-1.537,0.855l-0.662-0.273v-0.701l1.596-0.875l-0.993-0.525V63.54l0.564-0.311l1.44,0.858l0.993-0.586l-0.019-0.02L40.29,62.9
	l0.992-0.625l-0.992-0.584l-1.441,0.839l-0.525-0.235v-0.642l0.973-0.546l-1.557-0.836v-0.702l0.604-0.311l1.537,0.877v-1.129
	l0.467-0.313l0.564,0.331v1.693l1.032,0.585v-1.188l1.071,0.583v-1.149l-1.46-0.836v-0.603l0.506-0.292l0.974,0.544v-1.751
	l0.564-0.37l0.565,0.37v1.751l1.012-0.563l0.505,0.331v0.544l-1.499,0.856v1.148l1.032-0.623v1.267l1.051-0.586v-1.809l0.505-0.234
	l0.545,0.234v1.147l1.577-0.855l0.544,0.329v0.663l-1.538,0.876l0.955,0.545v0.623l-0.507,0.273l-1.479-0.877l-1.032,0.642
	l0.994,0.624l-1.013,0.583l1.051,0.545l1.479-0.817l0.469,0.33v0.605l-0.935,0.524l1.479,0.875v0.683l-0.623,0.293l-1.459-0.817
	v1.089l-0.526,0.291l-0.506-0.291v-1.655l-1.07-0.603v1.149l-0.994-0.624v1.148l1.46,0.817v0.663l-0.506,0.251l-0.973-0.544v1.75
	l-0.565,0.352L43.034,69.146z"/>
<path fill="#7F7F7F" d="M57.063,80.904l0.662,0.993h1.247l0.563-0.993l-0.604-1.051h-1.226L57.063,80.904z M57.725,87.132V85.38
	l-0.974,0.545l-0.505-0.291V85.01l1.459-0.817v-1.148l-1.051,0.682V82.5l-1.014,0.584v1.673l-0.544,0.351l-0.467-0.311v-1.109
	l-1.538,0.855l-0.663-0.273v-0.7l1.597-0.875l-0.991-0.526v-0.642l0.563-0.311l1.441,0.855l0.991-0.584l-0.02-0.019l-1.029-0.585
	l0.99-0.624l-0.99-0.582l-1.442,0.837l-0.524-0.233v-0.643l0.972-0.545l-1.558-0.839v-0.699l0.605-0.311l1.536,0.875v-1.13
	l0.469-0.312l0.563,0.331v1.694l1.033,0.584v-1.188l1.07,0.584v-1.148L56.246,76.7v-0.604l0.505-0.293l0.974,0.546v-1.752
	l0.564-0.37l0.564,0.37v1.752l1.013-0.564l0.505,0.331v0.546l-1.5,0.855v1.148l1.033-0.622v1.265l1.053-0.584v-1.811l0.505-0.234
	l0.544,0.234v1.149l1.577-0.856l0.545,0.33v0.661l-1.538,0.877l0.954,0.545v0.621l-0.505,0.274l-1.48-0.876l-1.031,0.643
	l0.992,0.622l-1.012,0.584l1.051,0.546l1.48-0.817l0.466,0.33v0.603l-0.933,0.526l1.477,0.876v0.68l-0.621,0.293l-1.461-0.817v1.091
	l-0.524,0.292l-0.507-0.292v-1.655l-1.069-0.604v1.149l-0.995-0.625v1.149l1.461,0.817v0.662l-0.505,0.253L58.854,85.4v1.752
	l-0.564,0.351L57.725,87.132z"/>
<path fill="#7F7F7F" d="M72.028,62.917l0.661,0.992h1.247l0.564-0.992l-0.604-1.051H72.67L72.028,62.917z M72.689,69.146v-1.753
	l-0.972,0.546l-0.507-0.293v-0.621l1.459-0.817v-1.148l-1.051,0.681v-1.227l-1.012,0.584v1.674l-0.544,0.351l-0.468-0.313v-1.108
	l-1.537,0.856l-0.663-0.272v-0.701l1.597-0.875l-0.993-0.526V63.54l0.564-0.312l1.44,0.857l0.993-0.584l-0.02-0.02l-1.031-0.584
	l0.992-0.623l-0.992-0.585l-1.44,0.838l-0.526-0.233v-0.644l0.974-0.544l-1.558-0.836v-0.702l0.604-0.312l1.537,0.877v-1.128
	l0.468-0.313l0.564,0.331v1.693l1.031,0.584v-1.188l1.07,0.584v-1.149l-1.459-0.836V58.11l0.507-0.291l0.972,0.544v-1.751
	l0.566-0.37l0.563,0.37v1.751l1.014-0.565l0.506,0.332v0.545l-1.5,0.856v1.148l1.033-0.624v1.266l1.051-0.584v-1.81l0.505-0.233
	l0.546,0.233v1.147l1.576-0.856l0.544,0.331v0.663l-1.538,0.876l0.956,0.543v0.625l-0.507,0.271l-1.479-0.877l-1.033,0.644
	l0.994,0.623l-1.014,0.584l1.053,0.544l1.479-0.817l0.468,0.331v0.604l-0.935,0.526l1.479,0.875v0.683l-0.622,0.291l-1.46-0.817
	v1.089l-0.526,0.293L75.9,66.809v-1.653l-1.068-0.604v1.148l-0.994-0.622v1.148l1.461,0.817v0.661l-0.507,0.253l-0.974-0.544v1.75
	l-0.563,0.352L72.689,69.146z"/>
<path stroke="#000000" stroke-width="2" d="M47.493,1c-11.866,0-21.47,9.609-21.47,21.47c0,0.268,0.04,0.503,0.051,0.772
	c-0.269-0.018-0.504-0.052-0.773-0.052c-6.384,0-11.533,5.149-11.533,11.533v0.257c-0.913-0.273-1.832-0.463-2.832-0.463
	C5.461,34.518,1,38.932,1,44.404c0,5.476,4.461,7.569,9.937,7.569h63.69c9.387,0,16.99-7.603,16.99-16.992
	c0-9.387-7.604-16.992-16.99-16.992c-2.121,0-4.159,0.427-6.024,1.134C66.984,8.865,58.202,1,47.493,1L47.493,1z"/>
</svg>
