<?xml version="1.0" encoding="UTF-8" standalone="no"?>
<!-- Generator: Adobe Illustrator 17.1.0, SVG Export Plug-In . SVG Version: 6.00 Build 0)  -->

<svg
   xmlns:dc="http://purl.org/dc/elements/1.1/"
   xmlns:cc="http://creativecommons.org/ns#"
   xmlns:rdf="http://www.w3.org/1999/02/22-rdf-syntax-ns#"
   xmlns:svg="http://www.w3.org/2000/svg"
   xmlns="http://www.w3.org/2000/svg"
   xmlns:sodipodi="http://sodipodi.sourceforge.net/DTD/sodipodi-0.dtd"
   xmlns:inkscape="http://www.inkscape.org/namespaces/inkscape"
   version="1.1"
   id="Layer_1"
   x="0px"
   y="0px"
   viewBox="0 0 100 100"
   enable-background="new 0 0 100 100"
   xml:space="preserve"
   inkscape:version="0.48.4 r9939"
   width="100%"
   height="100%"
   sodipodi:docname="2_hurricane.svg"><metadata
   id="metadata3001"><rdf:RDF><cc:Work
       rdf:about=""><dc:format>image/svg+xml</dc:format><dc:type
         rdf:resource="http://purl.org/dc/dcmitype/StillImage" /><dc:title></dc:title></cc:Work></rdf:RDF></metadata><defs
   id="defs2999" /><sodipodi:namedview
   pagecolor="#ffffff"
   bordercolor="#666666"
   borderopacity="1"
   objecttolerance="10"
   gridtolerance="10"
   guidetolerance="10"
   inkscape:pageopacity="0"
   inkscape:pageshadow="2"
   inkscape:window-width="640"
   inkscape:window-height="480"
   id="namedview2997"
   showgrid="false"
   inkscape:zoom="2.36"
   inkscape:cx="50"
   inkscape:cy="50"
   inkscape:window-x="0"
   inkscape:window-y="0"
   inkscape:window-maximized="0"
   inkscape:current-layer="Layer_1" />
<path
   stroke="#000000"
   stroke-width="0.5"
   stroke-miterlimit="10"
   d="M73.8,39.4c-1.3-3.1-3.1-5.8-5.4-7.9c-2.3-2.2-5.1-3.8-8.3-5  c-3.2-1.2-6.8-1.7-10.7-1.7c-0.7,0-1.3,0.1-1.9,0.2l16-24.7H48.3L29.4,29.9c-2,3.3-3.7,6.5-5,9.7c-1.3,3.2-1.9,6.7-1.9,10.6  c0,3.9,0.6,7.4,1.9,10.6c1.3,3.1,3.1,5.8,5.4,7.9c2.3,2.2,5.1,3.8,8.3,5c3.2,1.2,6.8,1.7,10.7,1.7c0.7,0,1.3-0.1,1.9-0.2l-16,24.7  H50l18.9-29.8c2-3.3,3.7-6.5,5-9.7c1.3-3.2,1.9-6.7,1.9-10.6C75.8,46,75.1,42.5,73.8,39.4z"
   id="path2995" />
</svg>