<?xml version="1.0" encoding="utf-8"?>
<!-- Generator: Adobe Illustrator 17.1.0, SVG Export Plug-In . SVG Version: 6.00 Build 0)  -->
<!DOCTYPE svg PUBLIC "-//W3C//DTD SVG 1.1//EN" "http://www.w3.org/Graphics/SVG/1.1/DTD/svg11.dtd">
<svg version="1.1" id="Layer_1" xmlns="http://www.w3.org/2000/svg" xmlns:xlink="http://www.w3.org/1999/xlink" x="0px" y="0px"
	 viewBox="0 0 100 100" enable-background="new 0 0 100 100" xml:space="preserve">
<path d="M50.925,6.688c-2.128,0.052-4.005,0.744-5.5,1.978c-1.866,1.54-3.08,3.86-3.08,6.546v53.13
	c-3.736,2.805-5.923,7.071-5.94,11.715c-0.014,6.153,3.744,11.297,9.02,13.475c1.708,0.705,3.546,1.145,5.5,1.155
	c1.76,0.01,3.458-0.311,5.005-0.88c5.581-2.033,9.47-7.444,9.57-13.475c0.076-4.726-2.111-9.116-5.94-11.99V14.826
	c0-2.837-1.444-5.213-3.63-6.654c-1.406-0.931-3.12-1.438-4.95-1.484H50.925z M50.925,10.482c1.021,0.027,2.02,0.307,2.805,0.824
	c1.217,0.804,2.035,2.16,2.035,3.742v55.439c3.53,1.76,5.94,5.411,5.94,9.625c0,5.933-4.847,10.725-10.78,10.725
	S40.2,86.045,40.2,80.112c0-4.211,2.41-7.865,5.94-9.625V15.212c0-1.496,0.667-2.772,1.705-3.63
	C48.679,10.895,49.739,10.512,50.925,10.482z M48.065,62.017v9.735c-3.462,1.198-5.94,4.491-5.94,8.36
	c0,4.881,3.919,8.855,8.8,8.855c4.883,0,8.855-3.974,8.855-8.855c0-3.869-2.479-7.162-5.94-8.36v-9.735H48.065z"/>
</svg>
