<?xml version="1.0" encoding="utf-8"?>
<!-- Generator: Adobe Illustrator 17.1.0, SVG Export Plug-In . SVG Version: 6.00 Build 0)  -->
<!DOCTYPE svg PUBLIC "-//W3C//DTD SVG 1.1//EN" "http://www.w3.org/Graphics/SVG/1.1/DTD/svg11.dtd">
<svg version="1.1" id="Layer_1" xmlns="http://www.w3.org/2000/svg" xmlns:xlink="http://www.w3.org/1999/xlink" x="0px" y="0px"
	 viewBox="0 0 100 100" enable-background="new 0 0 100 100" xml:space="preserve">
<path d="M70.911,4.708v8.531h2.219V4.708H70.911z M61.036,7.114l-1.875,1.219l4.5,7.219l1.906-1.188L61.036,7.114L61.036,7.114z
	 M83.161,7.364l-4.125,7.438l1.938,1.094l4.125-7.469L83.161,7.364z M51.316,15.489l-1.062,1.938l7.406,4.156l1.094-1.969
	L51.316,15.489L51.316,15.489z M72.036,15.802c-7.625,0-13.812,6.224-13.812,13.875c0,7.65,6.188,13.845,13.812,13.844
	c7.619,0,13.781-6.192,13.781-13.844C85.817,22.027,79.655,15.802,72.036,15.802z M92.911,16.083l-7.375,4.25l1.125,1.969
	l7.375-4.281L92.911,16.083L92.911,16.083z M47.005,27.895v2.25h8.5v-2.25H47.005z M88.505,28.051v2.219h8.5v-2.219H88.505z
	 M56.693,35.864l-7.188,4.531l1.156,1.906l7.219-4.531L56.693,35.864z M86.942,36.364l-1.062,1.969l7.406,4.125l1.094-1.969
	L86.942,36.364z M81.287,43.176l-1.906,1.125l4.25,7.375l1.906-1.125L81.287,43.176z M62.725,43.239L58.6,50.676l1.969,1.093
	l4.125-7.468L62.725,43.239z M70.787,46.176v8.531h2.22v-8.531H70.787z"/>
<path fill="#7F7F7F" d="M10.443,80.973l0.402,0.602h0.756l0.342-0.602l-0.366-0.639h-0.744L10.443,80.973z M10.845,84.752v-1.062
	l-0.591,0.33l-0.307-0.176v-0.379l0.886-0.496v-0.697l-0.638,0.414v-0.744l-0.614,0.354v1.016L9.25,83.523l-0.284-0.188v-0.674
	l-0.933,0.52l-0.402-0.166V82.59l0.969-0.531L7.998,81.74V81.35l0.343-0.188l0.874,0.52l0.603-0.355l-0.012-0.012L9.18,80.961
	l0.602-0.379L9.18,80.229l-0.875,0.508l-0.319-0.143v-0.389l0.59-0.332l-0.945-0.508v-0.426l0.366-0.188l0.933,0.531v-0.686
	l0.284-0.189l0.342,0.201v1.027l0.626,0.355v-0.721l0.65,0.354v-0.697L9.947,78.42v-0.365l0.307-0.178l0.591,0.33v-1.062
	l0.343-0.225l0.343,0.225v1.062l0.614-0.342l0.307,0.201v0.33l-0.91,0.52v0.697l0.627-0.377v0.768l0.638-0.355v-1.098l0.307-0.143
	l0.331,0.143v0.697l0.957-0.52l0.331,0.199v0.402l-0.934,0.531l0.579,0.332v0.377l-0.307,0.166l-0.897-0.531l-0.627,0.389
	l0.602,0.379l-0.614,0.354l0.638,0.332l0.897-0.496l0.284,0.199v0.367l-0.567,0.318l0.898,0.531v0.414l-0.378,0.178l-0.886-0.496
	v0.662l-0.319,0.176l-0.307-0.176V82.33l-0.649-0.365v0.697l-0.603-0.379v0.697l0.886,0.496v0.402l-0.307,0.152l-0.59-0.33v1.062
	l-0.343,0.213L10.845,84.752z"/>
<path fill="#7F7F7F" d="M19.443,91.973l0.402,0.602h0.756l0.342-0.602l-0.366-0.639h-0.744L19.443,91.973z M19.845,95.752v-1.062
	l-0.591,0.33l-0.307-0.176v-0.379l0.886-0.496v-0.697l-0.638,0.414v-0.744l-0.614,0.354v1.016l-0.331,0.213l-0.284-0.188v-0.674
	l-0.933,0.52l-0.402-0.166V93.59l0.969-0.531l-0.603-0.318V92.35l0.343-0.188l0.874,0.52l0.603-0.355l-0.012-0.012l-0.626-0.354
	l0.602-0.379l-0.602-0.354l-0.875,0.508l-0.319-0.143v-0.389l0.59-0.332l-0.945-0.508v-0.426l0.366-0.188l0.933,0.531v-0.686
	l0.284-0.189l0.342,0.201v1.027l0.626,0.355v-0.721l0.65,0.354v-0.697l-0.886-0.508v-0.365l0.307-0.178l0.591,0.33v-1.062
	l0.343-0.225l0.343,0.225v1.062l0.614-0.342l0.307,0.201v0.33l-0.91,0.52v0.697l0.627-0.377v0.768l0.638-0.355v-1.098l0.307-0.143
	l0.331,0.143v0.697l0.957-0.52l0.33,0.199v0.402l-0.934,0.531l0.579,0.332v0.377l-0.307,0.166l-0.897-0.531l-0.626,0.389
	l0.602,0.379l-0.614,0.354l0.638,0.332l0.897-0.496l0.284,0.199v0.367l-0.567,0.318l0.898,0.531v0.414l-0.378,0.178l-0.886-0.496
	v0.662l-0.319,0.176l-0.307-0.176V93.33l-0.649-0.365v0.697l-0.603-0.379v0.697l0.886,0.496v0.402l-0.307,0.152l-0.59-0.33v1.062
	l-0.343,0.213L19.845,95.752z"/>
<path fill="#7F7F7F" d="M29.443,81.057l0.402,0.602h0.756l0.342-0.602l-0.366-0.639h-0.744L29.443,81.057z M29.845,84.836v-1.062
	l-0.591,0.33l-0.307-0.178v-0.377l0.886-0.496v-0.697l-0.638,0.414v-0.744l-0.614,0.354v1.016l-0.331,0.213l-0.284-0.189v-0.672
	l-0.933,0.52L26.632,83.1v-0.426l0.969-0.531l-0.603-0.318v-0.391l0.343-0.189l0.874,0.521l0.603-0.355l-0.012-0.012l-0.626-0.354
	l0.602-0.379l-0.602-0.355l-0.875,0.51l-0.319-0.143v-0.391l0.59-0.33l-0.945-0.508v-0.426l0.366-0.189l0.933,0.533v-0.686
	l0.284-0.189l0.342,0.201v1.027l0.626,0.355v-0.721l0.65,0.354v-0.697l-0.886-0.508v-0.365l0.307-0.178l0.591,0.33v-1.062
	l0.343-0.225l0.343,0.225v1.062l0.614-0.342l0.307,0.201v0.33L30.542,79v0.697l0.627-0.379v0.77l0.638-0.355v-1.098l0.307-0.143
	l0.331,0.143v0.695l0.957-0.52l0.33,0.201v0.402l-0.933,0.531l0.58,0.33v0.379L33.07,80.82l-0.897-0.533l-0.627,0.391l0.602,0.379
	l-0.614,0.354l0.638,0.33l0.897-0.496l0.284,0.201v0.367l-0.567,0.318l0.897,0.531v0.414l-0.378,0.178l-0.886-0.496v0.66
	l-0.319,0.178l-0.307-0.178v-1.004l-0.649-0.365v0.697l-0.603-0.379v0.697l0.886,0.496v0.402l-0.307,0.152l-0.59-0.33v1.062
	l-0.343,0.213L29.845,84.836z"/>
<path fill="#7F7F7F" d="M38.36,91.973l0.401,0.602h0.757l0.342-0.602l-0.366-0.639H38.75L38.36,91.973z M38.762,95.752v-1.062
	l-0.591,0.33l-0.307-0.176v-0.379l0.886-0.496v-0.697l-0.638,0.414v-0.744l-0.615,0.354v1.016l-0.33,0.213l-0.283-0.188v-0.674
	l-0.934,0.52l-0.402-0.166V93.59l0.969-0.531l-0.602-0.318V92.35l0.342-0.188l0.875,0.52l0.602-0.355l-0.012-0.012l-0.625-0.354
	l0.602-0.379l-0.602-0.354l-0.875,0.508l-0.318-0.143v-0.389l0.59-0.332l-0.945-0.508v-0.426l0.367-0.188l0.933,0.531v-0.686
	l0.284-0.189l0.342,0.201v1.027l0.627,0.355v-0.721l0.649,0.354v-0.697l-0.886-0.508v-0.365l0.307-0.178l0.591,0.33v-1.062
	l0.343-0.225l0.343,0.225v1.062l0.614-0.342l0.307,0.201v0.33l-0.91,0.52v0.697l0.627-0.377v0.768l0.639-0.355v-1.098l0.307-0.143
	l0.33,0.143v0.697l0.957-0.52l0.331,0.199v0.402l-0.934,0.531l0.579,0.332v0.377l-0.307,0.166l-0.898-0.531l-0.626,0.389
	l0.603,0.379l-0.614,0.354l0.638,0.332l0.898-0.496l0.283,0.199v0.367l-0.566,0.318l0.896,0.531v0.414l-0.377,0.178l-0.887-0.496
	v0.662l-0.318,0.176l-0.308-0.176V93.33l-0.649-0.365v0.697l-0.604-0.379v0.697l0.887,0.496v0.402l-0.307,0.152l-0.591-0.33v1.062
	l-0.343,0.213L38.762,95.752z"/>
<path fill="#7F7F7F" d="M47.443,81.055l0.401,0.604h0.757l0.343-0.604l-0.367-0.637h-0.744L47.443,81.055z M47.845,84.836v-1.064
	l-0.59,0.332l-0.308-0.178v-0.377l0.886-0.496v-0.697l-0.638,0.412v-0.744l-0.614,0.355v1.016l-0.33,0.213l-0.284-0.189v-0.674
	l-0.933,0.52L44.632,83.1v-0.426l0.969-0.531l-0.603-0.32v-0.389l0.343-0.189l0.874,0.52l0.603-0.354l-0.012-0.012l-0.626-0.355
	l0.603-0.377l-0.603-0.355l-0.874,0.508l-0.319-0.141v-0.391l0.591-0.33l-0.945-0.508v-0.426l0.366-0.189l0.933,0.531v-0.684
	l0.284-0.189l0.343,0.201v1.027l0.626,0.354v-0.721l0.649,0.355v-0.697l-0.886-0.508v-0.367l0.308-0.176l0.59,0.33v-1.062
	l0.344-0.225l0.342,0.225v1.062l0.615-0.344l0.307,0.201v0.332L48.542,79v0.697l0.627-0.379v0.768l0.638-0.354v-1.1l0.307-0.141
	l0.331,0.141v0.697l0.957-0.52l0.33,0.201v0.402l-0.933,0.531l0.58,0.33v0.379l-0.308,0.164l-0.897-0.531l-0.627,0.391l0.604,0.377
	l-0.615,0.355l0.639,0.33l0.897-0.496l0.284,0.201v0.365l-0.567,0.32l0.897,0.531v0.414l-0.378,0.176l-0.886-0.496v0.662
	l-0.319,0.178l-0.308-0.178v-1.004l-0.648-0.367v0.697l-0.604-0.377v0.697l0.887,0.496v0.4l-0.308,0.154l-0.591-0.33v1.062
	l-0.342,0.213L47.845,84.836z"/>
<path fill="none" stroke="#000000" stroke-width="2" d="M32.552,43.476c-7.202,0-13.031,5.833-13.031,13.03
	c0,0.164,0.024,0.307,0.031,0.469c-0.163-0.01-0.306-0.031-0.469-0.031c-3.875,0-7,3.125-7,7V64.1
	c-0.554-0.166-1.112-0.281-1.719-0.281c-3.324,0-6.031,2.68-6.031,6c0,3.324,2.708,4.594,6.031,4.594h38.656
	c5.697,0,10.312-4.613,10.312-10.312c0-5.697-4.615-10.312-10.312-10.312c-1.287,0-2.524,0.26-3.656,0.688
	C44.382,48.249,39.052,43.476,32.552,43.476L32.552,43.476z"/>
</svg>
