<svg xmlns="http://www.w3.org/2000/svg" height="100" width="100">
<path d="M50,0c-20.898,0-40.913,4.784-46.875,9.375,2.805,6.747,33.855,9.375,46.875,9.375s43.548-3.544,46.875-9.375c-3.864-5.116-23.854-9.375-46.875-9.375zm-46.844,12.5c-0.049,0.195-1.661,18.125,28.125,28.125,20.639,6.924,9.375,18.75,9.375,18.75s-22.412,21.25-3.156,28.125c12.062,4.292,10.92,10.118,9.375,12.5,11.7-14.721-21.6-17.334,15.656-34.375,19.116-8.754,21.485-13.846,15.594-21.875-7.717-10.55,17.12-14.778,18.75-31.25-7.369,5.788-26.346,9.033-46.875,9.375-23.121-0.378-41.557-1.987-46.844-9.375z"/>
</svg>
