<?xml version="1.0" encoding="utf-8"?>
<!-- Generator: Adobe Illustrator 12.0.0, SVG Export Plug-In . SVG Version: 6.00 Build 51448)  -->
<!DOCTYPE svg PUBLIC "-//W3C//DTD SVG 1.1//EN" "http://www.w3.org/Graphics/SVG/1.1/DTD/svg11.dtd" [
	<!ENTITY ns_svg "http://www.w3.org/2000/svg">
	<!ENTITY ns_xlink "http://www.w3.org/1999/xlink">
]>
<svg  version="1.1" id="Layer_1" xmlns="&ns_svg;" xmlns:xlink="&ns_xlink;" width="73.67" height="97.25"
	 viewBox="0 0 73.67 97.25" overflow="visible" enable-background="new 0 0 73.67 97.25" xml:space="preserve">
<path fill="none" stroke="#000000" stroke-width="2" d="M38.356,1c-8.992,0-16.271,7.283-16.271,16.271
	c0,0.203,0.03,0.381,0.039,0.585c-0.204-0.013-0.382-0.039-0.586-0.039c-4.838,0-8.74,3.902-8.74,8.741v0.195
	c-0.692-0.208-1.389-0.352-2.146-0.352c-4.15,0-7.531,3.346-7.531,7.492c0,4.149,3.381,5.736,7.531,5.736H58.92
	c7.114,0,12.877-5.762,12.877-12.877c0-7.114-5.763-12.877-12.877-12.877c-1.606,0-3.151,0.323-4.565,0.859
	C53.128,6.96,46.473,1,38.356,1L38.356,1z"/>
<path fill="none" stroke="#000000" stroke-width="1.5" stroke-miterlimit="10" d="M3.469,61.218
	c7.295-9.857,39.036-2.761,50.864-4.338c11.092-1.479,9.385-14.514-0.196-11.435"/>
<path fill="none" stroke="#000000" stroke-width="1.5" stroke-miterlimit="10" d="M16.48,69.498
	c8.083-6.702,28.192-3.747,32.334-0.591c8.533,6.501-1.381,17.547-9.07,8.082"/>
<path fill="none" stroke="#000000" stroke-width="1.5" stroke-miterlimit="10" d="M9.761,65.939
	c7.295-9.067,39.447-5.115,51.079-0.581c10.426,4.063,9.776-8.994,0.197-5.914"/>
<polyline fill="none" points="0,97.25 0,23.58 73.67,23.58 73.67,97.25 "/>
<path fill="#7F7F7F" d="M49.611,46.975l0.462,0.396l0.614-0.173l0.139-0.565l-0.441-0.434l-0.603,0.17L49.611,46.975z
	 M50.797,49.941l-0.241-0.86l-0.402,0.403l-0.291-0.074l-0.085-0.306l0.604-0.604l-0.158-0.563l-0.422,0.479l-0.17-0.602
	l-0.418,0.428l0.231,0.82l-0.218,0.248l-0.272-0.09l-0.153-0.544l-0.639,0.633l-0.361-0.042l-0.098-0.344l0.665-0.65l-0.563-0.121
	l-0.088-0.316l0.234-0.23l0.824,0.223l0.408-0.424l-0.012-0.008l-0.588-0.145l0.402-0.442L48.42,46.66l-0.593,0.609l-0.29-0.042
	l-0.089-0.315l0.405-0.402l-0.883-0.195l-0.096-0.345l0.253-0.236l0.875,0.218l-0.154-0.555l0.186-0.217l0.324,0.085l0.232,0.831
	l0.588,0.145l-0.165-0.583l0.607,0.138l-0.158-0.563l-0.833-0.209l-0.084-0.297l0.208-0.213l0.554,0.133l-0.242-0.86l0.227-0.26
	l0.329,0.104l0.241,0.86l0.42-0.417l0.293,0.093l0.075,0.268l-0.617,0.628l0.159,0.563l0.419-0.447l0.176,0.621l0.436-0.433
	l-0.25-0.889l0.217-0.185l0.299,0.039l0.159,0.564l0.655-0.639l0.314,0.088l0.092,0.324l-0.634,0.643l0.543,0.137l0.086,0.306
	l-0.211,0.204l-0.848-0.227l-0.418,0.457l0.574,0.17l-0.417,0.426l0.59,0.123l0.614-0.605l0.276,0.098l0.083,0.297l-0.386,0.387
	l0.847,0.226l0.094,0.335l-0.265,0.229l-0.831-0.199l0.15,0.535l-0.217,0.215l-0.289-0.072l-0.229-0.813l-0.609-0.149l0.158,0.563
	l-0.573-0.168l0.159,0.564l0.829,0.199l0.093,0.326l-0.215,0.193l-0.554-0.133l0.243,0.859l-0.229,0.25L50.797,49.941z"/>
<path fill="#7F7F7F" d="M58.125,60.47l0.293,0.198l0.342-0.141l0.043-0.334l-0.282-0.221l-0.337,0.138L58.125,60.47z M59.005,62.103
	l-0.197-0.48l-0.206,0.259l-0.172-0.023l-0.068-0.172l0.308-0.387l-0.127-0.314l-0.212,0.304l-0.137-0.335l-0.212,0.274l0.186,0.457
	l-0.11,0.157l-0.162-0.033l-0.123-0.304l-0.326,0.408l-0.212-0.003l-0.079-0.191l0.341-0.418l-0.332-0.034l-0.072-0.176l0.121-0.147
	l0.49,0.073l0.206-0.271l-0.007-0.004l-0.348-0.044l0.201-0.283l-0.337-0.049l-0.3,0.391l-0.171-0.005l-0.073-0.176l0.207-0.259
	l-0.521-0.056l-0.078-0.19l0.131-0.153l0.52,0.068l-0.126-0.31l0.093-0.137l0.191,0.026l0.188,0.465l0.35,0.044l-0.134-0.326
	l0.36,0.042l-0.13-0.315l-0.494-0.066l-0.067-0.164l0.105-0.137l0.33,0.039l-0.198-0.479l0.115-0.165l0.194,0.038l0.197,0.48
	l0.213-0.267l0.176,0.032l0.061,0.15l-0.314,0.401l0.129,0.315l0.214-0.285l0.141,0.345l0.223-0.276l-0.202-0.496l0.112-0.121
	l0.175,0.002l0.129,0.316l0.337-0.411l0.186,0.028l0.074,0.182l-0.324,0.412l0.323,0.043l0.069,0.169l-0.107,0.133l-0.504-0.074
	l-0.21,0.29l0.341,0.062l-0.212,0.272l0.349,0.032l0.314-0.391l0.166,0.039l0.067,0.165l-0.199,0.249l0.505,0.074l0.076,0.187
	l-0.137,0.149l-0.493-0.061l0.122,0.3l-0.112,0.138l-0.17-0.023l-0.186-0.453l-0.361-0.046l0.13,0.315l-0.342-0.06l0.129,0.314
	l0.49,0.061l0.073,0.182l-0.109,0.126l-0.327-0.041l0.195,0.479l-0.114,0.159L59.005,62.103z"/>
<path fill="#7F7F7F" d="M37.12,73.836l0.337,0.507h0.637l0.287-0.507l-0.307-0.537h-0.627L37.12,73.836z M37.457,77.014v-0.895
	l-0.497,0.278l-0.258-0.147v-0.319l0.745-0.417v-0.585l-0.536,0.346V74.65l-0.517,0.298v0.854l-0.278,0.179l-0.237-0.158v-0.567
	l-0.786,0.438l-0.337-0.14v-0.356l0.815-0.446l-0.507-0.27v-0.326l0.288-0.16l0.735,0.438l0.507-0.297l-0.01-0.012l-0.527-0.297
	l0.507-0.317l-0.507-0.299l-0.734,0.427l-0.268-0.118v-0.329l0.497-0.276l-0.795-0.429v-0.355l0.308-0.16l0.784,0.447v-0.575
	l0.238-0.16l0.289,0.17v0.863l0.526,0.298v-0.605l0.545,0.298v-0.585l-0.745-0.429v-0.309l0.258-0.147l0.497,0.278v-0.894
	l0.289-0.188l0.287,0.188v0.894l0.517-0.288l0.258,0.169v0.276l-0.765,0.439v0.585l0.526-0.318v0.646l0.536-0.298v-0.923l0.259-0.12
	l0.277,0.12v0.585l0.804-0.437l0.279,0.17v0.336l-0.785,0.446l0.487,0.278v0.318l-0.258,0.139l-0.756-0.447l-0.524,0.329
	l0.505,0.317l-0.517,0.299l0.536,0.276l0.756-0.417l0.237,0.17v0.307l-0.477,0.269l0.755,0.447v0.347l-0.318,0.148l-0.744-0.416
	v0.557l-0.268,0.147l-0.259-0.147v-0.846L38.55,74.67v0.585l-0.507-0.316v0.585l0.745,0.418v0.337l-0.258,0.129l-0.497-0.276v0.891
	l-0.287,0.18L37.457,77.014z"/>
</svg>
