<?xml version="1.0" encoding="utf-8"?>
<!-- Generator: Adobe Illustrator 12.0.0, SVG Export Plug-In . SVG Version: 6.00 Build 51448)  -->
<!DOCTYPE svg PUBLIC "-//W3C//DTD SVG 1.1//EN" "http://www.w3.org/Graphics/SVG/1.1/DTD/svg11.dtd" [
	<!ENTITY ns_svg "http://www.w3.org/2000/svg">
	<!ENTITY ns_xlink "http://www.w3.org/1999/xlink">
]>
<svg  version="1.1" id="Layer_1" xmlns="&ns_svg;" xmlns:xlink="&ns_xlink;" width="93" height="85.937" viewBox="0 0 93 85.937"
	 overflow="visible" enable-background="new 0 0 93 85.937" xml:space="preserve">
<path d="M47.716,0C35.538,0,25.682,9.862,25.682,22.035c0,0.275,0.041,0.517,0.053,0.792c-0.276-0.018-0.518-0.053-0.793-0.053
	c-6.552,0-11.836,5.284-11.836,11.836v0.264c-0.937-0.281-1.88-0.476-2.906-0.476C4.578,34.399,0,38.93,0,44.545
	c0,5.619,4.578,7.768,10.198,7.768h65.364C85.196,52.313,93,44.51,93,34.875c0-9.633-7.804-17.438-17.438-17.438
	c-2.177,0-4.269,0.438-6.183,1.163C67.719,8.072,58.706,0,47.716,0L47.716,0z"/>
<polygon points="21.823,58.072 13.421,81.111 15.218,81.797 23.884,58.072 "/>
<path d="M12.892,83.405c-0.496,0.024-0.939,0.337-1.119,0.83c-0.241,0.661,0.1,1.384,0.758,1.625
	c0.659,0.241,1.384-0.099,1.624-0.76c0.241-0.657-0.1-1.382-0.758-1.623C13.232,83.417,13.056,83.396,12.892,83.405z"/>
<polygon points="31.406,58.072 26.42,71.494 28.217,72.181 33.466,58.072 "/>
<path d="M26.067,73.154c-0.495,0.026-0.938,0.337-1.118,0.83c-0.242,0.66,0.099,1.384,0.757,1.625c0.659,0.239,1.384-0.1,1.624-0.76
	c0.241-0.657-0.101-1.382-0.758-1.621C26.407,73.167,26.231,73.147,26.067,73.154z"/>
<polygon points="40.987,58.072 32.585,81.111 34.382,81.797 43.048,58.072 "/>
<path d="M32.056,83.405c-0.496,0.024-0.939,0.337-1.119,0.83c-0.241,0.661,0.1,1.384,0.758,1.625
	c0.659,0.241,1.384-0.099,1.624-0.76c0.241-0.657-0.1-1.382-0.758-1.623C32.396,83.417,32.22,83.396,32.056,83.405z"/>
<polygon points="50.568,58.072 45.583,71.494 47.38,72.181 52.63,58.072 "/>
<path d="M45.336,73.047c-0.496,0.025-0.939,0.337-1.119,0.831c-0.241,0.66,0.1,1.384,0.758,1.625c0.659,0.241,1.384-0.1,1.624-0.76
	c0.241-0.657-0.1-1.382-0.757-1.623C45.676,73.061,45.5,73.04,45.336,73.047z"/>
<polygon points="60.291,58.072 51.89,81.111 53.687,81.797 62.353,58.072 "/>
<path d="M51.359,83.405c-0.495,0.024-0.939,0.337-1.117,0.83c-0.241,0.661,0.099,1.384,0.756,1.625
	c0.66,0.241,1.384-0.099,1.625-0.76c0.241-0.657-0.1-1.382-0.758-1.623C51.7,83.417,51.523,83.396,51.359,83.405z"/>
<polygon points="69.872,58.072 64.889,71.494 66.686,72.181 71.933,58.072 "/>
<path d="M64.641,73.047c-0.495,0.025-0.939,0.337-1.119,0.831c-0.241,0.66,0.099,1.384,0.758,1.625s1.384-0.1,1.623-0.76
	c0.241-0.657-0.099-1.382-0.756-1.623C64.981,73.061,64.805,73.04,64.641,73.047z"/>
</svg>
