<?xml version="1.0" encoding="utf-8"?>
<!-- Generator: Adobe Illustrator 17.1.0, SVG Export Plug-In . SVG Version: 6.00 Build 0)  -->
<!DOCTYPE svg PUBLIC "-//W3C//DTD SVG 1.1//EN" "http://www.w3.org/Graphics/SVG/1.1/DTD/svg11.dtd">
<svg version="1.1" id="Layer_1" xmlns="http://www.w3.org/2000/svg" xmlns:xlink="http://www.w3.org/1999/xlink" x="0px" y="0px"
	 viewBox="0 0 100 100" enable-background="new 0 0 100 100" xml:space="preserve">
<g>
	<g>
		<g>
			<path fill-rule="evenodd" clip-rule="evenodd" fill="none" stroke="#000000" stroke-linecap="round" d="M32.759,40.022
				c6.19-6.181,12.367-12.375,18.556-18.557"/>
			<path fill-rule="evenodd" clip-rule="evenodd" fill="none" stroke="#000000" stroke-linecap="round" d="M33.695,35.115
				c3.895-3.896,8.843-8.85,12.738-12.745"/>
			<path fill-rule="evenodd" clip-rule="evenodd" fill="none" stroke="#000000" stroke-linecap="round" d="M20.294,52.485
				c2.425-2.424,4.849-4.848,7.274-7.273c0.321-0.321,0.642-0.643,0.964-0.964"/>
			<path fill-rule="evenodd" clip-rule="evenodd" fill="none" stroke="#000000" stroke-linecap="round" d="M6.819,65.969
				c2.92-2.922,6.73-6.739,9.652-9.66"/>
			<path fill-rule="evenodd" clip-rule="evenodd" fill="none" stroke="#000000" stroke-linecap="round" d="M82.92,69.421
				c4.415-4.414,8.829-8.829,13.244-13.243"/>
			<path fill-rule="evenodd" clip-rule="evenodd" fill="none" stroke="#000000" stroke-linecap="round" d="M75.149,69.233
				c6.743-6.747,13.494-13.484,20.237-20.231"/>
			<path fill-rule="evenodd" clip-rule="evenodd" fill="none" stroke="#000000" stroke-linecap="round" d="M63.09,69.358
				c9.093-9.101,18.2-18.186,27.293-27.288"/>
			<path fill-rule="evenodd" clip-rule="evenodd" fill="none" stroke="#000000" stroke-linecap="round" d="M55.071,69.423
				c9.943-9.95,19.887-19.9,29.84-29.84"/>
			<path fill-rule="evenodd" clip-rule="evenodd" fill="none" stroke="#000000" stroke-linecap="round" d="M51.124,69.393
				c10.101-10.102,20.196-20.21,30.304-30.304"/>
			<path fill-rule="evenodd" clip-rule="evenodd" fill="none" stroke="#000000" stroke-linecap="round" d="M47.146,69.393
				c9.942-9.95,19.884-19.899,29.836-29.837"/>
			<path fill-rule="evenodd" clip-rule="evenodd" fill="none" stroke="#000000" stroke-linecap="round" d="M39.315,69.266
				C50.293,58.28,61.271,47.295,72.261,36.32"/>
			<path fill-rule="evenodd" clip-rule="evenodd" fill="none" stroke="#000000" stroke-linecap="round" d="M31.326,69.3
				C44.2,56.416,57.074,43.534,69.961,30.664"/>
			<path fill-rule="evenodd" clip-rule="evenodd" fill="none" stroke="#000000" stroke-linecap="round" d="M23.402,69.269
				C37.378,55.293,51.354,41.317,65.33,27.341c0.291-0.29,0.582-0.581,0.873-0.872"/>
			<path fill-rule="evenodd" clip-rule="evenodd" fill="none" stroke="#000000" stroke-linecap="round" d="M11.715,69.021
				c14.557-14.556,29.113-29.113,43.67-43.669c1.037-1.035,2.073-2.072,3.109-3.108c0.114-0.114,0.229-0.229,0.343-0.342"/>
			<path fill-rule="evenodd" clip-rule="evenodd" fill="none" stroke="#000000" stroke-linecap="round" d="M8.891,67.868
				c0.071-0.071,0.143-0.144,0.214-0.215c14.758-14.768,29.516-29.538,44.29-44.29c0.612-0.612,1.224-1.224,1.836-1.836"/>
			<path fill-rule="evenodd" clip-rule="evenodd" fill="none" stroke="#000000" stroke-linecap="round" d="M15.289,69.425
				c14.024-14.032,28.057-28.056,42.085-42.083c1.276-1.274,2.551-2.55,3.825-3.825"/>
			<path fill-rule="evenodd" clip-rule="evenodd" fill="none" stroke="#000000" stroke-linecap="round" d="M19.019,69.673
				c14.107-14.115,28.222-28.221,42.333-42.332c0.82-0.818,1.639-1.638,2.458-2.457"/>
			<path fill-rule="evenodd" clip-rule="evenodd" fill="none" stroke="#000000" stroke-linecap="round" d="M27.413,69.237
				c13.583-13.584,27.167-27.166,40.749-40.749"/>
			<path fill-rule="evenodd" clip-rule="evenodd" fill="none" stroke="#000000" stroke-linecap="round" d="M35.429,69.175
				c11.922-11.931,23.845-23.86,35.778-35.779"/>
			<path fill-rule="evenodd" clip-rule="evenodd" fill="none" stroke="#000000" stroke-linecap="round" d="M43.165,69.395
				c9.892-9.899,19.785-19.798,29.687-29.687"/>
			<path fill-rule="evenodd" clip-rule="evenodd" fill="none" stroke="#000000" stroke-linecap="round" d="M59.113,69.36
				c9.695-9.697,19.386-19.4,29.09-29.089"/>
			<path fill-rule="evenodd" clip-rule="evenodd" fill="none" stroke="#000000" stroke-linecap="round" d="M67.068,69.358
				c8.451-8.458,16.915-16.902,25.365-25.36"/>
			<path fill-rule="evenodd" clip-rule="evenodd" fill="none" stroke="#000000" stroke-linecap="round" d="M71.047,69.358
				c7.716-7.722,15.443-15.432,23.158-23.154"/>
			<path fill-rule="evenodd" clip-rule="evenodd" fill="none" stroke="#000000" stroke-linecap="round" d="M79.064,69.296
				c5.706-5.711,11.418-11.417,17.127-17.125"/>
		</g>
	</g>
	<path fill-rule="evenodd" clip-rule="evenodd" fill="none" d="M20.141,52.64c2.92-2.922,5.225-5.217,8.146-8.138"/>
</g>
<g>
	<path fill="none" stroke="#000000" stroke-width="2" d="M52.629,21.129c10.07,0,18.288,7.363,19.812,17.003l0.468,2.899
		l2.745-1.028c1.732-0.659,3.533-1.061,5.428-1.061c8.567,0,15.477,6.875,15.477,15.442c0,8.565-6.909,15.476-15.477,15.476H64.734
		H46.921H14.257c-2.573,0-4.749-0.531-6.053-1.404c-1.303-0.877-1.996-1.92-1.996-4.151c0-4.455,3.587-8.017,8.049-8.017
		c0.737,0,1.483,0.128,2.31,0.373l3.057,0.936v-3.212c0-0.289,0.005-0.456,0-0.498c0.133-5.293,4.405-9.485,9.733-9.485
		c-0.018,0-0.138,0.004-0.138,0.004l3.445,0.246c0,0-0.149-2.684-0.166-3.043c-0.045-0.953-0.021-0.359-0.021-0.327
		C32.477,30.121,41.463,21.129,52.629,21.129"/>
</g>
</svg>
