<?xml version="1.0" encoding="utf-8"?>
<!-- Generator: Adobe Illustrator 12.0.0, SVG Export Plug-In . SVG Version: 6.00 Build 51448)  -->
<!DOCTYPE svg PUBLIC "-//W3C//DTD SVG 1.1//EN" "http://www.w3.org/Graphics/SVG/1.1/DTD/svg11.dtd" [
	<!ENTITY ns_svg "http://www.w3.org/2000/svg">
	<!ENTITY ns_xlink "http://www.w3.org/1999/xlink">
]>
<svg  version="1.1" id="Layer_1" xmlns="&ns_svg;" xmlns:xlink="&ns_xlink;" width="100" height="100" viewBox="0 0 100 100"
	 overflow="visible" enable-background="new 0 0 100 100" xml:space="preserve">
<g>
	<defs>
		<rect id="XMLID_10_" width="100" height="100"/>
	</defs>
	<clipPath id="XMLID_12_">
		<use xlink:href="#XMLID_10_" />
	</clipPath>
	<path clip-path="url(#XMLID_12_)" d="M67.348,66.521c0.126,16.996-13.55,30.876-30.546,31.002
		C19.806,97.648,5.925,83.973,5.799,66.977C5.673,49.979,19.35,36.1,36.346,35.975C53.342,35.849,67.222,49.524,67.348,66.521"/>
	
		<circle clip-path="url(#XMLID_12_)" fill="none" stroke="#000000" stroke-width="0.5" stroke-miterlimit="10" cx="36.573" cy="66.749" r="30.775"/>
	<path clip-path="url(#XMLID_12_)" fill="#FFFFFF" d="M80.435,52.685c0.126,16.996-13.55,30.876-30.546,31.002
		s-30.876-13.55-31.002-30.546c-0.126-16.997,13.55-30.877,30.546-31.002C66.429,22.013,80.309,35.688,80.435,52.685"/>
	<path clip-path="url(#XMLID_12_)" d="M35.08,47.972c-7.315,0-13.193,5.811-13.621,13.018c-3.574,0.344-6.345,3.025-6.983,6.508
		c-0.21-0.021-0.381-0.086-0.603-0.086c-3.886,0-7.069,3.188-7.069,7.069c0,1.942,0.925,3.57,2.284,4.482
		c1.36,0.913,3.032,1.207,4.785,1.207h18.061h9.828h9.051c6.152,0,11.164-5.011,11.164-11.164c0-6.152-5.011-11.163-11.164-11.163
		c-0.934,0-1.78,0.255-2.629,0.474C46.628,52.424,41.451,47.972,35.08,47.972"/>
	<path clip-path="url(#XMLID_12_)" fill="#FFFFFF" d="M35.09,50.594c5.57,0,10.115,4.073,10.957,9.404l0.258,1.604l1.519-0.568
		c0.957-0.363,1.953-0.587,3.003-0.587c4.737,0,8.558,3.805,8.558,8.541s-3.822,8.559-8.558,8.559h-9.042h-9.853H13.867
		c-1.422,0-2.626-0.293-3.347-0.776s-1.104-1.062-1.104-2.295c0-2.464,1.984-4.435,4.451-4.435c0.409,0,0.821,0.071,1.277,0.207
		l1.692,0.518v-1.776c0-0.16,0.003-0.253,0-0.277c0.073-2.927,2.436-5.245,5.383-5.245c-0.043,0,0.065,0.015,0.362,0.034
		l1.467,0.104l-0.069-1.467c-0.016-0.358-0.035-0.479-0.035-0.396C23.943,55.568,28.915,50.594,35.09,50.594"/>
	<polygon clip-path="url(#XMLID_12_)" points="87.348,69.544 84.357,64.218 78.368,65.416 82.51,60.927 79.52,55.601 85.069,58.151 
		89.211,53.663 88.499,59.729 94.049,62.279 88.06,63.478 	"/>
	<polygon clip-path="url(#XMLID_12_)" points="45.032,26.129 38.615,23.176 33.824,28.367 34.649,21.351 28.232,18.398 
		35.159,17.015 35.984,10 39.44,16.161 46.367,14.778 41.576,19.968 	"/>
	<polygon clip-path="url(#XMLID_12_)" points="77.456,30.729 78.768,34.766 83.012,34.766 79.577,37.26 80.89,41.297 77.456,38.802 
		74.021,41.297 75.334,37.26 71.899,34.766 76.144,34.766 	"/>
</g>
</svg>
