<?xml version="1.0" encoding="utf-8"?>
<!-- Generator: Adobe Illustrator 12.0.0, SVG Export Plug-In . SVG Version: 6.00 Build 51448)  -->
<!DOCTYPE svg PUBLIC "-//W3C//DTD SVG 1.1//EN" "http://www.w3.org/Graphics/SVG/1.1/DTD/svg11.dtd" [
	<!ENTITY ns_svg "http://www.w3.org/2000/svg">
	<!ENTITY ns_xlink "http://www.w3.org/1999/xlink">
]>
<svg  version="1.1" id="Layer_1" xmlns="&ns_svg;" xmlns:xlink="&ns_xlink;" width="83" height="73.959" viewBox="0 0 83 73.959"
	 overflow="visible" enable-background="new 0 0 83 73.959" xml:space="preserve">
<g>
	<polygon points="27.946,53.553 20.509,73.688 21.259,73.959 28.696,53.553 	"/>
	<polygon points="36.238,53.553 28.801,73.688 29.551,73.959 36.988,53.553 	"/>
	<polygon points="44.488,53.511 37.051,73.647 37.801,73.918 45.238,53.511 	"/>
	<polygon points="52.697,53.553 45.259,73.688 46.009,73.959 53.447,53.553 	"/>
	<polygon points="61.03,53.553 53.593,73.688 54.343,73.959 61.78,53.553 	"/>
	<polygon points="20.238,53.511 12.801,73.647 13.551,73.918 20.988,53.511 	"/>
</g>
<path fill="none" stroke="#000000" stroke-width="3" d="M42.531,1.5c-10.477,0-18.938,8.499-18.938,18.969
	c0,0.237,0.052,0.451,0.063,0.688c-0.237-0.016-0.451-0.063-0.688-0.063c-5.636,0-10.219,4.583-10.219,10.219
	c0,0.07,0.031,0.118,0.031,0.188c-0.806-0.242-1.648-0.406-2.531-0.406c-4.834,0-8.75,3.921-8.75,8.75
	c0,4.835,3.916,6.656,8.75,6.656H66.5c8.287,0,15-6.713,15-15c0-8.288-6.713-15-15-15c-1.871,0-3.668,0.408-5.313,1.032
	C59.757,8.475,51.986,1.5,42.531,1.5z"/>
</svg>
