<svg xmlns="http://www.w3.org/2000/svg" width="83" height="73.959" overflow="visible">
<path d="M27.946 53.553l-7.437 20.135.75.271 7.437-20.406zM36.238 53.553l-7.437 20.135.75.271 7.437-20.406zM44.488 53.511l-7.437 20.136.75.271 7.437-20.407zM52.697 53.553l-7.438 20.135.75.271 7.438-20.406zM61.03 53.553l-7.437 20.135.75.271 7.437-20.406zM20.238 53.511l-7.437 20.136.75.271 7.437-20.407z"/><path fill="none" stroke="#000" stroke-width="3" d="M42.531 1.5c-10.477 0-18.938 8.499-18.938 18.969 0 .237.052.451.063.688-.237-.016-.451-.063-.688-.063-5.636 0-10.219 4.583-10.219 10.219 0 .07.031.118.031.188-.806-.242-1.648-.406-2.531-.406-4.834 0-8.75 3.921-8.75 8.75 0 4.835 3.916 6.656 8.75 6.656H66.5c8.287 0 15-6.713 15-15 0-8.288-6.713-15-15-15-1.871 0-3.668.408-5.313 1.032C59.757 8.475 51.986 1.5 42.531 1.5z"/>
</svg>