<?xml version="1.0" encoding="utf-8"?>
<!-- Generator: Adobe Illustrator 17.1.0, SVG Export Plug-In . SVG Version: 6.00 Build 0)  -->
<!DOCTYPE svg PUBLIC "-//W3C//DTD SVG 1.1//EN" "http://www.w3.org/Graphics/SVG/1.1/DTD/svg11.dtd">
<svg version="1.1" id="Layer_1" xmlns="http://www.w3.org/2000/svg" xmlns:xlink="http://www.w3.org/1999/xlink" x="0px" y="0px"
	 viewBox="0 0 612 792" enable-background="new 0 0 612 792" xml:space="preserve">
<g>
	<path d="M66.062,336.487V247.25h12.578l28.598,45.148c6.62,10.459,11.784,19.86,16.021,28.996l0.265-0.132
		c-1.06-11.916-1.324-22.773-1.324-36.675V247.25h10.857v89.238h-11.651l-28.333-45.281c-6.223-9.93-12.181-20.125-16.683-29.791
		l-0.397,0.133c0.662,11.254,0.927,21.979,0.927,36.807v38.131H66.062z"/>
	<path d="M210.774,303.917c0,23.7-16.418,34.027-31.909,34.027c-17.344,0-30.717-12.71-30.717-32.968
		c0-21.449,14.035-34.027,31.776-34.027C198.329,270.949,210.774,284.321,210.774,303.917z M159.933,304.579
		c0,14.035,8.076,24.626,19.463,24.626c11.122,0,19.463-10.459,19.463-24.891c0-10.857-5.429-24.626-19.198-24.626
		S159.933,292.398,159.933,304.579z"/>
	<path d="M239.505,254.002v18.403h16.683v8.871h-16.683v34.557c0,7.944,2.251,12.445,8.738,12.445c3.045,0,5.296-0.397,6.752-0.794
		l0.53,8.739c-2.251,0.927-5.826,1.589-10.327,1.589c-5.429,0-9.798-1.721-12.578-4.899c-3.31-3.442-4.501-9.136-4.501-16.683
		v-34.954h-9.93v-8.871h9.93v-15.358L239.505,254.002z"/>
	<path d="M80.494,467.298l-9.268,28.069H59.31l30.32-89.238h13.902l30.452,89.238h-12.313l-9.533-28.069H80.494z M109.754,458.295
		l-8.738-25.686c-1.986-5.825-3.31-11.122-4.634-16.285h-0.265c-1.324,5.296-2.78,10.725-4.501,16.152l-8.738,25.818H109.754z"/>
	<path d="M148.416,431.285l12.578,36.013c2.118,5.826,3.839,11.122,5.164,16.418h0.397c1.457-5.296,3.31-10.592,5.429-16.418
		l12.445-36.013h12.181l-25.156,64.082h-11.122l-24.362-64.082H148.416z"/>
	<path d="M242.551,495.367l-0.927-8.076h-0.397c-3.575,5.031-10.46,9.532-19.595,9.532c-12.976,0-19.596-9.136-19.596-18.403
		c0-15.491,13.77-23.965,38.529-23.832v-1.324c0-5.296-1.457-14.829-14.564-14.829c-5.958,0-12.181,1.854-16.683,4.767l-2.648-7.679
		c5.296-3.442,12.975-5.693,21.052-5.693c19.595,0,24.362,13.372,24.362,26.215v23.965c0,5.561,0.265,10.989,1.059,15.358H242.551z
		 M240.83,462.664c-12.71-0.265-27.142,1.986-27.142,14.432c0,7.547,5.031,11.122,10.989,11.122c8.341,0,13.637-5.296,15.491-10.725
		c0.397-1.191,0.662-2.516,0.662-3.707V462.664z"/>
	<path d="M283.859,413.279c0.132,3.972-2.781,7.149-7.415,7.149c-4.104,0-7.017-3.178-7.017-7.149c0-4.104,3.045-7.282,7.282-7.282
		C281.079,405.997,283.859,409.175,283.859,413.279z M270.884,495.367v-64.082h11.651v64.082H270.884z"/>
	<path d="M301.864,401.363h11.651v94.004h-11.651V401.363z"/>
	<path d="M368.593,495.367l-0.927-8.076h-0.397c-3.574,5.031-10.459,9.532-19.595,9.532c-12.976,0-19.596-9.136-19.596-18.403
		c0-15.491,13.77-23.965,38.528-23.832v-1.324c0-5.296-1.456-14.829-14.563-14.829c-5.958,0-12.181,1.854-16.683,4.767l-2.648-7.679
		c5.297-3.442,12.976-5.693,21.052-5.693c19.596,0,24.362,13.372,24.362,26.215v23.965c0,5.561,0.265,10.989,1.059,15.358H368.593z
		 M366.872,462.664c-12.711-0.265-27.143,1.986-27.143,14.432c0,7.547,5.031,11.122,10.989,11.122
		c8.342,0,13.638-5.296,15.491-10.725c0.396-1.191,0.662-2.516,0.662-3.707V462.664z"/>
	<path d="M396.396,495.367c0.265-4.369,0.529-10.856,0.529-16.55v-77.454h11.52v40.249h0.265
		c4.104-7.149,11.519-11.783,21.846-11.783c15.888,0,27.143,13.24,27.01,32.703c0,22.905-14.432,34.291-28.73,34.291
		c-9.269,0-16.683-3.574-21.449-12.048h-0.397l-0.529,10.592H396.396z M408.445,469.682c0,1.456,0.265,2.913,0.529,4.236
		c2.251,8.077,9.003,13.638,17.477,13.638c12.181,0,19.463-9.93,19.463-24.627c0-12.843-6.62-23.832-19.065-23.832
		c-7.944,0-15.358,5.429-17.742,14.3c-0.265,1.324-0.661,2.912-0.661,4.767V469.682z"/>
	<path d="M472.26,401.363h11.651v94.004H472.26V401.363z"/>
	<path d="M509.993,465.444c0.265,15.756,10.327,22.243,21.978,22.243c8.342,0,13.373-1.456,17.742-3.31l1.986,8.341
		c-4.104,1.854-11.122,3.973-21.316,3.973c-19.729,0-31.512-12.976-31.512-32.306c0-19.331,11.387-34.557,30.055-34.557
		c20.92,0,26.48,18.403,26.48,30.188c0,2.383-0.265,4.236-0.397,5.428H509.993z M544.152,457.104
		c0.132-7.414-3.046-18.934-16.153-18.934c-11.783,0-16.947,10.857-17.874,18.934H544.152z"/>
</g>
</svg>
