<?xml version="1.0" encoding="utf-8"?>
<!-- Generator: Adobe Illustrator 17.1.0, SVG Export Plug-In . SVG Version: 6.00 Build 0)  -->
<!DOCTYPE svg PUBLIC "-//W3C//DTD SVG 1.1//EN" "http://www.w3.org/Graphics/SVG/1.1/DTD/svg11.dtd">
<svg version="1.1" id="Layer_1" xmlns="http://www.w3.org/2000/svg" xmlns:xlink="http://www.w3.org/1999/xlink" x="0px" y="0px"
	 viewBox="0 0 98.04 96.081" enable-background="new 0 0 98.04 96.081" xml:space="preserve">
<g>
	<path fill="none" d="M89.742,10.608c-0.635,0-1.248,0.12-1.827,0.339l-0.913,0.365l-0.156-0.965
		c-0.509-3.225-3.259-5.715-6.628-5.715c-3.737,0-6.759,3.026-6.758,6.758c0-0.051,0.043,0.017,0.053,0.234l0.025,0.888
		l-0.887-0.053c-0.179-0.011-0.261-0.026-0.234-0.026c-1.785,0-3.221,1.412-3.262,3.184c0,0.002-0.002,0.022,0,0.026
		c-0.004,0.01,0,0.007,0,0.052c0.002,0.028,0.025,0.029,0.025,0.079v1.069l-1.043-0.313c-0.277-0.083-0.51-0.13-0.758-0.13
		c-1.493,0-2.688,1.198-2.688,2.688c0,0.747,0.243,1.091,0.679,1.383c0.437,0.294,1.148,0.47,2.009,0.47h10.934h5.949h5.48
		c2.865,0,5.166-2.301,5.166-5.166C94.908,12.909,92.607,10.608,89.742,10.608z"/>
	<path d="M27.679,79.525h5h7.083c4.814,0,8.736-3.921,8.736-8.735c0-4.814-3.921-8.735-8.736-8.735c-0.731,0-1.393,0.199-2.057,0.37
		c-1.218-4.613-5.269-8.095-10.255-8.095c-5.724,0-10.323,4.546-10.658,10.186c-0.383,0.037-0.752,0.115-1.109,0.218
		c-0.57-2.025-0.888-4.156-0.904-6.361c-0.028-3.758,0.807-7.32,2.319-10.501C9.559,51.987,4.47,60.009,4.538,69.199
		c0.015,2.063,0.291,4.063,0.793,5.97c0.019,0.933,0.309,1.769,0.785,2.435c3.481,9.124,12.343,15.574,22.682,15.498
		c9.542-0.071,17.745-5.682,21.583-13.758c-3.372,1.84-7.232,2.901-11.342,2.931C34.938,82.306,31.072,81.307,27.679,79.525z
		 M17.387,66.452c-0.034,0,0.051,0.011,0.283,0.026l1.148,0.081l-0.055-1.147c-0.012-0.281-0.027-0.375-0.027-0.311
		c0-4.828,3.889-8.721,8.722-8.721c4.359,0,7.916,3.187,8.574,7.358l0.202,1.255l1.189-0.445c0.749-0.283,1.528-0.458,2.35-0.458
		c3.707,0,6.697,2.977,6.697,6.683s-2.991,6.697-6.697,6.697h-7.075h-7.709H10.851c-1.113,0-2.055-0.229-2.619-0.607
		c-0.564-0.379-0.864-0.831-0.864-1.795c0-1.93,1.553-3.472,3.483-3.472c0.32,0,0.642,0.057,1,0.163l1.323,0.404v-1.39
		c0-0.126,0.002-0.197,0-0.217C13.232,68.266,15.081,66.452,17.387,66.452z"/>
	<path fill="#FFFFFF" d="M13.174,70.556c0.002,0.02,0,0.091,0,0.217v1.39l-1.323-0.404c-0.358-0.106-0.68-0.163-1-0.163
		c-1.93,0-3.483,1.542-3.483,3.472c0,0.964,0.3,1.416,0.864,1.795c0.564,0.378,1.506,0.607,2.619,0.607h14.138h7.709h7.075
		c3.706,0,6.697-2.991,6.697-6.697s-2.99-6.683-6.697-6.683c-0.822,0-1.601,0.175-2.35,0.458l-1.189,0.445l-0.202-1.255
		c-0.658-4.171-4.215-7.358-8.574-7.358c-4.833,0-8.722,3.893-8.722,8.721c0-0.064,0.015,0.03,0.027,0.311l0.055,1.147l-1.148-0.081
		c-0.232-0.015-0.317-0.026-0.283-0.026C15.081,66.452,13.232,68.266,13.174,70.556z"/>
	<rect x="77.614" y="45.636" width="12.786" height="3.366"/>
	<polygon points="75.291,58.135 73.648,61.084 84.841,67.294 86.459,64.346 	"/>
	<path d="M89.742,9.015c-0.566,0-1.078,0.154-1.592,0.287c-0.941-3.565-4.076-6.261-7.932-6.261c-4.429,0-7.987,3.518-8.246,7.881
		c-2.163,0.208-3.841,1.831-4.228,3.939c-0.127-0.013-0.23-0.052-0.365-0.052c-2.352,0-4.279,1.929-4.279,4.279
		c0,1.176,0.561,2.161,1.383,2.714c0.293,0.197,0.617,0.332,0.951,0.443l-2.067,3.483l2.948,1.644l2.644-4.84h9.354h5.949h5.48
		c3.724,0,6.758-3.033,6.758-6.758C96.5,12.048,93.467,9.015,89.742,9.015z M89.742,20.941h-5.48h-5.949H67.379
		c-0.861,0-1.572-0.176-2.009-0.47c-0.436-0.292-0.679-0.636-0.679-1.383c0-1.49,1.195-2.688,2.688-2.688
		c0.248,0,0.481,0.047,0.758,0.13l1.043,0.313v-1.069c0-0.05-0.023-0.051-0.025-0.079c0-0.045-0.004-0.042,0-0.052
		c-0.002-0.004,0-0.024,0-0.026c0.041-1.772,1.477-3.184,3.262-3.184c-0.027,0,0.055,0.015,0.234,0.026l0.887,0.053l-0.025-0.888
		c-0.01-0.217-0.053-0.285-0.053-0.234c-0.001-3.732,3.021-6.758,6.758-6.758c3.369,0,6.119,2.49,6.628,5.715l0.156,0.965
		l0.913-0.365c0.579-0.219,1.192-0.339,1.827-0.339c2.865,0,5.166,2.301,5.166,5.167C94.908,18.64,92.607,20.941,89.742,20.941z"/>
	<path d="M52.877,27.241c-6.123,0-11.51,2.766-15.415,6.913c-0.198,0.21-0.395,0.42-0.585,0.637c-0.876,1,7.147,7.547,14.374,14.75
		c4.461,4.447,8.605,9.293,11.441,12.118c1.798,1.79,3.074,2.775,3.56,2.31c4.264-4.074,7.344-9.528,7.344-15.906
		C73.596,36.564,64.328,27.241,52.877,27.241z"/>
	<rect x="51.182" y="10.541" width="3.34" height="12.813"/>
	<polygon points="40.3,26.849 43.145,25.075 36.359,14.194 33.515,15.994 	"/>
	<polygon points="85.937,30.581 84.242,27.658 73.178,34.052 74.874,36.974 	"/>
</g>
<g id="Layer_3">
</g>
<line fill="none" stroke="#000000" stroke-width="2" x1="1.542" y1="0.582" x2="96.208" y2="95.249"/>
</svg>
