<svg xmlns="http://www.w3.org/2000/svg" height="100" width="100">
<path d="M51.312,6.0312c-13.094,0-23.718,10.6-23.718,23.688,0,0.296,0.08,0.579,0.094,0.875-0.296-0.02-0.58-0.094-0.876-0.094-7.044,0-12.75,5.705-12.75,12.75,0,0.087,0.032,0.194,0.032,0.281-1.008-0.302-2.054-0.531-3.156-0.531-6.0435,0-10.938,4.9-10.938,10.938,0,6.042,4.8945,8.343,10.938,8.343h34.374,18.719,17.219c10.358,0,18.75-8.391,18.75-18.75s-8.391-18.75-18.75-18.75c-2.34,0-4.568,0.47-6.625,1.25-1.788-11.321-11.495-20-23.313-20zm-27.843,62.438l-9.031,24.781,1.937,0.719,9.313-25.5h-2.219zm10.343,0l-9.031,24.781,1.938,0.719,9.281-25.5h-2.188zm10.313,0l-9.031,24.781,1.937,0.719,9.281-25.5h-2.187zm10.344,0l-9.031,24.781,1.937,0.719,9.281-25.5h-2.187zm10.312,0l-9.031,24.781,1.938,0.719,9.281-25.5h-2.188zm10.313,0l-9,24.781,1.937,0.719,9.281-25.5h-2.218z"/>
</svg>
