<?xml version="1.0" encoding="utf-8"?>
<!-- Generator: Adobe Illustrator 12.0.0, SVG Export Plug-In . SVG Version: 6.00 Build 51448)  -->
<!DOCTYPE svg PUBLIC "-//W3C//DTD SVG 1.1//EN" "http://www.w3.org/Graphics/SVG/1.1/DTD/svg11.dtd" [
	<!ENTITY ns_svg "http://www.w3.org/2000/svg">
	<!ENTITY ns_xlink "http://www.w3.org/1999/xlink">
]>
<svg  version="1.1" id="Layer_1" xmlns="&ns_svg;" xmlns:xlink="&ns_xlink;" width="95.75" height="97.323"
	 viewBox="0 0 95.75 97.323" overflow="visible" enable-background="new 0 0 95.75 97.323" xml:space="preserve">
<path d="M28.219,0c-7.202,0-13.031,5.833-13.031,13.031c0,0.163,0.024,0.306,0.031,0.469c-0.163-0.011-0.306-0.031-0.469-0.031
	c-3.875,0-7,3.125-7,7v0.156c-0.554-0.166-1.112-0.281-1.719-0.281c-3.324,0-6.031,2.679-6.031,6c0,3.323,2.708,4.594,6.031,4.594
	h38.657C50.385,30.938,55,26.323,55,20.625c0-5.697-4.615-10.313-10.312-10.313c-1.288,0-2.525,0.259-3.657,0.688
	C40.048,4.773,34.718,0,28.219,0L28.219,0z M91.938,1.938l-90,90l2.125,2.124l90-90l-2.123-2.125L91.938,1.938z M12.906,34.344
	L7.938,47.969L9,48.375l5.125-14.031H12.906z M18.594,34.344l-4.969,13.625l1.063,0.406l5.124-14.031H18.594z M24.281,34.344
	l-4.969,13.625l1.063,0.406l5.094-14.031H24.281z M29.938,34.344L25,47.969l1.062,0.406l5.094-14.031H29.938z M35.625,34.344
	l-4.969,13.625l1.063,0.406l5.125-14.031H35.625z M41.312,34.344l-4.968,13.625l1.062,0.406L42.5,34.344H41.312z M68.969,46.5
	c-7.201,0-13.031,5.832-13.031,13.031c0,0.162,0.024,0.306,0.031,0.469c-0.162-0.011-0.306-0.031-0.469-0.031c-3.875,0-7,3.125-7,7
	v0.156c-0.555-0.166-1.112-0.281-1.719-0.281c-3.324,0-6.031,2.68-6.031,6c0,3.323,2.708,4.594,6.031,4.594h38.656
	c5.697,0,10.313-4.614,10.313-10.313c0-5.697-4.615-10.313-10.313-10.313c-1.287,0-2.524,0.258-3.656,0.688
	C80.799,51.273,75.469,46.5,68.969,46.5L68.969,46.5z M54.875,80.844L49.75,94.875l-1.063-0.406l4.969-13.625H54.875z
	 M48.673,95.868c0.39,0.143,0.591,0.571,0.448,0.96c-0.143,0.391-0.57,0.592-0.961,0.449c-0.389-0.143-0.59-0.57-0.447-0.961
	c0.105-0.292,0.368-0.477,0.661-0.491C48.471,95.82,48.575,95.833,48.673,95.868z M60.542,80.844l-3.104,8.344l-1.063-0.406
	l2.948-7.938H60.542z M56.465,89.807c0.389,0.142,0.591,0.57,0.448,0.959c-0.142,0.391-0.571,0.591-0.96,0.449
	c-0.39-0.143-0.592-0.57-0.448-0.961c0.106-0.292,0.368-0.476,0.661-0.491C56.264,89.759,56.367,89.771,56.465,89.807z
	 M66.209,80.844l-5.125,14.031l-1.063-0.406l4.969-13.625H66.209z M60.006,95.868c0.39,0.143,0.592,0.571,0.449,0.96
	c-0.143,0.391-0.571,0.592-0.961,0.449c-0.389-0.143-0.591-0.57-0.448-0.961c0.106-0.292,0.368-0.477,0.661-0.491
	C59.805,95.82,59.908,95.833,60.006,95.868z M71.875,80.844l-3.104,8.344l-1.063-0.406l2.948-7.938H71.875z M67.86,89.743
	c0.39,0.143,0.591,0.571,0.448,0.96c-0.143,0.391-0.57,0.592-0.961,0.449c-0.389-0.143-0.59-0.57-0.447-0.961
	c0.105-0.292,0.368-0.477,0.661-0.491C67.658,89.695,67.763,89.708,67.86,89.743z M77.625,80.844L72.5,94.875l-1.063-0.406
	l4.969-13.625H77.625z M71.423,95.868c0.39,0.143,0.591,0.571,0.448,0.96c-0.143,0.391-0.57,0.592-0.961,0.449
	c-0.389-0.143-0.59-0.57-0.447-0.961c0.105-0.292,0.368-0.477,0.661-0.491C71.221,95.82,71.325,95.833,71.423,95.868z
	 M83.291,80.844l-3.104,8.344l-1.063-0.406l2.947-7.938H83.291z M79.277,89.743c0.389,0.143,0.59,0.571,0.447,0.96
	c-0.142,0.391-0.57,0.592-0.96,0.449s-0.591-0.57-0.448-0.961c0.106-0.292,0.369-0.477,0.662-0.491
	C79.075,89.695,79.18,89.708,79.277,89.743z"/>
</svg>
