<svg xmlns="http://www.w3.org/2000/svg" width="86.919" height="79.418" overflow="visible">
<path fill="#7F7F7F" d="M11.704 58.206l.497.745h.935l.423-.745-.453-.789h-.92l-.482.789zm.497 4.673v-1.314l-.73.409-.38-.22v-.466l1.096-.613v-.862l-.789.511v-.92l-.759.438v1.256l-.409.264-.351-.234v-.832l-1.154.643-.497-.204v-.526l1.198-.657-.745-.395v-.482l.424-.233 1.081.644.745-.438-.015-.015-.774-.438.745-.467-.745-.44-1.082.63-.394-.176v-.482l.73-.408-1.168-.628v-.526l.453-.234 1.154.658v-.852l.351-.234.423.249v1.271l.774.438v-.891l.804.438v-.862l-1.096-.628v-.453l.38-.219.73.408v-1.313l.424-.277.424.277v1.313l.76-.424.379.249v.409l-1.125.643v.862l.775-.469v.95l.789-.438V55.21l.379-.175.409.175v.861l1.183-.643.409.249v.497l-1.155.657.716.408v.469l-.38.204-1.11-.658-.774.482.745.468-.76.438.789.408 1.11-.613.351.248v.453l-.701.395 1.11.657v.512l-.467.219-1.096-.613v.817l-.394.22-.38-.22v-1.241l-.803-.453v.862l-.746-.467v.861l1.096.614v.496l-.38.189-.73-.408v1.313l-.424.264-.423-.276zM68.482 74.467l.498.744h.935l.423-.744-.452-.79h-.92l-.484.79zm.498 4.673v-1.313l-.732.408-.379-.219v-.467l1.097-.613v-.862l-.79.512v-.92l-.76.437v1.256l-.409.264-.35-.233v-.832l-1.154.643-.497-.205v-.526l1.198-.657-.745-.394v-.483l.424-.232 1.081.644.745-.439-.015-.015-.774-.438.744-.468-.744-.438-1.082.629-.394-.177v-.481l.729-.409-1.168-.628v-.526l.453-.233 1.154.658v-.848l.351-.234.423.249v1.271l.774.439v-.892l.805.438v-.862l-1.097-.628v-.452l.379-.22.732.408v-1.313l.423-.277.425.277v1.313l.758-.422.38.248v.408l-1.125.643v.862l.774-.468v.951l.79-.44v-1.356l.379-.177.409.177v.86l1.184-.643.409.248v.497l-1.154.657.715.409v.468l-.379.205-1.11-.658-.773.481.743.469-.758.438.788.409 1.11-.613.35.247v.454l-.7.394 1.109.657v.512l-.467.22-1.097-.613v.817l-.394.219-.379-.219v-1.242l-.805-.452v.862l-.745-.468v.861l1.096.614v.497l-.379.188-.729-.408v1.313l-.425.264-.422-.282z"/><path fill="none" stroke="#000" stroke-width="2" d="M44.568 1C33.45 1 24.45 10.005 24.45 21.12c0 .25.037.472.048.723-.251-.016-.473-.048-.725-.048-5.982 0-10.807 4.826-10.807 10.808v.242c-.856-.257-1.717-.435-2.654-.435C5.181 32.41 1 36.547 1 41.674c0 5.131 4.181 7.093 9.312 7.093h59.685c8.796 0 15.923-7.125 15.923-15.922s-7.127-15.923-15.923-15.923c-1.987 0-3.898.4-5.646 1.062C62.833 8.37 54.605 1 44.568 1h0z"/>
</svg>