<?xml version="1.0" encoding="utf-8"?>
<!-- Generator: Adobe Illustrator 12.0.0, SVG Export Plug-In . SVG Version: 6.00 Build 51448)  -->
<!DOCTYPE svg PUBLIC "-//W3C//DTD SVG 1.1//EN" "http://www.w3.org/Graphics/SVG/1.1/DTD/svg11.dtd" [
	<!ENTITY ns_svg "http://www.w3.org/2000/svg">
	<!ENTITY ns_xlink "http://www.w3.org/1999/xlink">
]>
<svg  version="1.1" id="Layer_1" xmlns="&ns_svg;" xmlns:xlink="&ns_xlink;" width="86.919" height="79.418"
	 viewBox="0 0 86.919 79.418" overflow="visible" enable-background="new 0 0 86.919 79.418" xml:space="preserve">
<path fill="#7F7F7F" d="M11.704,58.206l0.497,0.745h0.935l0.423-0.745l-0.453-0.789h-0.92L11.704,58.206z M12.201,62.879v-1.314
	l-0.73,0.409l-0.38-0.22v-0.466l1.096-0.613v-0.862l-0.789,0.511v-0.92l-0.759,0.438v1.256l-0.409,0.264l-0.351-0.234v-0.832
	l-1.154,0.643l-0.497-0.204v-0.526l1.198-0.657l-0.745-0.395v-0.482l0.424-0.233l1.081,0.644l0.745-0.438l-0.015-0.015l-0.774-0.438
	l0.745-0.467l-0.745-0.44l-1.082,0.63l-0.394-0.176v-0.482l0.73-0.408l-1.168-0.628v-0.526l0.453-0.234l1.154,0.658V55.27
	l0.351-0.234l0.423,0.249v1.271l0.774,0.438v-0.891l0.804,0.438v-0.862l-1.096-0.628v-0.453l0.38-0.219l0.73,0.408v-1.313
	l0.424-0.277l0.424,0.277v1.313l0.76-0.424l0.379,0.249v0.409l-1.125,0.643v0.862l0.775-0.469v0.95l0.789-0.438V55.21l0.379-0.175
	l0.409,0.175v0.861l1.183-0.643l0.409,0.249v0.497l-1.155,0.657l0.716,0.408v0.469l-0.38,0.204l-1.11-0.658l-0.774,0.482
	l0.745,0.468l-0.76,0.438l0.789,0.408l1.11-0.613l0.351,0.248v0.453l-0.701,0.395l1.11,0.657v0.512l-0.467,0.219l-1.096-0.613v0.817
	l-0.394,0.22l-0.38-0.22v-1.241l-0.803-0.453v0.862l-0.746-0.467v0.861l1.096,0.614v0.496l-0.38,0.189l-0.73-0.408v1.313
	l-0.424,0.264L12.201,62.879z"/>
<path fill="#7F7F7F" d="M68.482,74.467l0.498,0.744h0.935l0.423-0.744l-0.452-0.79h-0.92L68.482,74.467z M68.98,79.14v-1.313
	l-0.732,0.408l-0.379-0.219v-0.467l1.097-0.613v-0.862l-0.79,0.512v-0.92l-0.76,0.437v1.256l-0.409,0.264l-0.35-0.233v-0.832
	l-1.154,0.643l-0.497-0.205v-0.526l1.198-0.657l-0.745-0.394v-0.483l0.424-0.232l1.081,0.644l0.745-0.439l-0.015-0.015l-0.774-0.438
	l0.744-0.468l-0.744-0.438l-1.082,0.629l-0.394-0.177v-0.481l0.729-0.409l-1.168-0.628v-0.526l0.453-0.233l1.154,0.658v-0.848
	l0.351-0.234l0.423,0.249v1.271l0.774,0.439v-0.892l0.805,0.438v-0.862l-1.097-0.628v-0.452l0.379-0.22l0.732,0.408v-1.313
	l0.423-0.277l0.425,0.277v1.313l0.758-0.422l0.38,0.248v0.408l-1.125,0.643v0.862l0.774-0.468v0.951l0.79-0.44v-1.356l0.379-0.177
	l0.409,0.177v0.86l1.184-0.643l0.409,0.248v0.497l-1.154,0.657l0.715,0.409v0.468l-0.379,0.205l-1.11-0.658l-0.773,0.481
	l0.743,0.469l-0.758,0.438l0.788,0.409l1.11-0.613l0.35,0.247v0.454l-0.7,0.394l1.109,0.657v0.512l-0.467,0.22l-1.097-0.613v0.817
	l-0.394,0.219l-0.379-0.219v-1.242l-0.805-0.452v0.862l-0.745-0.468v0.861l1.096,0.614v0.497l-0.379,0.188l-0.729-0.408v1.313
	l-0.425,0.264L68.98,79.14z"/>
<path fill="none" stroke="#000000" stroke-width="2" d="M44.568,1C33.45,1,24.45,10.005,24.45,21.12c0,0.25,0.037,0.472,0.048,0.723
	c-0.251-0.016-0.473-0.048-0.725-0.048c-5.982,0-10.807,4.826-10.807,10.808v0.242c-0.856-0.257-1.717-0.435-2.654-0.435
	C5.181,32.41,1,36.547,1,41.674c0,5.131,4.181,7.093,9.312,7.093h59.685c8.796,0,15.923-7.125,15.923-15.922
	c0-8.797-7.127-15.923-15.923-15.923c-1.987,0-3.898,0.4-5.646,1.062C62.833,8.37,54.605,1,44.568,1L44.568,1z"/>
</svg>
