<svg xmlns="http://www.w3.org/2000/svg" width="92.617" height="87.502" overflow="visible">
<path fill="#7F7F7F" d="M11.067 62.781l.662.992h1.246l.564-.992-.604-1.051H11.71l-.643 1.051zm.662 6.228v-1.753l-.974.546-.506-.291v-.625l1.46-.817V64.92l-1.051.683v-1.227l-1.012.584v1.674l-.544.351-.468-.311v-1.11l-1.537.856-.662-.273v-.7l1.596-.875-.993-.526v-.643l.564-.311 1.44.856.993-.584-.02-.02-1.031-.584.992-.624-.992-.583-1.441.837-.525-.233v-.642l.973-.546-1.557-.838v-.7l.604-.311 1.537.875v-1.129l.467-.313.564.332v1.694l1.032.584v-1.188l1.071.584V59.41l-1.46-.836v-.604l.506-.293.974.545V56.47l.564-.37.565.37v1.752l1.012-.564.505.332v.545l-1.499.856v1.148l1.032-.623v1.265l1.051-.584v-1.81l.505-.235.545.235v1.148l1.577-.855.544.329v.662l-1.538.876.954.546v.621l-.506.273-1.479-.875-1.032.642.993.623-1.012.584 1.052.545 1.479-.817.467.33v.604l-.934.526 1.479.875v.681l-.623.293-1.46-.817v1.091l-.525.291-.506-.291v-1.655l-1.07-.604v1.148l-.994-.624v1.148l1.46.817v.663l-.506.253-.973-.546v1.752l-.565.352-.562-.367zM25.896 80.904l.662.993h1.246l.564-.993-.604-1.051h-1.226l-.642 1.051zm.662 6.228V85.38l-.974.545-.506-.291v-.624l1.46-.817v-1.148l-1.051.682V82.5l-1.012.584v1.673l-.544.351-.467-.311v-1.109l-1.538.855-.662-.273v-.7l1.596-.875-.993-.526v-.642l.565-.311 1.44.855.993-.584-.02-.019-1.031-.585.992-.624-.992-.582-1.441.837-.525-.233v-.643l.973-.545-1.557-.839v-.699l.604-.311 1.537.875v-1.13l.468-.312.564.331v1.694l1.032.584v-1.188l1.07.584v-1.148l-1.46-.837v-.604l.506-.293.974.546v-1.752l.565-.37.564.37v1.752l1.012-.564.505.331v.546l-1.499.855v1.148l1.032-.622v1.265l1.051-.584V76.91l.505-.234.545.234v1.149l1.577-.856.545.33v.661l-1.538.877.954.545v.621l-.506.274-1.479-.876-1.032.643.993.622-1.012.584 1.051.546 1.479-.817.468.33v.603l-.934.526 1.479.876v.68l-.623.293-1.46-.817v1.091l-.525.292-.506-.292V83.14l-1.07-.604v1.149l-.994-.625v1.149l1.46.817v.662l-.506.253-.973-.541v1.752l-.564.351-.565-.371zM42.372 62.918l.662.991h1.246l.564-.991-.604-1.052h-1.226l-.642 1.052zm.662 6.228v-1.751l-.974.544-.506-.291v-.623l1.46-.817V65.06l-1.051.682v-1.226l-1.012.582v1.674l-.544.351-.468-.311v-1.108l-1.537.855-.662-.273v-.701l1.596-.875-.993-.525v-.645l.564-.311 1.44.858.993-.586-.019-.02-1.031-.581.992-.625-.992-.584-1.441.839-.525-.235v-.642l.973-.546-1.557-.836v-.702l.604-.311 1.537.877v-1.129l.467-.313.564.331v1.693l1.032.585v-1.188l1.071.583v-1.149l-1.46-.836v-.603l.506-.292.974.544V56.61l.564-.37.565.37v1.751l1.012-.563.505.331v.544l-1.499.856v1.148l1.032-.623v1.267l1.051-.586v-1.809l.505-.234.545.234v1.147l1.577-.855.544.329v.663l-1.538.876.955.545v.623l-.507.273-1.479-.877-1.032.642.994.624-1.013.583 1.051.545 1.479-.817.469.33v.605l-.935.524 1.479.875v.683l-.623.293-1.459-.817v1.089l-.526.291-.506-.291v-1.655l-1.07-.603V65.7l-.994-.624v1.148l1.46.817v.663l-.506.251-.973-.544v1.75l-.565.352-.563-.367zM57.063 80.904l.662.993h1.247l.563-.993-.604-1.051h-1.226l-.642 1.051zm.662 6.228V85.38l-.974.545-.505-.291v-.624l1.459-.817v-1.148l-1.051.682V82.5l-1.014.584v1.673l-.544.351-.467-.311v-1.109l-1.538.855-.663-.273v-.7l1.597-.875-.991-.526v-.642l.563-.311 1.441.855.991-.584-.02-.019-1.029-.585.99-.624-.99-.582-1.442.837-.524-.233v-.643l.972-.545-1.558-.839v-.699l.605-.311 1.536.875v-1.13l.469-.312.563.331v1.694l1.033.584v-1.188l1.07.584v-1.148l-1.458-.834v-.604l.505-.293.974.546v-1.752l.564-.37.564.37v1.752l1.013-.564.505.331v.546l-1.5.855v1.148l1.033-.622v1.265l1.053-.584v-1.811l.505-.234.544.234v1.149l1.577-.856.545.33v.661l-1.538.877.954.545v.621l-.505.274-1.48-.876-1.031.643.992.622-1.012.584 1.051.546 1.48-.817.466.33v.603l-.933.526 1.477.876v.68l-.621.293-1.461-.817v1.091l-.524.292-.507-.292v-1.655l-1.069-.604v1.149l-.995-.625v1.149l1.461.817v.662l-.505.253-.974-.544v1.752l-.564.351-.565-.371zM72.028 62.917l.661.992h1.247l.564-.992-.604-1.051H72.67l-.642 1.051zm.661 6.229v-1.753l-.972.546-.507-.293v-.621l1.459-.817V65.06l-1.051.681v-1.227l-1.012.584v1.674l-.544.351-.468-.313v-1.108l-1.537.856-.663-.272v-.701l1.597-.875-.993-.526v-.644l.564-.312 1.44.857.993-.584-.02-.02-1.031-.584.992-.623-.992-.585-1.44.838-.526-.233v-.644l.974-.544-1.558-.836v-.702l.604-.312 1.537.877v-1.128l.468-.313.564.331v1.693l1.031.584v-1.188l1.07.584v-1.149l-1.459-.836v-.601l.507-.291.972.544v-1.751l.566-.37.563.37v1.751l1.014-.565.506.332v.545l-1.5.856v1.148l1.033-.624v1.266l1.051-.584v-1.81l.505-.233.546.233v1.147l1.576-.856.544.331v.663l-1.538.876.956.543v.625l-.507.271-1.479-.877-1.033.644.994.623-1.014.584 1.053.544 1.479-.817.468.331v.604l-.935.526 1.479.875v.683l-.622.291-1.46-.817v1.089l-.526.293-.507-.294v-1.653l-1.068-.604V65.7l-.994-.622v1.148l1.461.817v.661l-.507.253-.974-.544v1.75l-.563.352-.566-.369z"/><path stroke="#000" stroke-width="2" d="M47.493 1c-11.866 0-21.47 9.609-21.47 21.47 0 .268.04.503.051.772-.269-.018-.504-.052-.773-.052-6.384 0-11.533 5.149-11.533 11.533v.257c-.913-.273-1.832-.463-2.832-.463C5.461 34.518 1 38.932 1 44.404c0 5.476 4.461 7.569 9.937 7.569h63.69c9.387 0 16.99-7.603 16.99-16.992 0-9.387-7.604-16.992-16.99-16.992-2.121 0-4.159.427-6.024 1.134C66.984 8.865 58.202 1 47.493 1h0z"/>
</svg>