<svg xmlns="http://www.w3.org/2000/svg" width="93" height="85.937" overflow="visible">
<path d="M47.716 0C35.538 0 25.682 9.862 25.682 22.035c0 .275.041.517.053.792-.276-.018-.518-.053-.793-.053-6.552 0-11.836 5.284-11.836 11.836v.264c-.937-.281-1.88-.476-2.906-.476C4.578 34.399 0 38.93 0 44.545c0 5.619 4.578 7.768 10.198 7.768h65.364C85.196 52.313 93 44.51 93 34.875c0-9.633-7.804-17.438-17.438-17.438-2.177 0-4.269.438-6.183 1.163C67.719 8.072 58.706 0 47.716 0zM21.823 58.072l-8.402 23.039 1.797.686 8.666-23.725zM12.892 83.405c-.496.024-.939.337-1.119.83-.241.661.1 1.384.758 1.625.659.241 1.384-.099 1.624-.76.241-.657-.1-1.382-.758-1.623-.165-.06-.341-.081-.505-.072zM31.406 58.072L26.42 71.494l1.797.687 5.249-14.109zM26.067 73.154c-.495.026-.938.337-1.118.83-.242.66.099 1.384.757 1.625.659.239 1.384-.1 1.624-.76.241-.657-.101-1.382-.758-1.621-.165-.061-.341-.081-.505-.074zM40.987 58.072l-8.402 23.039 1.797.686 8.666-23.725zM32.056 83.405c-.496.024-.939.337-1.119.83-.241.661.1 1.384.758 1.625.659.241 1.384-.099 1.624-.76.241-.657-.1-1.382-.758-1.623-.165-.06-.341-.081-.505-.072zM50.568 58.072l-4.985 13.422 1.797.687 5.25-14.109zM45.336 73.047c-.496.025-.939.337-1.119.831-.241.66.1 1.384.758 1.625.659.241 1.384-.1 1.624-.76.241-.657-.1-1.382-.757-1.623-.166-.059-.342-.08-.506-.073zM60.291 58.072L51.89 81.111l1.797.686 8.666-23.725zM51.359 83.405c-.495.024-.939.337-1.117.83-.241.661.099 1.384.756 1.625.66.241 1.384-.099 1.625-.76.241-.657-.1-1.382-.758-1.623-.165-.06-.342-.081-.506-.072zM69.872 58.072l-4.983 13.422 1.797.687 5.247-14.109zM64.641 73.047c-.495.025-.939.337-1.119.831-.241.66.099 1.384.758 1.625s1.384-.1 1.623-.76c.241-.657-.099-1.382-.756-1.623-.166-.059-.342-.08-.506-.073z"/>
</svg>