<svg xmlns="http://www.w3.org/2000/svg" width="96.75" height="98.407" overflow="visible">
<path d="M92.938 3.021l-90 90 2.125 2.124 90-90-2.124-2.125-.001.001zM69.969 47.583c-7.201 0-13.031 5.832-13.031 13.031 0 .162.024.306.031.469-.162-.011-.306-.031-.469-.031-3.875 0-7 3.125-7 7v.156c-.555-.166-1.112-.281-1.719-.281-3.324 0-6.031 2.68-6.031 6 0 3.323 2.708 4.594 6.031 4.594h38.656c5.697 0 10.313-4.614 10.313-10.313 0-5.697-4.615-10.313-10.313-10.313-1.287 0-2.524.258-3.656.688-.982-6.226-6.312-11-12.812-11zM54.656 81.927l-4.968 13.625 1.062.406 5.125-14.031zM49.374 96.909c-.293.015-.556.199-.661.491-.143.391.059.818.447.961.391.143.818-.059.961-.449.143-.389-.059-.817-.448-.96-.098-.035-.202-.048-.299-.043zM60.323 81.927l-2.948 7.938 1.063.406 3.104-8.344zM57.166 90.846c-.293.016-.555.199-.661.491-.144.391.059.818.448.961.389.142.818-.059.96-.449.143-.389-.06-.817-.448-.959-.098-.036-.201-.048-.299-.044zM65.99 81.927l-4.969 13.625 1.063.406 5.125-14.031zM60.707 96.909c-.293.015-.555.199-.661.491-.143.391.06.818.448.961.39.143.818-.059.961-.449.143-.389-.06-.817-.449-.96-.098-.035-.201-.048-.299-.043zM71.656 81.927l-2.948 7.938 1.063.406 3.104-8.344zM68.562 90.784c-.293.015-.556.199-.661.491-.143.391.059.818.447.961.391.143.818-.059.961-.449.143-.389-.059-.817-.448-.96-.098-.035-.203-.048-.299-.043zM77.406 81.927l-4.968 13.625 1.062.406 5.125-14.031zM72.124 96.909c-.293.015-.556.199-.661.491-.143.391.059.818.447.961.391.143.818-.059.961-.449.143-.389-.059-.817-.448-.96-.098-.035-.202-.048-.299-.043zM83.072 81.927l-2.947 7.938 1.063.406 3.103-8.344zM79.979 90.784c-.293.015-.556.199-.662.491-.143.391.059.818.448.961s.818-.059.96-.449c.143-.389-.059-.817-.447-.96-.098-.035-.203-.048-.299-.043z"/><path fill="#7F7F7F" d="M7.11 38.498l.402.602h.756l.342-.603-.365-.637H7.5l-.39.638zm.402 3.78v-1.063l-.591.331-.307-.177v-.379l.886-.496v-.697l-.638.413v-.744l-.614.354v1.016l-.331.213-.283-.189v-.673l-.933.52-.402-.166v-.425l.969-.531-.603-.319v-.39l.343-.189.874.52.603-.354-.012-.013-.626-.354.602-.378-.602-.354-.875.508-.319-.142v-.39l.59-.331-.945-.508v-.425l.366-.189.933.532v-.685l.284-.189.342.201v1.028l.626.354v-.721l.65.354v-.697l-.886-.508v-.366l.307-.177.591.331V34.67l.343-.225.343.225v1.063l.614-.343.307.201v.331l-.91.52v.697l.626-.378v.768l.638-.354v-1.099l.307-.142.331.142v.697l.957-.52.331.201v.402l-.934.532.579.331v.378l-.307.166-.896-.534-.626.39.603.378-.614.354.638.331.897-.496.284.201v.366l-.567.319.897.531v.414l-.378.177-.886-.496v.662l-.319.177-.308-.177v-1.004l-.649-.366v.697l-.603-.378v.697l.886.496v.402l-.307.153-.59-.331v1.063l-.343.213-.343-.224zM16.11 49.498l.402.603h.756l.342-.603-.366-.638H16.5l-.39.638zm.402 3.78v-1.063l-.591.331-.307-.177v-.379l.886-.496v-.697l-.638.414v-.744l-.614.354v1.016l-.331.213-.284-.188v-.674l-.933.52-.402-.166v-.425l.969-.531-.603-.319v-.39l.343-.189.874.52.603-.354-.012-.012-.626-.354.602-.378-.602-.354-.875.508-.319-.142v-.39l.59-.331-.945-.508v-.425l.366-.189.933.532v-.685l.284-.189.342.201v1.028l.626.354v-.721l.65.354v-.697l-.886-.508v-.368l.307-.177.591.331V45.67l.343-.225.343.225v1.063l.614-.343.307.201v.331l-.91.52v.697l.626-.378v.768l.638-.354v-1.099l.307-.142.331.142v.697l.957-.52.331.201v.402l-.934.532.579.331v.378l-.307.166-.897-.532-.626.39.603.378-.614.354.638.331.897-.496.284.201v.366l-.567.319.897.531v.413l-.378.178-.886-.496v.662l-.319.177-.307-.177v-1.005l-.649-.366v.697l-.603-.379v.697l.886.496v.402l-.307.153-.59-.331v1.063l-.343.213-.342-.224zM26.11 38.581l.402.603h.756l.342-.603-.366-.638H26.5l-.39.638zm.402 3.78v-1.063l-.591.331-.307-.177v-.378l.886-.496v-.698l-.638.414v-.744l-.614.354v1.016l-.331.213-.284-.189v-.673l-.933.52-.402-.166V40.2l.969-.531-.603-.319v-.39l.343-.189.874.52.603-.354-.012-.012-.626-.354.602-.378-.602-.354-.875.508-.319-.142v-.39l.59-.331-.945-.508v-.425l.366-.189.933.532v-.685l.284-.189.342.201v1.028l.626.354v-.723l.65.354v-.697l-.886-.508v-.366l.307-.177.591.331v-1.063l.343-.225.343.225v1.063l.614-.343.307.201v.331l-.91.52v.697l.626-.378v.768l.638-.354V36.16l.307-.142.331.142v.697l.957-.52.331.201v.402l-.934.532.579.331v.378l-.307.166-.897-.532-.626.39.603.378-.614.354.638.331.897-.496.284.201v.366l-.567.319.897.531v.414l-.378.177-.886-.496v.662l-.319.177-.307-.177v-1.004l-.649-.366v.697l-.603-.378v.697l.886.496v.402l-.307.153-.59-.331v1.063l-.343.213-.342-.227zM35.027 49.498l.402.603h.756l.342-.603-.366-.638h-.744l-.39.638zm.402 3.78v-1.063l-.591.331-.307-.177v-.379l.886-.496v-.697l-.638.414v-.744l-.614.354v1.016l-.331.213-.284-.188v-.674l-.933.52-.402-.166v-.425l.969-.531-.603-.319v-.39l.343-.189.874.52.603-.354-.012-.012-.626-.354.602-.378-.602-.354-.875.508-.318-.144v-.39l.59-.331-.945-.508v-.425l.366-.189.933.532v-.685l.284-.189.342.201v1.028l.626.354v-.721l.65.354v-.697l-.886-.508v-.366l.307-.177.591.331V45.67l.343-.225.343.225v1.063l.614-.343.307.201v.331l-.91.52v.697l.626-.378v.768l.638-.354v-1.099l.307-.142.331.142v.697l.957-.52.331.201v.402l-.934.532.579.331v.378l-.307.166-.897-.532-.626.39.603.378-.614.354.638.331.897-.496.284.201v.366l-.567.319.897.531v.413l-.378.178-.886-.496v.662l-.319.177-.307-.177v-1.005l-.649-.366v.697l-.603-.379v.697l.886.496v.402l-.307.153-.59-.331v1.063l-.343.213-.343-.224zM44.11 38.581l.402.603h.756l.342-.603-.366-.638H44.5l-.39.638zm.402 3.78v-1.063l-.591.331-.307-.177v-.378l.886-.496v-.698l-.638.414v-.744l-.614.354v1.016l-.331.213-.284-.189v-.674l-.933.52-.402-.166v-.425l.969-.531-.603-.319v-.39l.343-.189.874.52.603-.354-.012-.012-.626-.354.602-.378-.602-.354-.875.508-.319-.142v-.39l.59-.331-.945-.508v-.425l.366-.189.933.532v-.685l.284-.189.342.201v1.028l.626.354v-.721l.65.354v-.697l-.886-.508v-.366l.307-.177.591.331v-1.063l.343-.225.343.225v1.063l.614-.343.307.201v.331l-.91.52v.697l.626-.378v.768l.638-.354v-1.099l.307-.142.331.142v.697l.957-.52.331.201v.402l-.934.532.579.331v.378l-.307.166-.897-.532-.626.39.603.378-.614.354.638.331.897-.496.284.201v.366l-.567.319.897.531v.414l-.378.177-.886-.496v.662l-.319.177-.307-.177v-1.004l-.649-.366v.697l-.603-.378v.697l.886.496v.402l-.307.153-.59-.331v1.063l-.343.213-.342-.228z"/><path fill="none" stroke="#000" stroke-width="2" d="M29.219 1c-7.202 0-13.031 5.833-13.031 13.031 0 .163.024.306.031.469-.163-.011-.306-.031-.469-.031-3.875 0-7 3.125-7 7v.156c-.554-.166-1.112-.281-1.719-.281-3.324 0-6.031 2.679-6.031 6 0 3.323 2.708 4.594 6.031 4.594h38.657C51.385 31.938 56 27.323 56 21.625c0-5.697-4.615-10.313-10.312-10.313-1.288 0-2.525.259-3.657.688-.983-6.227-6.313-11-12.812-11h0z"/>
</svg>