<?xml version="1.0" encoding="utf-8"?>
<!-- Generator: Adobe Illustrator 12.0.0, SVG Export Plug-In . SVG Version: 6.00 Build 51448)  -->
<!DOCTYPE svg PUBLIC "-//W3C//DTD SVG 1.1//EN" "http://www.w3.org/Graphics/SVG/1.1/DTD/svg11.dtd" [
	<!ENTITY ns_svg "http://www.w3.org/2000/svg">
	<!ENTITY ns_xlink "http://www.w3.org/1999/xlink">
]>
<svg  version="1.1" id="Layer_1" xmlns="&ns_svg;" xmlns:xlink="&ns_xlink;" width="96.75" height="98.407"
	 viewBox="0 0 96.75 98.407" overflow="visible" enable-background="new 0 0 96.75 98.407" xml:space="preserve">
<path d="M92.938,3.021l-90,90l2.125,2.124l90-90L92.939,3.02L92.938,3.021z"/>
<path d="M69.969,47.583c-7.201,0-13.031,5.832-13.031,13.031c0,0.162,0.024,0.306,0.031,0.469c-0.162-0.011-0.306-0.031-0.469-0.031
	c-3.875,0-7,3.125-7,7v0.156c-0.555-0.166-1.112-0.281-1.719-0.281c-3.324,0-6.031,2.68-6.031,6c0,3.323,2.708,4.594,6.031,4.594
	h38.656c5.697,0,10.313-4.614,10.313-10.313c0-5.697-4.615-10.313-10.313-10.313c-1.287,0-2.524,0.258-3.656,0.688
	C81.799,52.357,76.469,47.583,69.969,47.583L69.969,47.583z"/>
<polygon points="54.656,81.927 49.688,95.552 50.75,95.958 55.875,81.927 "/>
<path d="M49.374,96.909c-0.293,0.015-0.556,0.199-0.661,0.491c-0.143,0.391,0.059,0.818,0.447,0.961
	c0.391,0.143,0.818-0.059,0.961-0.449c0.143-0.389-0.059-0.817-0.448-0.96C49.575,96.917,49.471,96.904,49.374,96.909z"/>
<polygon points="60.323,81.927 57.375,89.865 58.438,90.271 61.542,81.927 "/>
<path d="M57.166,90.846c-0.293,0.016-0.555,0.199-0.661,0.491c-0.144,0.391,0.059,0.818,0.448,0.961
	c0.389,0.142,0.818-0.059,0.96-0.449c0.143-0.389-0.06-0.817-0.448-0.959C57.367,90.854,57.264,90.842,57.166,90.846z"/>
<polygon points="65.99,81.927 61.021,95.552 62.084,95.958 67.209,81.927 "/>
<path d="M60.707,96.909c-0.293,0.015-0.555,0.199-0.661,0.491c-0.143,0.391,0.06,0.818,0.448,0.961
	c0.39,0.143,0.818-0.059,0.961-0.449c0.143-0.389-0.06-0.817-0.449-0.96C60.908,96.917,60.805,96.904,60.707,96.909z"/>
<polygon points="71.656,81.927 68.708,89.865 69.771,90.271 72.875,81.927 "/>
<path d="M68.562,90.784c-0.293,0.015-0.556,0.199-0.661,0.491c-0.143,0.391,0.059,0.818,0.447,0.961
	c0.391,0.143,0.818-0.059,0.961-0.449c0.143-0.389-0.059-0.817-0.448-0.96C68.763,90.792,68.658,90.779,68.562,90.784z"/>
<polygon points="77.406,81.927 72.438,95.552 73.5,95.958 78.625,81.927 "/>
<path d="M72.124,96.909c-0.293,0.015-0.556,0.199-0.661,0.491c-0.143,0.391,0.059,0.818,0.447,0.961
	c0.391,0.143,0.818-0.059,0.961-0.449c0.143-0.389-0.059-0.817-0.448-0.96C72.325,96.917,72.221,96.904,72.124,96.909z"/>
<polygon points="83.072,81.927 80.125,89.865 81.188,90.271 84.291,81.927 "/>
<path d="M79.979,90.784c-0.293,0.015-0.556,0.199-0.662,0.491c-0.143,0.391,0.059,0.818,0.448,0.961s0.818-0.059,0.96-0.449
	c0.143-0.389-0.059-0.817-0.447-0.96C80.18,90.792,80.075,90.779,79.979,90.784z"/>
<path fill="#7F7F7F" d="M7.11,38.498L7.512,39.1h0.756l0.342-0.603L8.245,37.86H7.5L7.11,38.498z M7.512,42.278v-1.063l-0.591,0.331
	l-0.307-0.177V40.99L7.5,40.494v-0.697L6.862,40.21v-0.744l-0.614,0.354v1.016l-0.331,0.213L5.634,40.86v-0.673l-0.933,0.52
	l-0.402-0.166v-0.425l0.969-0.531l-0.603-0.319v-0.39l0.343-0.189l0.874,0.52l0.603-0.354L6.473,38.84l-0.626-0.354l0.602-0.378
	l-0.602-0.354l-0.875,0.508L4.653,38.12v-0.39l0.59-0.331l-0.945-0.508v-0.425l0.366-0.189l0.933,0.532v-0.685l0.284-0.189
	l0.342,0.201v1.028l0.626,0.354v-0.721l0.65,0.354v-0.697l-0.886-0.508V35.58l0.307-0.177l0.591,0.331V34.67l0.343-0.225
	l0.343,0.225v1.063l0.614-0.343l0.307,0.201v0.331l-0.91,0.52v0.697l0.626-0.378v0.768l0.638-0.354v-1.099l0.307-0.142l0.331,0.142
	v0.697l0.957-0.52l0.331,0.201v0.402l-0.934,0.532l0.579,0.331v0.378l-0.307,0.166L9.84,37.729l-0.626,0.39l0.603,0.378
	l-0.614,0.354l0.638,0.331l0.897-0.496l0.284,0.201v0.366l-0.567,0.319l0.897,0.531v0.414l-0.378,0.177l-0.886-0.496v0.662
	l-0.319,0.177L9.461,40.86v-1.004L8.812,39.49v0.697l-0.603-0.378v0.697l0.886,0.496v0.402l-0.307,0.153l-0.59-0.331v1.063
	l-0.343,0.213L7.512,42.278z"/>
<path fill="#7F7F7F" d="M16.11,49.498l0.402,0.603h0.756l0.342-0.603l-0.366-0.638H16.5L16.11,49.498z M16.512,53.278v-1.063
	l-0.591,0.331l-0.307-0.177V51.99l0.886-0.496v-0.697l-0.638,0.414v-0.744l-0.614,0.354v1.016l-0.331,0.213l-0.284-0.188v-0.674
	l-0.933,0.52l-0.402-0.166v-0.425l0.969-0.531l-0.603-0.319v-0.39l0.343-0.189l0.874,0.52l0.603-0.354l-0.012-0.012l-0.626-0.354
	l0.602-0.378l-0.602-0.354l-0.875,0.508l-0.319-0.142v-0.39l0.59-0.331l-0.945-0.508v-0.425l0.366-0.189l0.933,0.532v-0.685
	l0.284-0.189l0.342,0.201v1.028l0.626,0.354v-0.721l0.65,0.354v-0.697l-0.886-0.508V46.58l0.307-0.177l0.591,0.331V45.67
	l0.343-0.225l0.343,0.225v1.063l0.614-0.343l0.307,0.201v0.331l-0.91,0.52v0.697l0.626-0.378v0.768l0.638-0.354v-1.099l0.307-0.142
	l0.331,0.142v0.697l0.957-0.52l0.331,0.201v0.402l-0.934,0.532l0.579,0.331v0.378l-0.307,0.166l-0.897-0.532l-0.626,0.39
	l0.603,0.378l-0.614,0.354l0.638,0.331l0.897-0.496l0.284,0.201v0.366l-0.567,0.319l0.897,0.531v0.413l-0.378,0.178l-0.886-0.496
	v0.662l-0.319,0.177l-0.307-0.177v-1.005l-0.649-0.366v0.697l-0.603-0.379v0.697l0.886,0.496v0.402l-0.307,0.153l-0.59-0.331v1.063
	l-0.343,0.213L16.512,53.278z"/>
<path fill="#7F7F7F" d="M26.11,38.581l0.402,0.603h0.756l0.342-0.603l-0.366-0.638H26.5L26.11,38.581z M26.512,42.361v-1.063
	l-0.591,0.331l-0.307-0.177v-0.378l0.886-0.496V39.88l-0.638,0.414V39.55l-0.614,0.354v1.016l-0.331,0.213l-0.284-0.189v-0.673
	l-0.933,0.52l-0.402-0.166v-0.425l0.969-0.531l-0.603-0.319v-0.39l0.343-0.189l0.874,0.52l0.603-0.354l-0.012-0.012l-0.626-0.354
	l0.602-0.378l-0.602-0.354l-0.875,0.508l-0.319-0.142v-0.39l0.59-0.331l-0.945-0.508v-0.425l0.366-0.189l0.933,0.532v-0.685
	l0.284-0.189l0.342,0.201v1.028l0.626,0.354V36.88l0.65,0.354v-0.697l-0.886-0.508v-0.366l0.307-0.177l0.591,0.331v-1.063
	l0.343-0.225l0.343,0.225v1.063l0.614-0.343l0.307,0.201v0.331l-0.91,0.52v0.697l0.626-0.378v0.768l0.638-0.354v-1.099l0.307-0.142
	l0.331,0.142v0.697l0.957-0.52l0.331,0.201v0.402l-0.934,0.532l0.579,0.331v0.378l-0.307,0.166l-0.897-0.532l-0.626,0.39
	l0.603,0.378l-0.614,0.354l0.638,0.331l0.897-0.496l0.284,0.201v0.366l-0.567,0.319l0.897,0.531v0.414l-0.378,0.177l-0.886-0.496
	v0.662l-0.319,0.177l-0.307-0.177v-1.004l-0.649-0.366v0.697l-0.603-0.378v0.697l0.886,0.496v0.402l-0.307,0.153l-0.59-0.331v1.063
	l-0.343,0.213L26.512,42.361z"/>
<path fill="#7F7F7F" d="M35.027,49.498l0.402,0.603h0.756l0.342-0.603l-0.366-0.638h-0.744L35.027,49.498z M35.429,53.278v-1.063
	l-0.591,0.331l-0.307-0.177V51.99l0.886-0.496v-0.697l-0.638,0.414v-0.744l-0.614,0.354v1.016l-0.331,0.213l-0.284-0.188v-0.674
	l-0.933,0.52l-0.402-0.166v-0.425l0.969-0.531l-0.603-0.319v-0.39l0.343-0.189l0.874,0.52l0.603-0.354l-0.012-0.012l-0.626-0.354
	l0.602-0.378l-0.602-0.354l-0.875,0.508L32.57,49.12v-0.39l0.59-0.331l-0.945-0.508v-0.425l0.366-0.189l0.933,0.532v-0.685
	l0.284-0.189l0.342,0.201v1.028l0.626,0.354v-0.721l0.65,0.354v-0.697l-0.886-0.508V46.58l0.307-0.177l0.591,0.331V45.67
	l0.343-0.225l0.343,0.225v1.063l0.614-0.343l0.307,0.201v0.331l-0.91,0.52v0.697l0.626-0.378v0.768l0.638-0.354v-1.099l0.307-0.142
	l0.331,0.142v0.697l0.957-0.52l0.331,0.201v0.402l-0.934,0.532l0.579,0.331v0.378l-0.307,0.166l-0.897-0.532l-0.626,0.39
	l0.603,0.378l-0.614,0.354l0.638,0.331l0.897-0.496l0.284,0.201v0.366l-0.567,0.319l0.897,0.531v0.413l-0.378,0.178l-0.886-0.496
	v0.662l-0.319,0.177l-0.307-0.177v-1.005l-0.649-0.366v0.697l-0.603-0.379v0.697l0.886,0.496v0.402l-0.307,0.153l-0.59-0.331v1.063
	l-0.343,0.213L35.429,53.278z"/>
<path fill="#7F7F7F" d="M44.11,38.581l0.402,0.603h0.756l0.342-0.603l-0.366-0.638H44.5L44.11,38.581z M44.512,42.361v-1.063
	l-0.591,0.331l-0.307-0.177v-0.378l0.886-0.496V39.88l-0.638,0.414v-0.744l-0.614,0.354v1.016l-0.331,0.213l-0.284-0.189V40.27
	l-0.933,0.52l-0.402-0.166v-0.425l0.969-0.531l-0.603-0.319v-0.39l0.343-0.189l0.874,0.52l0.603-0.354l-0.012-0.012l-0.626-0.354
	l0.602-0.378l-0.602-0.354l-0.875,0.508l-0.319-0.142v-0.39l0.59-0.331l-0.945-0.508v-0.425l0.366-0.189l0.933,0.532v-0.685
	l0.284-0.189l0.342,0.201v1.028l0.626,0.354v-0.721l0.65,0.354v-0.697l-0.886-0.508v-0.366l0.307-0.177l0.591,0.331v-1.063
	l0.343-0.225l0.343,0.225v1.063l0.614-0.343l0.307,0.201v0.331l-0.91,0.52v0.697l0.626-0.378v0.768l0.638-0.354v-1.099l0.307-0.142
	l0.331,0.142v0.697l0.957-0.52l0.331,0.201v0.402l-0.934,0.532l0.579,0.331v0.378l-0.307,0.166l-0.897-0.532l-0.626,0.39
	l0.603,0.378l-0.614,0.354l0.638,0.331l0.897-0.496l0.284,0.201v0.366l-0.567,0.319l0.897,0.531v0.414l-0.378,0.177l-0.886-0.496
	v0.662l-0.319,0.177l-0.307-0.177v-1.004l-0.649-0.366v0.697l-0.603-0.378v0.697l0.886,0.496v0.402l-0.307,0.153l-0.59-0.331v1.063
	l-0.343,0.213L44.512,42.361z"/>
<path fill="none" stroke="#000000" stroke-width="2" d="M29.219,1c-7.202,0-13.031,5.833-13.031,13.031
	c0,0.163,0.024,0.306,0.031,0.469c-0.163-0.011-0.306-0.031-0.469-0.031c-3.875,0-7,3.125-7,7v0.156
	c-0.554-0.166-1.112-0.281-1.719-0.281c-3.324,0-6.031,2.679-6.031,6c0,3.323,2.708,4.594,6.031,4.594h38.657
	C51.385,31.938,56,27.323,56,21.625c0-5.697-4.615-10.313-10.312-10.313c-1.288,0-2.525,0.259-3.657,0.688
	C41.048,5.773,35.718,1,29.219,1L29.219,1z"/>
</svg>
