<svg xmlns="http://www.w3.org/2000/svg" viewBox="0 0 100 100">
<path d="M51.078 3C40.28 3 31.541 11.746 31.541 22.539c0 .244.036.458.047.703-.245-.016-.459-.047-.704-.047-5.809 0-10.495 4.686-10.495 10.495v.234c-.831-.249-1.667-.421-2.577-.421-4.983 0-9.042 4.017-9.042 8.996 0 4.983 4.059 6.888 9.042 6.888H75.77c8.542 0 15.462-6.919 15.462-15.462 0-8.542-6.92-15.462-15.462-15.462-1.93 0-3.785.388-5.482 1.031C68.814 10.157 60.823 3 51.078 3z"/><path fill="#020202" d="M17.93 59.097l.602.902h1.134l.513-.902-.549-.957h-1.116l-.584.957zm.603 5.667v-1.595l-.886.497-.46-.266v-.568l1.329-.743v-1.044l-.957.62v-1.117l-.921.532v1.522l-.495.319-.426-.284V61.63l-1.399.778-.603-.248v-.637l1.453-.798-.903-.479v-.585l.514-.283 1.311.78.903-.532-.018-.017-.938-.532.902-.567-.902-.531-1.311.762-.478-.212v-.585l.885-.495-1.417-.763v-.638l.549-.283 1.398.798v-1.027l.426-.284.513.301v1.541l.939.532v-1.081l.975.532v-1.046l-1.329-.762v-.548l.46-.267.886.496v-1.594l.514-.338.514.338v1.594l.921-.515.46.302v.497l-1.364.779v1.045l.939-.567v1.151l.957-.531v-1.647l.459-.213.497.213v1.045l1.435-.779.495.301v.604l-1.399.797.868.495v.566l-.46.248-1.345-.797-.94.585.904.567-.921.53.957.497 1.345-.745.425.301v.549l-.85.48 1.345.795v.62l-.566.266-1.329-.743v.991l-.478.266-.46-.266v-1.505l-.974-.55v1.047l-.904-.568v1.046l1.329.744v.6l-.46.23-.885-.495v1.593l-.514.32-.515-.335zM31.424 75.589l.603.902h1.134l.513-.902-.549-.956h-1.116l-.585.956zm.603 5.667v-1.595l-.886.497-.46-.266v-.567l1.329-.744v-1.046l-.957.622V77.04l-.921.532v1.522l-.496.319-.425-.281v-1.011l-1.4.779-.602-.248v-.637l1.452-.798-.903-.478v-.584l.514-.282 1.311.778.904-.532-.018-.017-.938-.532.903-.568-.903-.53-1.311.763-.478-.213v-.583l.885-.497-1.416-.763v-.637l.549-.284 1.399.798v-1.029l.425-.283.513.302v1.541l.939.533v-1.082l.975.532v-1.046l-1.329-.76v-.55l.46-.267.886.496v-1.595l.514-.336.514.336v1.595l.921-.514.459.301v.497l-1.364.779v1.044l.939-.565v1.15l.957-.53v-1.648l.459-.214.497.214v1.047l1.435-.779.496.299v.602l-1.4.8.868.495v.565l-.46.249-1.345-.796-.94.583.903.567-.921.53.957.497 1.345-.743.426.299v.549l-.85.48 1.345.796v.62l-.566.265-1.329-.743v.994l-.478.263-.46-.263v-1.508l-.974-.549v1.046l-.904-.568v1.045l1.329.743v.604l-.46.229-.885-.495v1.594l-.514.319-.515-.337zM46.417 59.222l.603.902h1.134l.513-.902-.548-.956h-1.116l-.586.956zm.603 5.667v-1.595l-.886.497-.46-.266v-.567l1.329-.744V61.17l-.957.62v-1.117l-.921.532v1.522l-.496.319-.425-.283v-1.009l-1.398.778-.603-.248v-.637l1.453-.798-.903-.479v-.584l.514-.284 1.31.78.903-.532-.017-.017-.939-.532.903-.567-.903-.531-1.311.762-.479-.212v-.585l.886-.495-1.417-.763v-.638l.549-.283 1.399.798V55.66l.425-.284.513.301v1.541l.939.533V56.67l.974.532v-1.046l-1.329-.761v-.549l.46-.266.886.495v-1.594l.514-.337.514.337v1.594l.921-.515.46.302v.497l-1.364.779v1.045l.939-.567v1.151l.957-.53V55.59l.46-.213.496.213v1.045l1.435-.779.495.301v.604l-1.399.797.868.496v.565l-.461.248-1.345-.797-.939.585.903.567-.921.53.957.497 1.345-.745.427.301v.549l-.851.48 1.345.796v.62l-.565.265-1.329-.743v.992l-.479.265-.46-.265v-1.506l-.974-.549v1.046l-.904-.568v1.046l1.329.744v.601l-.461.229-.885-.495v1.594l-.514.319-.513-.336zM59.786 75.589l.602.902h1.134l.514-.902-.549-.956h-1.115l-.586.956zm.602 5.667v-1.595l-.886.497-.46-.266v-.567l1.329-.744v-1.046l-.957.622V77.04l-.921.532v1.522l-.496.319-.425-.281v-1.011l-1.399.779-.603-.248v-.637l1.452-.798-.903-.478v-.584l.514-.282 1.312.778.902-.532-.017-.017-.938-.532.903-.568-.903-.53-1.312.763-.479-.213v-.583l.886-.497-1.417-.763v-.637l.549-.284 1.4.798v-1.029l.426-.283.513.302v1.541l.938.533v-1.082l.976.532v-1.046l-1.329-.76v-.55l.46-.267.886.496v-1.595l.515-.336.514.336v1.595l.921-.514.461.301v.497l-1.365.779v1.044l.94-.565v1.15l.957-.53v-1.648l.46-.214.496.214v1.047l1.435-.779.496.299v.602l-1.4.8.868.495v.565l-.46.249-1.346-.796-.938.583.902.567-.921.53.957.497 1.346-.743.426.299v.549l-.851.48 1.346.796v.62l-.566.265-1.329-.743v.994l-.479.263-.459-.263v-1.508l-.975-.549v1.046l-.904-.568v1.045l1.329.743v.604l-.461.229-.885-.495v1.594l-.514.319-.517-.337zM73.405 59.22l.602.904h1.135l.514-.904-.55-.955H73.99l-.585.955zm.602 5.669v-1.595l-.885.497-.461-.268v-.565l1.328-.744v-1.046l-.956.62v-1.115l-.921.53v1.524l-.496.317-.425-.281v-1.011l-1.399.778-.603-.246v-.639l1.453-.796-.903-.481v-.582l.514-.284 1.311.778.902-.53-.018-.019-.938-.53.903-.568-.903-.53-1.311.762-.479-.213v-.584l.885-.496-1.416-.763v-.638l.55-.283 1.397.797V55.66l.427-.284.513.302v1.541l.939.532V56.67l.974.531v-1.045l-1.328-.762v-.55l.461-.265.885.494V53.48l.515-.336.514.336v1.593l.922-.514.459.303v.496l-1.363.779v1.045l.939-.567v1.152l.957-.532v-1.647l.46-.213.496.213v1.046l1.436-.779.494.301v.602l-1.398.798.867.496v.566l-.46.248-1.345-.797-.94.584.903.566-.921.532.958.495 1.345-.743.426.301v.549l-.85.479 1.345.798v.62l-.566.265-1.329-.743v.992l-.478.265-.461-.265v-1.506l-.973-.549v1.044l-.904-.566v1.044l1.328.744v.603l-.461.229-.885-.495v1.594l-.514.319-.516-.336zM31.924 58.972l.603.902h1.134l.513-.902-.548-.957H32.51l-.586.957zm.602 5.667v-1.595l-.886.496-.46-.265v-.568l1.329-.743V60.92l-.957.62v-1.117l-.921.532v1.522l-.496.319-.425-.284v-1.009l-1.398.779-.603-.248v-.638l1.452-.797-.903-.479v-.585l.514-.284 1.31.781.903-.532-.017-.017-.939-.533.903-.566-.903-.531-1.311.762-.478-.213v-.585l.885-.494-1.417-.763v-.638l.549-.283 1.399.798V55.41l.425-.284.513.301v1.541l.94.532v-1.08l.975.532v-1.046l-1.329-.762v-.548l.46-.268.886.497V53.23l.514-.337.514.337v1.595l.921-.515.46.302v.497l-1.364.778v1.046l.939-.567v1.15l.957-.531V55.34l.459-.213.496.213v1.044l1.435-.778.496.301v.604l-1.4.796.869.496v.566l-.46.248-1.346-.798-.939.585.903.568-.921.53.957.497 1.346-.746.425.301v.55l-.85.479 1.346.796v.62l-.567.266-1.329-.743v.991l-.479.266-.46-.266v-1.505l-.974-.55v1.046l-.904-.567v1.046l1.329.743v.601l-.46.23-.886-.495v1.595l-.514.319-.513-.337zM60.16 59.222l.604.902h1.134l.514-.902-.55-.956h-1.116l-.586.956zm.604 5.667v-1.595l-.886.497-.462-.266v-.567l1.329-.744V61.17l-.957.62v-1.117l-.921.532v1.522l-.495.319-.426-.283v-1.009l-1.399.778-.602-.248v-.637l1.452-.798-.902-.479v-.584l.514-.284 1.31.78.904-.532-.019-.017-.939-.532.902-.567-.902-.531-1.311.762-.478-.212v-.585l.885-.495-1.416-.763v-.638l.55-.283 1.399.798V55.66l.425-.284.514.301v1.541l.939.533V56.67l.974.532v-1.046l-1.329-.761v-.549l.462-.266.886.495v-1.594l.514-.337.514.337v1.594l.921-.515.459.302v.497l-1.363.779v1.045l.94-.567v1.151l.956-.53V55.59l.46-.213.497.213v1.045l1.435-.779.496.301v.604l-1.4.797.868.496v.565l-.46.248-1.346-.797-.939.585.903.567-.921.53.957.497 1.346-.745.425.301v.549l-.85.48 1.346.796v.62l-.567.265-1.328-.743v.992l-.478.265-.461-.265v-1.506l-.974-.549v1.046l-.904-.568v1.046l1.329.744v.601l-.461.229-.885-.495v1.594l-.514.319-.516-.336zM45.667 75.589l.603.902h1.134l.513-.902-.549-.956h-1.116l-.585.956zm.603 5.667v-1.595l-.886.497-.46-.266v-.567l1.329-.744v-1.046l-.957.622V77.04l-.921.532v1.522l-.496.319-.425-.281v-1.011l-1.399.779-.603-.248v-.637l1.452-.798-.903-.478v-.584l.514-.282 1.31.778.904-.532-.018-.017-.938-.532.902-.568-.902-.53-1.311.763-.479-.213v-.583l.885-.497-1.417-.763v-.637l.549-.284 1.399.798v-1.029l.425-.283.513.302v1.541l.94.533v-1.082l.974.532v-1.046l-1.329-.76v-.55l.46-.267.886.496v-1.595l.514-.336.514.336v1.595l.921-.514.459.301v.497l-1.363.779v1.044l.939-.565v1.15l.957-.53v-1.648l.46-.214.496.214v1.047l1.435-.779.496.299v.602l-1.4.8.868.495v.565l-.46.249-1.346-.796-.939.583.903.567-.921.53.957.497 1.346-.743.426.299v.549l-.851.48 1.346.796v.62l-.566.265-1.329-.743v.994l-.479.263-.46-.263v-1.508l-.974-.549v1.046l-.904-.568v1.045l1.329.743v.604l-.46.229-.885-.495v1.594l-.514.319-.513-.337zM18.055 75.589l.602.902h1.134l.513-.902-.549-.956h-1.116l-.584.956zm.602 5.667v-1.595l-.886.497-.461-.266v-.567l1.329-.744v-1.046l-.957.622V77.04l-.921.532v1.522l-.496.319-.425-.281v-1.011l-1.399.779-.602-.248v-.637l1.453-.798-.904-.478v-.584l.514-.282 1.311.778.903-.532-.018-.017-.938-.532.903-.568-.903-.53-1.312.763-.478-.213v-.583l.885-.497-1.417-.763v-.637l.549-.284 1.399.798v-1.029l.425-.283.513.302v1.541l.939.533v-1.082l.974.532v-1.046l-1.329-.76v-.55l.461-.267.886.496v-1.595l.514-.336.514.336v1.595l.921-.514.46.301v.497l-1.364.779v1.044l.939-.565v1.15l.957-.53v-1.648l.46-.214.497.214v1.047l1.435-.779.496.299v.602l-1.4.8.868.495v.565l-.46.249-1.345-.796-.939.583.903.567-.921.53.957.497 1.345-.743.426.299v.549l-.85.48 1.345.796v.62l-.566.265-1.329-.743v.994l-.478.263-.46-.263v-1.508l-.974-.549v1.046l-.904-.568v1.045l1.329.743v.604l-.461.229-.885-.495v1.594l-.514.319-.514-.337zM73.03 75.589l.603.902h1.134l.513-.902-.549-.956h-1.115l-.586.956zm.603 5.667v-1.595l-.887.497-.46-.266v-.567l1.329-.744v-1.046l-.958.622V77.04l-.921.532v1.522l-.494.319-.427-.281v-1.011l-1.397.779-.604-.248v-.637l1.452-.798-.903-.478v-.584l.514-.282 1.312.778.903-.532-.018-.017-.939-.532.902-.568-.902-.53-1.311.763-.478-.213v-.583l.885-.497-1.417-.763v-.637l.549-.284 1.399.798v-1.029l.426-.283.513.302v1.541l.939.533v-1.082l.975.532v-1.046l-1.329-.76v-.55l.46-.267.887.496v-1.595l.514-.336.514.336v1.595l.921-.514.461.301v.497l-1.365.779v1.044l.939-.565v1.15l.957-.53v-1.648l.46-.214.496.214v1.047l1.435-.779.496.299v.602l-1.4.8.869.495v.565l-.461.249-1.346-.796-.938.583.903.567-.921.53.956.497 1.346-.743.425.299v.549l-.85.48 1.346.796v.62l-.566.265-1.328-.743v.994l-.479.263-.46-.263v-1.508l-.975-.549v1.046l-.904-.568v1.045l1.329.743v.604l-.46.229-.887-.495v1.594l-.514.319-.513-.337zM31.424 92.081l.603.902h1.134l.513-.902-.549-.956h-1.116l-.585.956zm.603 5.668v-1.596l-.886.497-.46-.266v-.567l1.329-.743v-1.047l-.957.622v-1.117l-.921.533v1.522l-.496.319-.425-.282v-1.011l-1.399.779-.602-.249v-.637l1.452-.798-.903-.478v-.585l.514-.282 1.311.779.904-.533-.018-.017-.938-.532.903-.567-.903-.531-1.311.763-.478-.213v-.583l.885-.497-1.416-.762v-.638l.549-.283 1.399.797v-1.027l.425-.285.513.303v1.541l.939.532v-1.082l.975.532v-1.046l-1.329-.76v-.55l.46-.267.886.497v-1.596l.514-.336.514.336v1.596l.921-.514.459.301v.496l-1.364.779v1.044l.939-.565v1.15l.957-.53V88.45l.459-.215.497.215v1.046l1.435-.779.496.299v.602l-1.4.8.868.495v.565l-.46.249-1.345-.796-.94.583.903.567-.921.53.957.497 1.345-.743.426.301v.547l-.85.48 1.345.796v.62l-.566.266-1.329-.744v.994l-.479.265-.46-.265v-1.508l-.974-.549v1.046l-.904-.567v1.044l1.329.745v.602l-.46.231-.885-.497v1.594l-.514.319-.515-.336zM59.786 92.081l.602.902h1.134l.514-.902-.549-.956h-1.115l-.586.956zm.602 5.668v-1.596l-.886.497-.46-.266v-.567l1.329-.743v-1.047l-.957.622v-1.117l-.921.533v1.522l-.496.319-.425-.282v-1.011l-1.399.779-.603-.249v-.637l1.452-.798-.903-.478v-.585l.514-.282 1.312.779.902-.533-.017-.017-.938-.532.903-.567-.903-.531-1.312.763-.479-.213v-.583l.886-.497-1.417-.762v-.638l.549-.283 1.4.797v-1.027l.426-.285.513.303v1.541l.938.532v-1.082l.976.532v-1.046l-1.329-.76v-.55l.46-.267.886.497v-1.596l.515-.336.514.336v1.596l.921-.514.461.301v.496l-1.365.779v1.044l.94-.565v1.15l.957-.53V88.45l.46-.215.496.215v1.046l1.435-.779.496.299v.602l-1.4.8.868.495v.565l-.46.249-1.346-.796-.938.583.902.567-.921.53.957.497 1.346-.743.426.301v.547l-.851.48 1.346.796v.62l-.566.266-1.329-.744v.994l-.479.265-.459-.265v-1.508l-.975-.549v1.046l-.904-.567v1.044l1.329.745v.602l-.461.231-.885-.497v1.594l-.514.319-.517-.336zM45.667 92.081l.603.902h1.134l.513-.902-.549-.956h-1.116l-.585.956zm.603 5.668v-1.596l-.886.497-.46-.266v-.567l1.329-.743v-1.047l-.957.622v-1.117l-.921.533v1.522l-.496.319-.425-.282v-1.011l-1.399.779-.603-.249v-.637l1.452-.798-.903-.478v-.585l.514-.282 1.31.779.904-.533-.018-.017-.938-.532.902-.567-.902-.531-1.311.763-.479-.213v-.583l.885-.497-1.417-.762v-.638l.549-.283 1.399.797v-1.027l.425-.285.513.303v1.541l.94.532v-1.082l.974.532v-1.046l-1.329-.76v-.55l.46-.267.886.497v-1.596l.514-.336.514.336v1.596l.921-.514.459.301v.496l-1.363.779v1.044l.939-.565v1.15l.957-.53V88.45l.46-.215.496.215v1.046l1.435-.779.496.299v.602l-1.4.8.868.495v.565l-.46.249-1.346-.796-.939.583.903.567-.921.53.957.497 1.346-.743.426.301v.547l-.851.48 1.346.796v.62l-.566.266-1.329-.744v.994l-.479.265-.46-.265v-1.508l-.974-.549v1.046l-.904-.567v1.044l1.329.745v.602l-.46.231-.885-.497v1.594l-.514.319-.513-.336zM18.055 92.081l.602.902h1.134l.513-.902-.549-.956h-1.116l-.584.956zm.602 5.668v-1.596l-.886.497-.461-.266v-.567l1.329-.743v-1.047l-.957.622v-1.117l-.921.533v1.522l-.496.319-.425-.282v-1.011l-1.399.779-.602-.249v-.637l1.453-.798-.904-.478v-.585l.514-.282 1.311.779.903-.533-.018-.017-.938-.532.903-.567-.903-.531-1.312.763-.478-.213v-.583l.885-.497-1.417-.762v-.638l.549-.283 1.399.797v-1.027l.425-.285.513.303v1.541l.939.532v-1.082l.974.532v-1.046l-1.329-.76v-.55l.461-.267.886.497v-1.596l.514-.336.514.336v1.596l.921-.514.46.301v.496l-1.364.779v1.044l.939-.565v1.15l.957-.53V88.45l.46-.215.497.215v1.046l1.435-.779.496.299v.602l-1.4.8.868.495v.565l-.46.249-1.345-.796-.939.583.903.567-.921.53.957.497 1.345-.743.426.301v.547l-.85.48 1.345.796v.62l-.566.266-1.329-.744v.994l-.478.265-.46-.265v-1.508l-.974-.549v1.046l-.904-.567v1.044l1.329.745v.602l-.461.231-.885-.497v1.594l-.514.319-.514-.336zM73.03 92.081l.603.902h1.134l.513-.902-.549-.956h-1.115l-.586.956zm.603 5.668v-1.596l-.887.497-.46-.266v-.567l1.329-.743v-1.047l-.958.622v-1.117l-.921.533v1.522l-.494.319-.427-.282v-1.011l-1.397.779-.604-.249v-.637l1.452-.798-.903-.478v-.585l.514-.282 1.312.779.903-.533-.018-.017-.939-.532.902-.567-.902-.531-1.311.763-.478-.213v-.583l.885-.497-1.417-.762v-.638l.549-.283 1.399.797v-1.027l.426-.285.513.303v1.541l.939.532v-1.082l.975.532v-1.046l-1.329-.76v-.55l.46-.267.887.497v-1.596l.514-.336.514.336v1.596l.921-.514.461.301v.496l-1.365.779v1.044l.939-.565v1.15l.957-.53V88.45l.46-.215.496.215v1.046l1.435-.779.496.299v.602l-1.4.8.869.495v.565l-.461.249-1.346-.796-.938.583.903.567-.921.53.956.497 1.346-.743.425.301v.547l-.85.48 1.346.796v.62l-.566.266-1.328-.744v.994l-.479.265-.46-.265v-1.508l-.975-.549v1.046l-.904-.567v1.044l1.329.745v.602l-.46.231-.886-.497v1.594l-.514.319-.514-.336z"/>
</svg>