<?xml version="1.0" encoding="utf-8"?>
<!-- Generator: Adobe Illustrator 17.1.0, SVG Export Plug-In . SVG Version: 6.00 Build 0)  -->
<!DOCTYPE svg PUBLIC "-//W3C//DTD SVG 1.1//EN" "http://www.w3.org/Graphics/SVG/1.1/DTD/svg11.dtd">
<svg version="1.1" id="Layer_1" xmlns="http://www.w3.org/2000/svg" xmlns:xlink="http://www.w3.org/1999/xlink" x="0px" y="0px"
	 viewBox="0 0 100 100" enable-background="new 0 0 100 100" xml:space="preserve">
<path d="M51.078,3C40.28,3,31.541,11.746,31.541,22.539c0,0.244,0.036,0.458,0.047,0.703c-0.245-0.016-0.459-0.047-0.704-0.047
	c-5.809,0-10.495,4.686-10.495,10.495v0.234c-0.831-0.249-1.667-0.421-2.577-0.421c-4.983,0-9.042,4.017-9.042,8.996
	c0,4.983,4.059,6.888,9.042,6.888H75.77c8.542,0,15.462-6.919,15.462-15.462c0-8.542-6.92-15.462-15.462-15.462
	c-1.93,0-3.785,0.388-5.482,1.031C68.814,10.157,60.823,3,51.078,3L51.078,3z"/>
<path fill="#020202" d="M17.93,59.097l0.602,0.902h1.134l0.513-0.902l-0.549-0.957h-1.116L17.93,59.097z M18.533,64.764v-1.595
	l-0.886,0.497l-0.46-0.266v-0.568l1.329-0.743v-1.044l-0.957,0.62v-1.117l-0.921,0.532v1.522l-0.495,0.319l-0.426-0.284V61.63
	l-1.399,0.778l-0.603-0.248v-0.637l1.453-0.798l-0.903-0.479v-0.585l0.514-0.283l1.311,0.78l0.903-0.532l-0.018-0.017l-0.938-0.532
	l0.902-0.567l-0.902-0.531l-1.311,0.762l-0.478-0.212v-0.585l0.885-0.495l-1.417-0.763v-0.638l0.549-0.283l1.398,0.798v-1.027
	l0.426-0.284l0.513,0.301v1.541l0.939,0.532v-1.081l0.975,0.532v-1.046l-1.329-0.762v-0.548l0.46-0.267l0.886,0.496v-1.594
	l0.514-0.338l0.514,0.338v1.594l0.921-0.515l0.46,0.302v0.497l-1.364,0.779v1.045l0.939-0.567v1.151l0.957-0.531v-1.647l0.459-0.213
	l0.497,0.213v1.045l1.435-0.779l0.495,0.301v0.604l-1.399,0.797l0.868,0.495v0.566l-0.46,0.248l-1.345-0.797l-0.94,0.585
	l0.904,0.567l-0.921,0.53l0.957,0.497l1.345-0.745l0.425,0.301v0.549l-0.85,0.48l1.345,0.795v0.62l-0.566,0.266l-1.329-0.743v0.991
	l-0.478,0.266l-0.46-0.266v-1.505l-0.974-0.55v1.047l-0.904-0.568v1.046l1.329,0.744v0.6l-0.46,0.23l-0.885-0.495v1.593l-0.514,0.32
	L18.533,64.764z"/>
<path fill="#020202" d="M31.424,75.589l0.603,0.902h1.134l0.513-0.902l-0.549-0.956h-1.116L31.424,75.589z M32.027,81.256v-1.595
	l-0.886,0.497l-0.46-0.266v-0.567l1.329-0.744v-1.046l-0.957,0.622V77.04l-0.921,0.532v1.522l-0.496,0.319l-0.425-0.281v-1.011
	L27.811,78.9l-0.602-0.248v-0.637l1.452-0.798l-0.903-0.478v-0.584l0.514-0.282l1.311,0.778l0.904-0.532l-0.018-0.017l-0.938-0.532
	l0.903-0.568l-0.903-0.53l-1.311,0.763l-0.478-0.213v-0.583l0.885-0.497l-1.416-0.763v-0.637l0.549-0.284l1.399,0.798v-1.029
	l0.425-0.283l0.513,0.302v1.541l0.939,0.533v-1.082l0.975,0.532v-1.046l-1.329-0.76v-0.55l0.46-0.267l0.886,0.496v-1.595
	l0.514-0.336l0.514,0.336v1.595l0.921-0.514l0.459,0.301v0.497l-1.364,0.779v1.044l0.939-0.565v1.15l0.957-0.53v-1.648l0.459-0.214
	l0.497,0.214v1.047l1.435-0.779l0.496,0.299v0.602l-1.4,0.8l0.868,0.495v0.565l-0.46,0.249l-1.345-0.796l-0.94,0.583l0.903,0.567
	l-0.921,0.53l0.957,0.497l1.345-0.743l0.426,0.299v0.549l-0.85,0.48l1.345,0.796v0.62l-0.566,0.265l-1.329-0.743v0.994l-0.478,0.263
	l-0.46-0.263v-1.508l-0.974-0.549v1.046l-0.904-0.568v1.045l1.329,0.743v0.604l-0.46,0.229l-0.885-0.495v1.594l-0.514,0.319
	L32.027,81.256z"/>
<path fill="#020202" d="M46.417,59.222l0.603,0.902h1.134l0.513-0.902l-0.548-0.956h-1.116L46.417,59.222z M47.02,64.889v-1.595
	l-0.886,0.497l-0.46-0.266v-0.567l1.329-0.744V61.17l-0.957,0.62v-1.117l-0.921,0.532v1.522l-0.496,0.319l-0.425-0.283v-1.009
	l-1.398,0.778l-0.603-0.248v-0.637l1.453-0.798l-0.903-0.479v-0.584l0.514-0.284l1.31,0.78l0.903-0.532l-0.017-0.017l-0.939-0.532
	l0.903-0.567l-0.903-0.531l-1.311,0.762l-0.479-0.212v-0.585l0.886-0.495l-1.417-0.763v-0.638l0.549-0.283l1.399,0.798v-1.027
	l0.425-0.284l0.513,0.301v1.541l0.939,0.533V56.67l0.974,0.532v-1.046l-1.329-0.761v-0.549l0.46-0.266l0.886,0.495v-1.594
	l0.514-0.337l0.514,0.337v1.594l0.921-0.515l0.46,0.302v0.497l-1.364,0.779v1.045l0.939-0.567v1.151l0.957-0.53V55.59l0.46-0.213
	l0.496,0.213v1.045l1.435-0.779l0.495,0.301v0.604l-1.399,0.797l0.868,0.496v0.565l-0.461,0.248l-1.345-0.797l-0.939,0.585
	l0.903,0.567l-0.921,0.53l0.957,0.497l1.345-0.745l0.427,0.301v0.549l-0.851,0.48l1.345,0.796v0.62l-0.565,0.265l-1.329-0.743v0.992
	l-0.479,0.265l-0.46-0.265v-1.506l-0.974-0.549v1.046l-0.904-0.568v1.046l1.329,0.744v0.601l-0.461,0.229l-0.885-0.495v1.594
	l-0.514,0.319L47.02,64.889z"/>
<path fill="#020202" d="M59.786,75.589l0.602,0.902h1.134l0.514-0.902l-0.549-0.956h-1.115L59.786,75.589z M60.388,81.256v-1.595
	l-0.886,0.497l-0.46-0.266v-0.567l1.329-0.744v-1.046l-0.957,0.622V77.04l-0.921,0.532v1.522l-0.496,0.319l-0.425-0.281v-1.011
	L56.173,78.9l-0.603-0.248v-0.637l1.452-0.798l-0.903-0.478v-0.584l0.514-0.282l1.312,0.778l0.902-0.532l-0.017-0.017l-0.938-0.532
	l0.903-0.568l-0.903-0.53l-1.312,0.763l-0.479-0.213v-0.583l0.886-0.497l-1.417-0.763v-0.637l0.549-0.284l1.4,0.798v-1.029
	l0.426-0.283l0.513,0.302v1.541l0.938,0.533v-1.082l0.976,0.532v-1.046l-1.329-0.76v-0.55l0.46-0.267l0.886,0.496v-1.595
	l0.515-0.336l0.514,0.336v1.595l0.921-0.514l0.461,0.301v0.497l-1.365,0.779v1.044l0.94-0.565v1.15l0.957-0.53v-1.648l0.46-0.214
	l0.496,0.214v1.047l1.435-0.779l0.496,0.299v0.602l-1.4,0.8l0.868,0.495v0.565l-0.46,0.249l-1.346-0.796l-0.938,0.583l0.902,0.567
	l-0.921,0.53l0.957,0.497l1.346-0.743l0.426,0.299v0.549l-0.851,0.48l1.346,0.796v0.62l-0.566,0.265l-1.329-0.743v0.994
	l-0.479,0.263l-0.459-0.263v-1.508l-0.975-0.549v1.046l-0.904-0.568v1.045l1.329,0.743v0.604l-0.461,0.229l-0.885-0.495v1.594
	l-0.514,0.319L60.388,81.256z"/>
<path fill="#020202" d="M73.405,59.22l0.602,0.904h1.135l0.514-0.904l-0.55-0.955h-1.116L73.405,59.22z M74.007,64.889v-1.595
	l-0.885,0.497l-0.461-0.268v-0.565l1.328-0.744v-1.046l-0.956,0.62v-1.115l-0.921,0.53v1.524l-0.496,0.317l-0.425-0.281v-1.011
	l-1.399,0.778l-0.603-0.246v-0.639l1.453-0.796l-0.903-0.481v-0.582l0.514-0.284l1.311,0.778l0.902-0.53l-0.018-0.019l-0.938-0.53
	l0.903-0.568l-0.903-0.53l-1.311,0.762l-0.479-0.213v-0.584l0.885-0.496l-1.416-0.763v-0.638l0.55-0.283l1.397,0.797V55.66
	l0.427-0.284l0.513,0.302v1.541l0.939,0.532V56.67l0.974,0.531v-1.045l-1.328-0.762v-0.55l0.461-0.265l0.885,0.494v-1.593
	l0.515-0.336l0.514,0.336v1.593l0.922-0.514l0.459,0.303v0.496l-1.363,0.779v1.045l0.939-0.567v1.152l0.957-0.532v-1.647l0.46-0.213
	l0.496,0.213v1.046l1.436-0.779l0.494,0.301v0.602l-1.398,0.798l0.867,0.496v0.566l-0.46,0.248l-1.345-0.797l-0.94,0.584
	l0.903,0.566l-0.921,0.532l0.958,0.495l1.345-0.743l0.426,0.301v0.549l-0.85,0.479l1.345,0.798v0.62l-0.566,0.265l-1.329-0.743
	v0.992l-0.478,0.265l-0.461-0.265v-1.506l-0.973-0.549v1.044l-0.904-0.566v1.044l1.328,0.744v0.603l-0.461,0.229l-0.885-0.495v1.594
	l-0.514,0.319L74.007,64.889z"/>
<path fill="#020202" d="M31.924,58.972l0.603,0.902h1.134l0.513-0.902l-0.548-0.957h-1.116L31.924,58.972z M32.526,64.639v-1.595
	l-0.886,0.496l-0.46-0.265v-0.568l1.329-0.743V60.92l-0.957,0.62v-1.117l-0.921,0.532v1.522l-0.496,0.319l-0.425-0.284v-1.009
	l-1.398,0.779l-0.603-0.248v-0.638l1.452-0.797l-0.903-0.479v-0.585l0.514-0.284l1.31,0.781l0.903-0.532l-0.017-0.017l-0.939-0.533
	l0.903-0.566l-0.903-0.531l-1.311,0.762l-0.478-0.213v-0.585l0.885-0.494l-1.417-0.763v-0.638l0.549-0.283l1.399,0.798v-1.027
	l0.425-0.284l0.513,0.301v1.541l0.94,0.532V56.42l0.975,0.532v-1.046l-1.329-0.762v-0.548l0.46-0.268l0.886,0.497v-1.595
	l0.514-0.337l0.514,0.337v1.595l0.921-0.515l0.46,0.302v0.497l-1.364,0.778v1.046l0.939-0.567v1.15l0.957-0.531V55.34l0.459-0.213
	l0.496,0.213v1.044l1.435-0.778l0.496,0.301v0.604l-1.4,0.796l0.869,0.496v0.566l-0.46,0.248l-1.346-0.798l-0.939,0.585l0.903,0.568
	l-0.921,0.53l0.957,0.497l1.346-0.746l0.425,0.301v0.55l-0.85,0.479l1.346,0.796v0.62l-0.567,0.266l-1.329-0.743v0.991l-0.479,0.266
	l-0.46-0.266v-1.505l-0.974-0.55v1.046l-0.904-0.567v1.046l1.329,0.743v0.601l-0.46,0.23l-0.886-0.495v1.595l-0.514,0.319
	L32.526,64.639z"/>
<path fill="#020202" d="M60.16,59.222l0.604,0.902h1.134l0.514-0.902l-0.55-0.956h-1.116L60.16,59.222z M60.764,64.889v-1.595
	l-0.886,0.497l-0.462-0.266v-0.567l1.329-0.744V61.17l-0.957,0.62v-1.117l-0.921,0.532v1.522l-0.495,0.319l-0.426-0.283v-1.009
	l-1.399,0.778l-0.602-0.248v-0.637l1.452-0.798l-0.902-0.479v-0.584l0.514-0.284l1.31,0.78l0.904-0.532l-0.019-0.017l-0.939-0.532
	l0.902-0.567l-0.902-0.531l-1.311,0.762l-0.478-0.212v-0.585l0.885-0.495l-1.416-0.763v-0.638l0.55-0.283l1.399,0.798v-1.027
	l0.425-0.284l0.514,0.301v1.541l0.939,0.533V56.67l0.974,0.532v-1.046l-1.329-0.761v-0.549l0.462-0.266l0.886,0.495v-1.594
	l0.514-0.337l0.514,0.337v1.594l0.921-0.515l0.459,0.302v0.497l-1.363,0.779v1.045l0.94-0.567v1.151l0.956-0.53V55.59l0.46-0.213
	l0.497,0.213v1.045l1.435-0.779l0.496,0.301v0.604l-1.4,0.797l0.868,0.496v0.565l-0.46,0.248l-1.346-0.797l-0.939,0.585l0.903,0.567
	l-0.921,0.53l0.957,0.497l1.346-0.745l0.425,0.301v0.549l-0.85,0.48l1.346,0.796v0.62l-0.567,0.265l-1.328-0.743v0.992l-0.478,0.265
	l-0.461-0.265v-1.506l-0.974-0.549v1.046l-0.904-0.568v1.046l1.329,0.744v0.601l-0.461,0.229l-0.885-0.495v1.594l-0.514,0.319
	L60.764,64.889z"/>
<path fill="#020202" d="M45.667,75.589l0.603,0.902h1.134l0.513-0.902l-0.549-0.956h-1.116L45.667,75.589z M46.27,81.256v-1.595
	l-0.886,0.497l-0.46-0.266v-0.567l1.329-0.744v-1.046l-0.957,0.622V77.04l-0.921,0.532v1.522l-0.496,0.319l-0.425-0.281v-1.011
	L42.055,78.9l-0.603-0.248v-0.637l1.452-0.798l-0.903-0.478v-0.584l0.514-0.282l1.31,0.778l0.904-0.532l-0.018-0.017l-0.938-0.532
	l0.902-0.568l-0.902-0.53l-1.311,0.763l-0.479-0.213v-0.583l0.885-0.497l-1.417-0.763v-0.637l0.549-0.284l1.399,0.798v-1.029
	l0.425-0.283l0.513,0.302v1.541l0.94,0.533v-1.082l0.974,0.532v-1.046l-1.329-0.76v-0.55l0.46-0.267l0.886,0.496v-1.595l0.514-0.336
	l0.514,0.336v1.595l0.921-0.514l0.459,0.301v0.497l-1.363,0.779v1.044l0.939-0.565v1.15l0.957-0.53v-1.648l0.46-0.214l0.496,0.214
	v1.047l1.435-0.779l0.496,0.299v0.602l-1.4,0.8l0.868,0.495v0.565l-0.46,0.249l-1.346-0.796l-0.939,0.583l0.903,0.567l-0.921,0.53
	l0.957,0.497l1.346-0.743l0.426,0.299v0.549l-0.851,0.48l1.346,0.796v0.62l-0.566,0.265l-1.329-0.743v0.994l-0.479,0.263
	l-0.46-0.263v-1.508l-0.974-0.549v1.046l-0.904-0.568v1.045l1.329,0.743v0.604l-0.46,0.229l-0.885-0.495v1.594l-0.514,0.319
	L46.27,81.256z"/>
<path fill="#020202" d="M18.055,75.589l0.602,0.902h1.134l0.513-0.902l-0.549-0.956h-1.116L18.055,75.589z M18.657,81.256v-1.595
	l-0.886,0.497l-0.461-0.266v-0.567l1.329-0.744v-1.046l-0.957,0.622V77.04l-0.921,0.532v1.522l-0.496,0.319l-0.425-0.281v-1.011
	L14.441,78.9l-0.602-0.248v-0.637l1.453-0.798l-0.904-0.478v-0.584l0.514-0.282l1.311,0.778l0.903-0.532l-0.018-0.017L16.16,75.57
	l0.903-0.568l-0.903-0.53l-1.312,0.763l-0.478-0.213v-0.583l0.885-0.497l-1.417-0.763v-0.637l0.549-0.284l1.399,0.798v-1.029
	l0.425-0.283l0.513,0.302v1.541l0.939,0.533v-1.082l0.974,0.532v-1.046l-1.329-0.76v-0.55l0.461-0.267l0.886,0.496v-1.595
	l0.514-0.336l0.514,0.336v1.595l0.921-0.514l0.46,0.301v0.497l-1.364,0.779v1.044l0.939-0.565v1.15l0.957-0.53v-1.648l0.46-0.214
	l0.497,0.214v1.047l1.435-0.779l0.496,0.299v0.602l-1.4,0.8l0.868,0.495v0.565l-0.46,0.249l-1.345-0.796l-0.939,0.583l0.903,0.567
	l-0.921,0.53l0.957,0.497l1.345-0.743l0.426,0.299v0.549l-0.85,0.48l1.345,0.796v0.62l-0.566,0.265l-1.329-0.743v0.994l-0.478,0.263
	l-0.46-0.263v-1.508l-0.974-0.549v1.046l-0.904-0.568v1.045l1.329,0.743v0.604l-0.461,0.229l-0.885-0.495v1.594l-0.514,0.319
	L18.657,81.256z"/>
<path fill="#020202" d="M73.03,75.589l0.603,0.902h1.134l0.513-0.902l-0.549-0.956h-1.115L73.03,75.589z M73.633,81.256v-1.595
	l-0.887,0.497l-0.46-0.266v-0.567l1.329-0.744v-1.046l-0.958,0.622V77.04l-0.921,0.532v1.522l-0.494,0.319l-0.427-0.281v-1.011
	L69.418,78.9l-0.604-0.248v-0.637l1.452-0.798l-0.903-0.478v-0.584l0.514-0.282l1.312,0.778l0.903-0.532l-0.018-0.017l-0.939-0.532
	l0.902-0.568l-0.902-0.53l-1.311,0.763l-0.478-0.213v-0.583l0.885-0.497l-1.417-0.763v-0.637l0.549-0.284l1.399,0.798v-1.029
	l0.426-0.283l0.513,0.302v1.541l0.939,0.533v-1.082l0.975,0.532v-1.046l-1.329-0.76v-0.55l0.46-0.267l0.887,0.496v-1.595
	l0.514-0.336l0.514,0.336v1.595l0.921-0.514l0.461,0.301v0.497l-1.365,0.779v1.044l0.939-0.565v1.15l0.957-0.53v-1.648l0.46-0.214
	l0.496,0.214v1.047l1.435-0.779l0.496,0.299v0.602l-1.4,0.8l0.869,0.495v0.565l-0.461,0.249l-1.346-0.796l-0.938,0.583l0.903,0.567
	l-0.921,0.53l0.956,0.497l1.346-0.743l0.425,0.299v0.549l-0.85,0.48l1.346,0.796v0.62l-0.566,0.265l-1.328-0.743v0.994l-0.479,0.263
	l-0.46-0.263v-1.508l-0.975-0.549v1.046l-0.904-0.568v1.045l1.329,0.743v0.604l-0.46,0.229L74.66,79.68v1.594l-0.514,0.319
	L73.633,81.256z"/>
<path fill="#020202" d="M31.424,92.081l0.603,0.902h1.134l0.513-0.902l-0.549-0.956h-1.116L31.424,92.081z M32.027,97.749v-1.596
	l-0.886,0.497l-0.46-0.266v-0.567l1.329-0.743v-1.047l-0.957,0.622v-1.117l-0.921,0.533v1.522l-0.496,0.319l-0.425-0.282v-1.011
	l-1.399,0.779l-0.602-0.249v-0.637l1.452-0.798l-0.903-0.478v-0.585l0.514-0.282l1.311,0.779l0.904-0.533l-0.018-0.017l-0.938-0.532
	l0.903-0.567l-0.903-0.531l-1.311,0.763l-0.478-0.213v-0.583l0.885-0.497l-1.416-0.762v-0.638l0.549-0.283l1.399,0.797v-1.027
	l0.425-0.285l0.513,0.303v1.541l0.939,0.532v-1.082l0.975,0.532v-1.046l-1.329-0.76v-0.55l0.46-0.267l0.886,0.497v-1.596
	l0.514-0.336l0.514,0.336v1.596l0.921-0.514l0.459,0.301v0.496l-1.364,0.779v1.044l0.939-0.565v1.15l0.957-0.53V88.45l0.459-0.215
	l0.497,0.215v1.046l1.435-0.779l0.496,0.299v0.602l-1.4,0.8l0.868,0.495v0.565l-0.46,0.249l-1.345-0.796l-0.94,0.583l0.903,0.567
	l-0.921,0.53l0.957,0.497l1.345-0.743l0.426,0.301v0.547l-0.85,0.48l1.345,0.796v0.62l-0.566,0.266l-1.329-0.744v0.994L35.41,95.89
	l-0.46-0.265v-1.508l-0.974-0.549v1.046l-0.904-0.567v1.044l1.329,0.745v0.602l-0.46,0.231l-0.885-0.497v1.594l-0.514,0.319
	L32.027,97.749z"/>
<path fill="#020202" d="M59.786,92.081l0.602,0.902h1.134l0.514-0.902l-0.549-0.956h-1.115L59.786,92.081z M60.388,97.749v-1.596
	l-0.886,0.497l-0.46-0.266v-0.567l1.329-0.743v-1.047l-0.957,0.622v-1.117l-0.921,0.533v1.522l-0.496,0.319l-0.425-0.282v-1.011
	l-1.399,0.779l-0.603-0.249v-0.637l1.452-0.798l-0.903-0.478v-0.585l0.514-0.282l1.312,0.779l0.902-0.533l-0.017-0.017l-0.938-0.532
	l0.903-0.567l-0.903-0.531l-1.312,0.763l-0.479-0.213v-0.583l0.886-0.497l-1.417-0.762v-0.638l0.549-0.283l1.4,0.797v-1.027
	l0.426-0.285l0.513,0.303v1.541l0.938,0.532v-1.082l0.976,0.532v-1.046l-1.329-0.76v-0.55l0.46-0.267l0.886,0.497v-1.596
	l0.515-0.336l0.514,0.336v1.596l0.921-0.514l0.461,0.301v0.496l-1.365,0.779v1.044l0.94-0.565v1.15l0.957-0.53V88.45l0.46-0.215
	l0.496,0.215v1.046l1.435-0.779l0.496,0.299v0.602l-1.4,0.8l0.868,0.495v0.565l-0.46,0.249l-1.346-0.796l-0.938,0.583l0.902,0.567
	l-0.921,0.53l0.957,0.497l1.346-0.743l0.426,0.301v0.547l-0.851,0.48l1.346,0.796v0.62l-0.566,0.266l-1.329-0.744v0.994
	l-0.479,0.265l-0.459-0.265v-1.508l-0.975-0.549v1.046l-0.904-0.567v1.044l1.329,0.745v0.602l-0.461,0.231l-0.885-0.497v1.594
	l-0.514,0.319L60.388,97.749z"/>
<path fill="#020202" d="M45.667,92.081l0.603,0.902h1.134l0.513-0.902l-0.549-0.956h-1.116L45.667,92.081z M46.27,97.749v-1.596
	l-0.886,0.497l-0.46-0.266v-0.567l1.329-0.743v-1.047l-0.957,0.622v-1.117l-0.921,0.533v1.522l-0.496,0.319l-0.425-0.282v-1.011
	l-1.399,0.779l-0.603-0.249v-0.637l1.452-0.798l-0.903-0.478v-0.585l0.514-0.282l1.31,0.779l0.904-0.533l-0.018-0.017l-0.938-0.532
	l0.902-0.567l-0.902-0.531l-1.311,0.763l-0.479-0.213v-0.583l0.885-0.497l-1.417-0.762v-0.638l0.549-0.283l1.399,0.797v-1.027
	l0.425-0.285l0.513,0.303v1.541l0.94,0.532v-1.082l0.974,0.532v-1.046l-1.329-0.76v-0.55l0.46-0.267l0.886,0.497v-1.596l0.514-0.336
	l0.514,0.336v1.596l0.921-0.514l0.459,0.301v0.496l-1.363,0.779v1.044l0.939-0.565v1.15l0.957-0.53V88.45l0.46-0.215l0.496,0.215
	v1.046l1.435-0.779l0.496,0.299v0.602l-1.4,0.8l0.868,0.495v0.565l-0.46,0.249l-1.346-0.796l-0.939,0.583l0.903,0.567l-0.921,0.53
	l0.957,0.497l1.346-0.743l0.426,0.301v0.547l-0.851,0.48l1.346,0.796v0.62l-0.566,0.266l-1.329-0.744v0.994l-0.479,0.265
	l-0.46-0.265v-1.508l-0.974-0.549v1.046l-0.904-0.567v1.044l1.329,0.745v0.602l-0.46,0.231l-0.885-0.497v1.594l-0.514,0.319
	L46.27,97.749z"/>
<path fill="#020202" d="M18.055,92.081l0.602,0.902h1.134l0.513-0.902l-0.549-0.956h-1.116L18.055,92.081z M18.657,97.749v-1.596
	l-0.886,0.497l-0.461-0.266v-0.567l1.329-0.743v-1.047l-0.957,0.622v-1.117l-0.921,0.533v1.522l-0.496,0.319l-0.425-0.282v-1.011
	l-1.399,0.779l-0.602-0.249v-0.637l1.453-0.798l-0.904-0.478v-0.585l0.514-0.282l1.311,0.779l0.903-0.533l-0.018-0.017l-0.938-0.532
	l0.903-0.567l-0.903-0.531l-1.312,0.763l-0.478-0.213v-0.583l0.885-0.497l-1.417-0.762v-0.638l0.549-0.283l1.399,0.797v-1.027
	l0.425-0.285l0.513,0.303v1.541l0.939,0.532v-1.082l0.974,0.532v-1.046l-1.329-0.76v-0.55l0.461-0.267l0.886,0.497v-1.596
	l0.514-0.336l0.514,0.336v1.596l0.921-0.514l0.46,0.301v0.496l-1.364,0.779v1.044l0.939-0.565v1.15l0.957-0.53V88.45l0.46-0.215
	l0.497,0.215v1.046l1.435-0.779l0.496,0.299v0.602l-1.4,0.8l0.868,0.495v0.565l-0.46,0.249l-1.345-0.796l-0.939,0.583l0.903,0.567
	l-0.921,0.53l0.957,0.497l1.345-0.743l0.426,0.301v0.547l-0.85,0.48l1.345,0.796v0.62l-0.566,0.266l-1.329-0.744v0.994L22.04,95.89
	l-0.46-0.265v-1.508l-0.974-0.549v1.046l-0.904-0.567v1.044l1.329,0.745v0.602l-0.461,0.231l-0.885-0.497v1.594l-0.514,0.319
	L18.657,97.749z"/>
<path fill="#020202" d="M73.03,92.081l0.603,0.902h1.134l0.513-0.902l-0.549-0.956h-1.115L73.03,92.081z M73.633,97.749v-1.596
	l-0.887,0.497l-0.46-0.266v-0.567l1.329-0.743v-1.047l-0.958,0.622v-1.117l-0.921,0.533v1.522l-0.494,0.319l-0.427-0.282v-1.011
	l-1.397,0.779l-0.604-0.249v-0.637l1.452-0.798l-0.903-0.478v-0.585l0.514-0.282l1.312,0.779l0.903-0.533l-0.018-0.017l-0.939-0.532
	l0.902-0.567l-0.902-0.531l-1.311,0.763l-0.478-0.213v-0.583l0.885-0.497l-1.417-0.762v-0.638l0.549-0.283l1.399,0.797v-1.027
	l0.426-0.285l0.513,0.303v1.541l0.939,0.532v-1.082l0.975,0.532v-1.046l-1.329-0.76v-0.55l0.46-0.267l0.887,0.497v-1.596
	l0.514-0.336l0.514,0.336v1.596l0.921-0.514l0.461,0.301v0.496l-1.365,0.779v1.044l0.939-0.565v1.15l0.957-0.53V88.45l0.46-0.215
	l0.496,0.215v1.046l1.435-0.779l0.496,0.299v0.602l-1.4,0.8l0.869,0.495v0.565l-0.461,0.249l-1.346-0.796l-0.938,0.583l0.903,0.567
	l-0.921,0.53l0.956,0.497l1.346-0.743l0.425,0.301v0.547l-0.85,0.48l1.346,0.796v0.62l-0.566,0.266l-1.328-0.744v0.994l-0.479,0.265
	l-0.46-0.265v-1.508l-0.975-0.549v1.046l-0.904-0.567v1.044l1.329,0.745v0.602l-0.46,0.231l-0.886-0.497v1.594l-0.514,0.319
	L73.633,97.749z"/>
</svg>
