<svg xmlns="http://www.w3.org/2000/svg" viewBox="0 0 100 100">
<g clip-rule="evenodd" fill="none" stroke="#000" stroke-linecap="round"><path d="M32.759 40.022c6.19-6.181 12.367-12.375 18.556-18.557M33.695 35.115c3.895-3.896 8.843-8.85 12.738-12.745M20.294 52.485c2.425-2.424 4.849-4.848 7.274-7.273.321-.321.642-.643.964-.964M6.819 65.969c2.92-2.922 6.73-6.739 9.652-9.66M82.92 69.421c4.415-4.414 8.829-8.829 13.244-13.243M75.149 69.233c6.743-6.747 13.494-13.484 20.237-20.231M63.09 69.358c9.093-9.101 18.2-18.186 27.293-27.288M55.071 69.423c9.943-9.95 19.887-19.9 29.84-29.84M51.124 69.393c10.101-10.102 20.196-20.21 30.304-30.304M47.146 69.393c9.942-9.95 19.884-19.899 29.836-29.837M39.315 69.266C50.293 58.28 61.271 47.295 72.261 36.32M31.326 69.3C44.2 56.416 57.074 43.534 69.961 30.664M23.402 69.269L65.33 27.341c.291-.29.582-.581.873-.872M11.715 69.021c14.557-14.556 29.113-29.113 43.67-43.669 1.037-1.035 2.073-2.072 3.109-3.108.114-.114.229-.229.343-.342M8.891 67.868c.071-.071.143-.144.214-.215 14.758-14.768 29.516-29.538 44.29-44.29l1.836-1.836M15.289 69.425c14.024-14.032 28.057-28.056 42.085-42.083 1.276-1.274 2.551-2.55 3.825-3.825M19.019 69.673c14.107-14.115 28.222-28.221 42.333-42.332.82-.818 1.639-1.638 2.458-2.457M27.413 69.237C40.996 55.653 54.58 42.071 68.162 28.488M35.429 69.175c11.922-11.931 23.845-23.86 35.778-35.779M43.165 69.395c9.892-9.899 19.785-19.798 29.687-29.687M59.113 69.36c9.695-9.697 19.386-19.4 29.09-29.089M67.068 69.358c8.451-8.458 16.915-16.902 25.365-25.36M71.047 69.358c7.716-7.722 15.443-15.432 23.158-23.154M79.064 69.296c5.706-5.711 11.418-11.417 17.127-17.125"/></g><path clip-rule="evenodd" fill="none" d="M20.141 52.64c2.92-2.922 5.225-5.217 8.146-8.138"/><g><path fill="none" stroke="#000" stroke-width="2" d="M52.629 21.129c10.07 0 18.288 7.363 19.812 17.003l.468 2.899 2.745-1.028c1.732-.659 3.533-1.061 5.428-1.061 8.567 0 15.477 6.875 15.477 15.442 0 8.565-6.909 15.476-15.477 15.476H14.257c-2.573 0-4.749-.531-6.053-1.404-1.303-.877-1.996-1.92-1.996-4.151 0-4.455 3.587-8.017 8.049-8.017.737 0 1.483.128 2.31.373l3.057.936v-3.212c0-.289.005-.456 0-.498.133-5.293 4.405-9.485 9.733-9.485-.018 0-.138.004-.138.004l3.445.246s-.149-2.684-.166-3.043c-.045-.953-.021-.359-.021-.327 0-11.161 8.986-20.153 20.152-20.153"/></g>
</svg>