<svg xmlns="http://www.w3.org/2000/svg" width="125" height="125">
<defs><clipPath clipPathUnits="userSpaceOnUse" id="a"><path d="M0 100h100V0H0v100z"/></clipPath></defs><g clip-path="url(#a)" transform="matrix(1.25 0 0 -1.25 0 125)"><path d="M62.3474 47.1452c-.164-.785-.399-1.546-.701-2.282-.018-.046-.025-.096-.044-.143-.697-1.636-1.658-3.065-2.874-4.285-1.22-1.215-2.648-2.176-4.285-2.869-1.636-.697-3.392-1.046-5.275-1.046-1.879 0-3.639.349-5.275 1.046-1.637.693-3.065 1.654-4.281 2.869-1.22 1.22-2.181 2.649-2.874 4.285-.697 1.637-1.045 3.397-1.045 5.276 0 .937.087 1.844.261 2.721.164.785.399 1.546.7 2.282.019.046.025.097.044.143.698 1.637 1.658 3.065 2.874 4.285 1.22 1.216 2.648 2.176 4.285 2.869 1.637.698 3.392 1.046 5.275 1.046 1.879 0 3.639-.348 5.276-1.046 1.636-.693 3.065-1.653 4.281-2.869 1.22-1.22 2.18-2.648 2.873-4.285.697-1.637 1.046-3.396 1.046-5.275 0-.938-.088-1.845-.261-2.722m11.492 13.481c-1.288 3.137-3.099 5.781-5.433 7.94-2.334 2.16-5.101 3.814-8.306 4.961-3.201 1.152-6.755 1.726-10.653 1.726-.658 0-1.265-.119-1.907-.155l16.047 24.731h-15.252l-18.913-29.773c-2.019-3.278-3.672-6.496-4.96-9.667-1.288-3.167-1.935-6.703-1.935-10.602 0-3.902.647-7.417 1.935-10.55 1.288-3.138 3.099-5.782 5.432-7.941 2.334-2.16 5.101-3.813 8.307-4.961 3.201-1.152 6.754-1.726 10.652-1.726.659 0 1.265.119 1.908.155L34.7134.0332h15.253l18.912 29.774c2.019 3.277 3.673 6.495 4.961 9.666 1.288 3.167 1.934 6.704 1.934 10.602 0 3.902-.646 7.418-1.934 10.551"/><path d="M62.3474 47.1452c-.164-.785-.399-1.546-.701-2.282-.018-.046-.025-.096-.044-.143-.697-1.636-1.658-3.065-2.874-4.285-1.22-1.215-2.648-2.176-4.285-2.869-1.636-.697-3.392-1.046-5.275-1.046-1.879 0-3.639.349-5.275 1.046-1.637.693-3.065 1.654-4.281 2.869-1.22 1.22-2.181 2.649-2.874 4.285-.697 1.637-1.045 3.397-1.045 5.276 0 .937.087 1.844.261 2.721.164.785.399 1.546.7 2.282.019.046.025.097.044.143.698 1.637 1.658 3.065 2.874 4.285 1.22 1.216 2.648 2.176 4.285 2.869 1.637.698 3.392 1.046 5.275 1.046 1.879 0 3.639-.348 5.276-1.046 1.636-.693 3.065-1.653 4.281-2.869 1.22-1.22 2.18-2.648 2.873-4.285.697-1.637 1.046-3.396 1.046-5.275 0-.938-.088-1.845-.261-2.722zm11.492 13.481c-1.288 3.137-3.099 5.781-5.433 7.94-2.334 2.16-5.101 3.814-8.306 4.961-3.201 1.152-6.755 1.726-10.653 1.726-.658 0-1.265-.119-1.907-.155l16.047 24.731h-15.252l-18.913-29.773c-2.019-3.278-3.672-6.496-4.96-9.667-1.288-3.167-1.935-6.703-1.935-10.602 0-3.902.647-7.417 1.935-10.55 1.288-3.138 3.099-5.782 5.432-7.941 2.334-2.16 5.101-3.813 8.307-4.961 3.201-1.152 6.754-1.726 10.652-1.726.659 0 1.265.119 1.908.155L34.7134.0332h15.253l18.912 29.774c2.019 3.277 3.673 6.495 4.961 9.666 1.288 3.167 1.934 6.704 1.934 10.602 0 3.902-.646 7.418-1.934 10.551z" fill="none" stroke="#000" stroke-width=".5" stroke-miterlimit="10"/></g>
</svg>