<?xml version="1.0" encoding="utf-8"?>
<!-- Generator: Adobe Illustrator 12.0.0, SVG Export Plug-In . SVG Version: 6.00 Build 51448)  -->
<!DOCTYPE svg PUBLIC "-//W3C//DTD SVG 1.1//EN" "http://www.w3.org/Graphics/SVG/1.1/DTD/svg11.dtd" [
	<!ENTITY ns_svg "http://www.w3.org/2000/svg">
	<!ENTITY ns_xlink "http://www.w3.org/1999/xlink">
]>
<svg  version="1.1" id="Layer_1" xmlns="&ns_svg;" xmlns:xlink="&ns_xlink;" width="97.938" height="73.959"
	 viewBox="0 0 97.938 73.959" overflow="visible" enable-background="new 0 0 97.938 73.959" xml:space="preserve">
<path d="M89.656,23.876c-1.209,0.03-2.275,0.423-3.125,1.124c-1.061,0.875-1.75,2.193-1.75,3.719v30.188
	c-2.123,1.594-3.365,4.018-3.375,6.656c-0.008,3.496,2.127,6.419,5.125,7.656c0.971,0.4,2.015,0.65,3.125,0.656
	c1,0.006,1.965-0.177,2.844-0.5c3.171-1.155,5.381-4.229,5.438-7.656c0.043-2.686-1.199-5.18-3.375-6.813V28.5
	c0-1.612-0.82-2.962-2.063-3.781c-0.799-0.529-1.772-0.817-2.813-0.843H89.656z M89.656,26.032c0.58,0.015,1.147,0.174,1.594,0.468
	c0.691,0.457,1.156,1.227,1.156,2.126v31.5c2.006,1,3.375,3.074,3.375,5.469c0,3.371-2.754,6.094-6.125,6.094
	s-6.094-2.723-6.094-6.094c0-2.393,1.369-4.469,3.375-5.469V28.719c0-0.85,0.379-1.575,0.969-2.063
	C88.379,26.266,88.982,26.049,89.656,26.032z M88.031,55.313v5.531c-1.967,0.681-3.375,2.552-3.375,4.75
	c0,2.773,2.227,5.031,5,5.031c2.774,0,5.031-2.258,5.031-5.031c0-2.198-1.408-4.069-3.375-4.75v-5.531H88.031z"/>
<g>
	<polygon points="27.946,53.553 20.509,73.688 21.259,73.959 28.696,53.553 	"/>
	<polygon points="36.238,53.553 28.801,73.688 29.551,73.959 36.988,53.553 	"/>
	<polygon points="44.488,53.511 37.051,73.647 37.801,73.918 45.238,53.511 	"/>
	<polygon points="52.697,53.553 45.26,73.688 46.01,73.959 53.447,53.553 	"/>
	<polygon points="61.03,53.553 53.593,73.688 54.343,73.959 61.78,53.553 	"/>
	<polygon points="20.238,53.511 12.801,73.647 13.551,73.918 20.988,53.511 	"/>
</g>
<path fill="none" stroke="#000000" stroke-width="3" d="M42.531,1.5c-10.477,0-18.938,8.499-18.938,18.969
	c0,0.237,0.052,0.451,0.063,0.688c-0.237-0.016-0.451-0.063-0.688-0.063c-5.636,0-10.219,4.583-10.219,10.219
	c0,0.07,0.031,0.118,0.031,0.188c-0.806-0.242-1.648-0.406-2.531-0.406c-4.834,0-8.75,3.921-8.75,8.75
	c0,4.835,3.916,6.656,8.75,6.656H66.5c8.287,0,15-6.713,15-15c0-8.288-6.713-15-15-15c-1.871,0-3.668,0.408-5.313,1.032
	C59.757,8.475,51.986,1.5,42.531,1.5z"/>
</svg>
