<?xml version="1.0" encoding="utf-8"?>
<!-- Generator: Adobe Illustrator 17.1.0, SVG Export Plug-In . SVG Version: 6.00 Build 0)  -->
<!DOCTYPE svg PUBLIC "-//W3C//DTD SVG 1.1//EN" "http://www.w3.org/Graphics/SVG/1.1/DTD/svg11.dtd">
<svg version="1.1" id="Layer_1" xmlns="http://www.w3.org/2000/svg" xmlns:xlink="http://www.w3.org/1999/xlink" x="0px" y="0px"
	 viewBox="0 0 100 100" enable-background="new 0 0 100 100" xml:space="preserve">
<g>
	<path d="M18.1,48.3c0-4.4,0.9-8.6,2.7-12.3C11.9,40.8,5.9,50.3,6,61.1c0.1,15.6,12.9,28.2,28.5,28.1c11.2-0.1,20.9-6.7,25.4-16.2
		c-4,2.2-8.5,3.4-13.3,3.4C31,76.6,18.2,64,18.1,48.3z"/>
	<polygon points="88.9,56.3 89.6,50.7 85.8,54.9 80.7,52.5 83.4,57.4 79.6,61.6 85.1,60.5 87.9,65.4 88.5,59.8 94,58.7 	"/>
	<polygon points="38.6,27.5 43,22.7 49,25.4 45.8,19.8 45.8,19.7 50.2,15 43.8,16.2 40.6,10.6 39.9,17 33.5,18.3 38.9,20.8 39.4,21 
			"/>
	<polygon points="80.7,35.7 83.9,33.4 80,33.4 78.8,29.6 77.6,33.4 73.7,33.4 76.8,35.7 75.6,39.4 78.8,37.1 81.9,39.4 	"/>
</g>
</svg>
