<svg xmlns="http://www.w3.org/2000/svg" viewBox="0 0 100 100">
<path fill="none" d="M91.9 85.7c-.8 0-1.5.1-2.2.4l-1.1.4-.2-1.2c-.6-3.9-3.9-6.8-7.9-6.8-4.5 0-8.1 3.6-8.1 8.1 0-.1.1 0 .1.3V88l-1.1-.1h-.3c-2.1 0-3.9 1.7-3.9 3.8v1.5l-1.2-.4c-.3-.1-.6-.2-.9-.2-1.8 0-3.2 1.4-3.2 3.2 0 .9.3 1.3.8 1.7.5.4 1.4.6 2.4.6H91.9c3.4 0 6.2-2.8 6.2-6.2 0-3.4-2.8-6.2-6.2-6.2z"/><path d="M21.2 52c1.7 5.6 5.2 10.4 10 13.7-4.6-3.5-8.1-8.2-10-13.7zM91.9 83.8c-.7 0-1.3.2-1.9.3-1.1-4.3-4.9-7.5-9.5-7.5-5.3 0-9.6 4.2-9.9 9.4-2.6.2-4.6 2.2-5.1 4.7-.2 0-.3-.1-.4-.1-2.8 0-5.1 2.3-5.1 5.1 0 1.4.7 2.6 1.7 3.2 1 .7 2.2.9 3.5.9H92c4.5 0 8.1-3.6 8.1-8.1s-3.7-7.9-8.2-7.9zm0 14.3H65.1c-1 0-1.9-.2-2.4-.6-.5-.3-.8-.8-.8-1.7 0-1.8 1.4-3.2 3.2-3.2.3 0 .6.1.9.2l1.2.4v-1.3-.1-.1c0-2.1 1.8-3.8 3.9-3.8h.3l1.1.1v-1.1c0-.3-.1-.3-.1-.3 0-4.5 3.6-8.1 8.1-8.1 4 0 7.3 3 7.9 6.8l.2 1.2 1.1-.4c.7-.3 1.4-.4 2.2-.4 3.4 0 6.2 2.8 6.2 6.2 0 3.4-2.8 6.2-6.2 6.2z"/><path d="M73.6 55c-4 2.2-8.5 3.4-13.3 3.4-15.7.2-28.5-12.4-28.6-28.1 0-4.4.9-8.6 2.7-12.3-8.9 4.8-14.8 14.3-14.8 25.1 0 3.1.6 6.1 1.5 8.9 1.9 5.5 5.4 10.3 10 13.7 4.8 3.5 10.6 5.6 17 5.5 11.3-.1 21-6.7 25.5-16.2z"/>
</svg>