<svg xmlns="http://www.w3.org/2000/svg" viewBox="0 0 100 100">
<path d="M13.9 67.4c.2 0 .4.1.6.1.6-3 2.7-5.4 5.6-6.2-.7-2.6-1.1-5.3-1.2-8.1 0-4.8 1-9.4 3-13.4C12.2 45 5.7 55.2 5.8 67c0 2.6.4 5.2 1 7.6v-.1c0-3.9 3.2-7.1 7.1-7.1zM35.4 80.2H13.9c-1.8 0-3.4-.3-4.8-1.2-.5-.3-.9-.8-1.3-1.2 4.4 11.7 15.8 19.9 29 19.8C49 97.5 59.5 90.3 64.4 80c-4.3 2.4-9.2 3.7-14.5 3.7-5.3 0-10.2-1.3-14.5-3.5z"/><path d="M9.1 79c1.4.9 3 1.2 4.8 1.2h37C57 80.2 62 75.2 62 69c0-6.2-5-11.2-11.2-11.2-.9 0-1.8.3-2.6.5C46.6 52.4 41.5 48 35.1 48c-7.3 0-13.2 5.8-13.6 13-.5 0-1 .1-1.4.3-2.9.8-5 3.2-5.6 6.2-.2 0-.4-.1-.6-.1-3.9 0-7.1 3.2-7.1 7.1v.1c0 1.2.4 2.3 1 3.1.4.5.8.9 1.3 1.3zm4.8-9c.4 0 .8.1 1.3.2l1.7.5V69v-.3c.1-2.9 2.4-5.2 5.4-5.2h.4l1.5.1-.2-1.5v-.4c0-6.2 5-11.1 11.1-11.1 5.6 0 10.1 4.1 11 9.4l.3 1.6 1.5-.6c1-.4 2-.6 3-.6 4.7 0 8.6 3.8 8.6 8.5s-3.8 8.6-8.6 8.6h-37c-1.4 0-2.6-.3-3.3-.8-.7-.5-1.1-1.1-1.1-2.3-.1-2.4 1.9-4.4 4.4-4.4z"/><path fill="#FFF" d="M10.5 76.8c.7.5 1.9.8 3.3.8h37c4.7 0 8.6-3.8 8.6-8.6s-3.8-8.5-8.6-8.5c-1 0-2 .2-3 .6l-1.5.6L46 60c-.8-5.3-5.4-9.4-11-9.4-6.2 0-11.1 5-11.1 11.1v.4l.1 1.5-1.5-.1h-.4c-2.9 0-5.3 2.3-5.4 5.2v2.1l-1.7-.5c-.5-.1-.9-.2-1.3-.2-2.5 0-4.5 2-4.5 4.4.2 1.2.6 1.8 1.3 2.3z"/><path d="M41.5 28.7h6c3.6 0 6.7-2.7 7.3-6.1.1-.4.1-.9.1-1.3 0-4.1-3.3-7.4-7.4-7.4-.6 0-1.2.2-1.7.3-1-3.9-4.5-6.9-8.7-6.9-4.9 0-8.8 3.9-9.1 8.7-2.4.2-4.2 2-4.6 4.3-.1 0-.3-.1-.4-.1-2.6 0-4.7 2.1-4.7 4.7 0 1.3.6 2.4 1.5 3 .9.6 2 .8 3.2.8h18.5zM23 27c-.9 0-1.7-.2-2.2-.5-.5-.3-.7-.7-.7-1.5 0-1.6 1.3-2.9 3-2.9.3 0 .5 0 .8.1l1.1.3v-1.2-.2c0-1.9 1.6-3.5 3.6-3.5h.2l1 .1v-1-.3c0-4.1 3.3-7.4 7.4-7.4 3.7 0 6.7 2.7 7.3 6.3l.2 1.1 1-.4c.6-.2 1.3-.4 2-.4 3.1 0 5.7 2.5 5.7 5.7 0 3.1-2.5 5.7-5.7 5.7H23z"/><path fill="#FFF" d="M47.6 27c3.1 0 5.7-2.5 5.7-5.7 0-3.1-2.5-5.7-5.7-5.7-.7 0-1.4.1-2 .4l-1 .4-.2-1.1c-.6-3.5-3.6-6.3-7.3-6.3-4.1 0-7.4 3.3-7.4 7.4v1.3l-1-.1h-.2c-2 0-3.5 1.5-3.6 3.5v1.4l-1.1-.3c-.3-.2-.5-.2-.8-.2-1.6 0-3 1.3-3 2.9 0 .8.3 1.2.7 1.5.5.3 1.3.5 2.2.5h24.7z"/><path d="M68 37.2h-.3c-1.7 0-3.1 1.4-3.1 3.1 0 .8.4 1.6 1 2 .6.4 1.3.5 2.1.5H83.8c2.7 0 4.9-2.2 4.9-4.9S86.5 33 83.8 33c-.4 0-.8.1-1.1.2-.7-2.6-2.9-4.5-5.7-4.5-2.2 0-4.1 1.2-5.1 2.9-.5.8-.8 1.7-.8 2.7-1.6.2-2.8 1.3-3.1 2.9zm3.5-1.8h.6v-.6-.2c0-2.7 2.2-4.8 4.9-4.8 2.4 0 4.4 1.8 4.8 4.1l.1.7.7-.2c.4-.2.9-.3 1.3-.3 2.1 0 3.7 1.7 3.7 3.7 0 2.1-1.7 3.7-3.7 3.7H67.8c-.6 0-1.1-.1-1.5-.3-.3-.2-.5-.5-.5-1 0-1.1.9-1.9 1.9-1.9.2 0 .4 0 .6.1l.7.2v-.8-.1c0-1.3 1.1-2.3 2.3-2.3h.2z"/><path fill="#FFF" d="M69 37.7v.9l-.7-.2c-.2-.1-.4-.1-.6-.1-1.1 0-1.9.9-1.9 1.9 0 .5.2.8.5 1 .3.2.8.3 1.5.3H83.9c2.1 0 3.7-1.7 3.7-3.7 0-2.1-1.7-3.7-3.7-3.7-.5 0-.9.1-1.3.3l-.7.2-.1-.7c-.4-2.3-2.3-4.1-4.8-4.1-2.7 0-4.9 2.2-4.9 4.8v.8h-.8c-1.2 0-2.3 1-2.3 2.3z"/><path d="M92.4 57.4c-.5 0-1 .1-1.5.3-.9-3.3-3.7-5.8-7.3-5.8-1.2 0-2.3.3-3.3.8-2.4 1.2-4.1 3.6-4.3 6.5-2 .2-3.5 1.7-3.9 3.6h-.3c-2.2 0-3.9 1.8-3.9 3.9 0 1.1.5 2 1.3 2.5s1.7.7 2.7.7h20.5c3.4 0 6.2-2.8 6.2-6.2 0-3.5-2.7-6.3-6.2-6.3zm0 10.9H71.9c-.8 0-1.5-.2-1.9-.4-.4-.3-.6-.6-.6-1.3 0-1.4 1.1-2.5 2.5-2.5.2 0 .5 0 .7.1l.9.3v-1-.2c0-1.6 1.4-2.9 3-2.9h.2l.8.1v-.8-.2c0-3.4 2.8-6.2 6.2-6.2 3.1 0 5.6 2.3 6.1 5.2l.1.9.8-.3c.5-.2 1.1-.3 1.7-.3 2.6 0 4.8 2.1 4.8 4.7 0 2.7-2.1 4.8-4.8 4.8z"/><path fill="#FFF" d="M92.4 58.8c-.6 0-1.1.1-1.7.3l-.8.3-.1-.9c-.5-3-3-5.2-6.1-5.2-3.4 0-6.2 2.8-6.2 6.2v1l-.8-.1h-.2c-1.6 0-3 1.3-3 2.9v1.2l-.9-.3c-.3-.1-.5-.1-.7-.1-1.4 0-2.5 1.1-2.5 2.5 0 .7.2 1 .6 1.3.4.3 1.1.4 1.9.4h20.5c2.6 0 4.8-2.1 4.8-4.8 0-2.6-2.1-4.7-4.8-4.7z"/>
</svg>