<?xml version="1.0" encoding="utf-8"?>
<!-- Generator: Adobe Illustrator 17.1.0, SVG Export Plug-In . SVG Version: 6.00 Build 0)  -->
<!DOCTYPE svg PUBLIC "-//W3C//DTD SVG 1.1//EN" "http://www.w3.org/Graphics/SVG/1.1/DTD/svg11.dtd">
<svg version="1.1" id="Layer_1" xmlns="http://www.w3.org/2000/svg" xmlns:xlink="http://www.w3.org/1999/xlink" x="0px" y="0px"
	 viewBox="0 0 100 100" enable-background="new 0 0 100 100" xml:space="preserve">
<g>
	<path d="M13.9,67.4c0.2,0,0.4,0.1,0.6,0.1c0.6-3,2.7-5.4,5.6-6.2c-0.7-2.6-1.1-5.3-1.2-8.1c0-4.8,1-9.4,3-13.4
		C12.2,45,5.7,55.2,5.8,67c0,2.6,0.4,5.2,1,7.6c0,0,0-0.1,0-0.1C6.8,70.6,10,67.4,13.9,67.4z"/>
	<path d="M35.4,80.2h-3.4H13.9c-1.8,0-3.4-0.3-4.8-1.2c-0.5-0.3-0.9-0.8-1.3-1.2c4.4,11.7,15.8,19.9,29,19.8
		c12.2-0.1,22.7-7.3,27.6-17.6c-4.3,2.4-9.2,3.7-14.5,3.7C44.6,83.7,39.7,82.4,35.4,80.2z"/>
	<path d="M9.1,79c1.4,0.9,3,1.2,4.8,1.2h18.1h3.4h6.4h9.1C57,80.2,62,75.2,62,69c0-6.2-5-11.2-11.2-11.2c-0.9,0-1.8,0.3-2.6,0.5
		C46.6,52.4,41.5,48,35.1,48c-7.3,0-13.2,5.8-13.6,13c-0.5,0-1,0.1-1.4,0.3c-2.9,0.8-5,3.2-5.6,6.2c-0.2,0-0.4-0.1-0.6-0.1
		c-3.9,0-7.1,3.2-7.1,7.1c0,0,0,0.1,0,0.1c0,1.2,0.4,2.3,1,3.1C8.2,78.2,8.6,78.6,9.1,79z M13.9,70c0.4,0,0.8,0.1,1.3,0.2l1.7,0.5
		V69c0-0.2,0-0.3,0-0.3c0.1-2.9,2.4-5.2,5.4-5.2c0,0,0.1,0,0.4,0l1.5,0.1L24,62.1c0-0.4,0-0.5,0-0.4c0-6.2,5-11.1,11.1-11.1
		c5.6,0,10.1,4.1,11,9.4l0.3,1.6l1.5-0.6c1-0.4,2-0.6,3-0.6c4.7,0,8.6,3.8,8.6,8.5s-3.8,8.6-8.6,8.6h-9h-9.9H13.9
		c-1.4,0-2.6-0.3-3.3-0.8c-0.7-0.5-1.1-1.1-1.1-2.3C9.4,72,11.4,70,13.9,70z"/>
	<path fill="#FFFFFF" d="M10.5,76.8c0.7,0.5,1.9,0.8,3.3,0.8h18.1h9.9h9c4.7,0,8.6-3.8,8.6-8.6s-3.8-8.5-8.6-8.5c-1,0-2,0.2-3,0.6
		l-1.5,0.6L46,60c-0.8-5.3-5.4-9.4-11-9.4c-6.2,0-11.1,5-11.1,11.1c0-0.1,0,0,0,0.4l0.1,1.5l-1.5-0.1c-0.3,0-0.4,0-0.4,0
		c-2.9,0-5.3,2.3-5.4,5.2c0,0,0,0.1,0,0.3v1.8l-1.7-0.5c-0.5-0.1-0.9-0.2-1.3-0.2c-2.5,0-4.5,2-4.5,4.4C9.4,75.7,9.8,76.3,10.5,76.8
		z"/>
	<path d="M41.5,28.7h6c3.6,0,6.7-2.7,7.3-6.1c0.1-0.4,0.1-0.9,0.1-1.3c0-4.1-3.3-7.4-7.4-7.4c-0.6,0-1.2,0.2-1.7,0.3
		c-1-3.9-4.5-6.9-8.7-6.9c-4.9,0-8.8,3.9-9.1,8.7c-2.4,0.2-4.2,2-4.6,4.3c-0.1,0-0.3-0.1-0.4-0.1c-2.6,0-4.7,2.1-4.7,4.7
		c0,1.3,0.6,2.4,1.5,3c0.9,0.6,2,0.8,3.2,0.8h7.7H35H41.5z M23,27c-0.9,0-1.7-0.2-2.2-0.5c-0.5-0.3-0.7-0.7-0.7-1.5
		c0-1.6,1.3-2.9,3-2.9c0.3,0,0.5,0,0.8,0.1l1.1,0.3v-1.2c0-0.1,0-0.2,0-0.2c0-1.9,1.6-3.5,3.6-3.5c0,0,0,0,0.2,0l1,0.1l0-1
		c0-0.2,0-0.3,0-0.3c0-4.1,3.3-7.4,7.4-7.4c3.7,0,6.7,2.7,7.3,6.3l0.2,1.1l1-0.4c0.6-0.2,1.3-0.4,2-0.4c3.1,0,5.7,2.5,5.7,5.7
		c0,3.1-2.5,5.7-5.7,5.7h-6H35H23z"/>
	<path fill="#FFFFFF" d="M47.6,27c3.1,0,5.7-2.5,5.7-5.7c0-3.1-2.5-5.7-5.7-5.7c-0.7,0-1.4,0.1-2,0.4l-1,0.4l-0.2-1.1
		C43.8,11.8,40.8,9,37.1,9c-4.1,0-7.4,3.3-7.4,7.4c0-0.1,0,0,0,0.3l0,1l-1-0.1c-0.2,0-0.3,0-0.2,0c-2,0-3.5,1.5-3.6,3.5
		c0,0,0,0.1,0,0.2v1.2l-1.1-0.3C23.5,22,23.3,22,23,22c-1.6,0-3,1.3-3,2.9c0,0.8,0.3,1.2,0.7,1.5c0.5,0.3,1.3,0.5,2.2,0.5h12h6.5
		H47.6z"/>
	<path d="M68,37.2c-0.1,0-0.2,0-0.3,0c-1.7,0-3.1,1.4-3.1,3.1c0,0.8,0.4,1.6,1,2c0.6,0.4,1.3,0.5,2.1,0.5h7.9h3.1h1.2h3.9
		c2.7,0,4.9-2.2,4.9-4.9c0-2.7-2.2-4.9-4.9-4.9c-0.4,0-0.8,0.1-1.1,0.2c-0.7-2.6-2.9-4.5-5.7-4.5c-2.2,0-4.1,1.2-5.1,2.9
		c-0.5,0.8-0.8,1.7-0.8,2.7C69.5,34.5,68.3,35.6,68,37.2z M71.5,35.4l0.6,0l0-0.6c0-0.2,0-0.2,0-0.2c0-2.7,2.2-4.8,4.9-4.8
		c2.4,0,4.4,1.8,4.8,4.1l0.1,0.7l0.7-0.2c0.4-0.2,0.9-0.3,1.3-0.3c2.1,0,3.7,1.7,3.7,3.7c0,2.1-1.7,3.7-3.7,3.7h-3.9h-4.3h-7.9
		c-0.6,0-1.1-0.1-1.5-0.3c-0.3-0.2-0.5-0.5-0.5-1c0-1.1,0.9-1.9,1.9-1.9c0.2,0,0.4,0,0.6,0.1l0.7,0.2v-0.8c0-0.1,0-0.1,0-0.1
		c0-1.3,1.1-2.3,2.3-2.3C71.3,35.4,71.4,35.4,71.5,35.4z"/>
	<path fill="#FFFFFF" d="M69,37.7c0,0,0,0.1,0,0.1v0.8l-0.7-0.2c-0.2-0.1-0.4-0.1-0.6-0.1c-1.1,0-1.9,0.9-1.9,1.9
		c0,0.5,0.2,0.8,0.5,1c0.3,0.2,0.8,0.3,1.5,0.3h7.9h4.3h3.9c2.1,0,3.7-1.7,3.7-3.7c0-2.1-1.7-3.7-3.7-3.7c-0.5,0-0.9,0.1-1.3,0.3
		l-0.7,0.2l-0.1-0.7c-0.4-2.3-2.3-4.1-4.8-4.1c-2.7,0-4.9,2.2-4.9,4.8c0,0,0,0,0,0.2l0,0.6l-0.6,0c-0.1,0-0.2,0-0.2,0
		C70.1,35.4,69,36.4,69,37.7z"/>
	<path d="M92.4,57.4c-0.5,0-1,0.1-1.5,0.3c-0.9-3.3-3.7-5.8-7.3-5.8c-1.2,0-2.3,0.3-3.3,0.8c-2.4,1.2-4.1,3.6-4.3,6.5
		c-2,0.2-3.5,1.7-3.9,3.6c-0.1,0-0.2,0-0.3,0c-2.2,0-3.9,1.8-3.9,3.9c0,1.1,0.5,2,1.3,2.5c0.8,0.5,1.7,0.7,2.7,0.7h3.5h6.5h5.5h5
		c3.4,0,6.2-2.8,6.2-6.2C98.6,60.2,95.9,57.4,92.4,57.4z M92.4,68.3h-5h-5.5h-10c-0.8,0-1.5-0.2-1.9-0.4c-0.4-0.3-0.6-0.6-0.6-1.3
		c0-1.4,1.1-2.5,2.5-2.5c0.2,0,0.5,0,0.7,0.1l0.9,0.3v-1c0-0.1,0-0.1,0-0.2c0-1.6,1.4-2.9,3-2.9c0,0,0,0,0.2,0l0.8,0.1l0-0.8
		c0-0.2,0-0.3,0-0.2c0-3.4,2.8-6.2,6.2-6.2c3.1,0,5.6,2.3,6.1,5.2l0.1,0.9l0.8-0.3c0.5-0.2,1.1-0.3,1.7-0.3c2.6,0,4.8,2.1,4.8,4.7
		C97.2,66.2,95.1,68.3,92.4,68.3z"/>
	<path fill="#FFFFFF" d="M92.4,58.8c-0.6,0-1.1,0.1-1.7,0.3l-0.8,0.3l-0.1-0.9c-0.5-3-3-5.2-6.1-5.2c-3.4,0-6.2,2.8-6.2,6.2
		c0,0,0,0,0,0.2l0,0.8l-0.8-0.1c-0.2,0-0.2,0-0.2,0c-1.6,0-3,1.3-3,2.9c0,0,0,0.1,0,0.2v1l-0.9-0.3c-0.3-0.1-0.5-0.1-0.7-0.1
		c-1.4,0-2.5,1.1-2.5,2.5c0,0.7,0.2,1,0.6,1.3c0.4,0.3,1.1,0.4,1.9,0.4h10h5.5h5c2.6,0,4.8-2.1,4.8-4.8
		C97.2,60.9,95.1,58.8,92.4,58.8z"/>
</g>
</svg>
