<svg height="100" width="100" xmlns="http://www.w3.org/2000/svg">
<path d="m99.515625 89.820312-47.488281-82.25c-.417969-.726562-1.195313-1.175781-2.039063-1.175781-.839843 0-1.617187.449219-2.035156 1.175781l-47.636719 82.507813c-.421875.726563-.421875 1.625 0 2.351563.417969.730468 1.195313 1.179687 2.035156 1.179687h95.273438.023438c1.300781 0 2.355468-1.054687 2.355468-2.355469 0-.539062-.183594-1.035156-.488281-1.433594zm-93.085937-.917968 43.558593-75.445313 43.5625 75.445313zm0 0"/><path d="m47.636719 37.277344v33.757812c0 1.300782 1.054687 2.351563 2.351562 2.351563 1.300781 0 2.355469-1.050781 2.355469-2.351563v-33.757812c0-1.300782-1.054688-2.355469-2.355469-2.355469-1.296875 0-2.351562 1.054687-2.351562 2.355469zm0 0"/><path d="m49.988281 76.128906c-1.613281 0-2.921875 1.308594-2.921875 2.921875s1.308594 2.921875 2.921875 2.921875c1.617188 0 2.925781-1.308594 2.925781-2.921875s-1.308593-2.921875-2.925781-2.921875zm0 0"/>
</svg>
