<svg xmlns="http://www.w3.org/2000/svg" height="100" width="100">
<path d="m51.312,5.9375c-5.183,0-9.975,1.68-13.875,4.5h27.688c-3.879-2.82-8.6415-4.5-13.812-4.5zm-18.312,8.6245c-1.135,1.375-2.1022,2.891-2.9062,4.5h42.312c-0.806-1.614-1.7712-3.121-2.9062-4.5h-36.5zm-4.5,8.625c-0.41,1.451-0.6865,2.95-0.8125,4.5h12.469v4.125h-19.094c-2.041,1.037-3.774,2.58-5,4.5h24.094v4.125h-25.812c-0.192,0.879-0.28125,1.814-0.28125,2.75,0,0.087,0.03125,0.163,0.03125,0.25-1.008-0.302-2.0542-0.53125-3.1562-0.53125-2.3633,0-4.5562,0.75825-6.3438,2.0312h35.562v4.125h-6.25v-3.6875h-20.406v3.6875h-12.406c-0.66682,1.366-1.0543,2.89-1.095,4.5h13.5v4.125h-12.656c1.6598,3.194,5.5611,4.5,10.094,4.5h2.5625v21.281h-13.5v10.594h100v-10.594h-12.75v-22.312c2.2843-0.7748,4.3939-1.9356,6.1875-3.4688h-6.1875v-4.125h9.7812c0.893-1.385,1.5888-2.896,2.0938-4.5h-35.406v-4.125h36.219c0.039-0.499,0.0625-0.991,0.0625-1.5,0-1.025-0.092-2.02-0.25-3h-36.031v-4.125h34.875c-0.668-1.626-1.551-3.141-2.625-4.5h-32.25v-4.125h27.688c-2.932-1.897-6.4032-3-10.156-3-2.34,0-4.568,0.47-6.625,1.25-0.15-0.948-0.368-1.843-0.625-2.75h-45.5zm14.094,6.3438,7.4375,0,0,2.2812-7.4375,0,0-2.2812zm11.25,0,7.4375,0,0,2.2812-7.4375,0,0-2.2812zm-11.25,8.125,7.4375,0,0,2.7812-7.4375,0,0-2.7812zm11.25,0,7.4375,0,0,2.7812-7.4375,0,0-2.7812zm-37.375,15.906,4.5625,0,0,2.3125-4.5625,0,0-2.3125zm9.875,0,4.5625,0,0,2.3125-4.5625,0,0-2.3125zm7.5625,0,6.25,0,0,4.125-6.25,0,0-4.125zm29.812,0,9.4062,0,0,4.125-9.4062,0,0-4.125zm-29.812,8.625,6.25,0,0,21.281-6.25,0,0-21.281zm29.812,0,9.4062,0,0,21.281-9.4062,0,0-21.281z"/>
</svg>
